M48
; DRILL file {KiCad 5.1.9+dfsg1-1~bpo10+1} date Mon May 16 17:10:35 2022
; FORMAT={2:4/ absolute / inch / suppress leading zeros}
; #@! TF.CreationDate,2022-05-16T17:10:35+08:00
; #@! TF.GenerationSoftware,Kicad,Pcbnew,5.1.9+dfsg1-1~bpo10+1
FMAT,2
INCH,TZ
T1C0.0157
T2C0.0315
T3C0.0354
T4C0.0374
T5C0.0433
T6C0.1260
%
G90
G05
T1
X38600Y-38400
X38600Y-39800
X38600Y-43600
X38800Y-41600
X38800Y-45200
X38800Y-46800
X39200Y-40600
X39400Y-38400
X39400Y-39800
X39400Y-42600
X39400Y-47400
X43000Y-38400
X43000Y-39800
X43000Y-42600
X43200Y-45600
X43400Y-43600
X43600Y-38600
X43600Y-40600
X43600Y-41600
X43600Y-47400
X46400Y-47400
X46800Y-45800
X47000Y-38600
X47200Y-47400
X47400Y-40600
X47600Y-41600
X47600Y-46600
X48000Y-38400
X48000Y-40000
X48000Y-44800
X48200Y-42600
X51600Y-40600
X51600Y-42600
X51600Y-46600
X51800Y-38400
X51800Y-39800
X51800Y-45200
X52000Y-47800
X52200Y-41600
X52200Y-43600
X52400Y-38200
X52400Y-40400
X54600Y-47000
X54600Y-48000
X56000Y-38200
X56000Y-41600
X56000Y-43600
X56200Y-38600
X56200Y-39800
X56400Y-44600
X56600Y-40400
X56800Y-42600
X57000Y-47800
X59800Y-47200
X60200Y-39600
X60200Y-42600
X60200Y-46000
X60400Y-38600
X60400Y-40400
X60600Y-47800
X61000Y-38000
X61000Y-40000
X61000Y-41600
X61000Y-44600
X64400Y-38400
X64400Y-39800
X64800Y-40600
X64800Y-45000
X65200Y-42600
X65400Y-45400
X65600Y-40200
X65800Y-38200
X66000Y-46600
X66000Y-47600
X68600Y-47400
X68600Y-48000
X68800Y-42600
X69200Y-38600
X69200Y-39800
X69200Y-44600
X69400Y-40200
X69400Y-41600
X69600Y-43600
X69600Y-45400
X69800Y-42600
X69800Y-47600
X70000Y-40600
X70600Y-46400
X71600Y-45400
X71800Y-47400
X72800Y-47200
X73200Y-41600
X73400Y-38200
X73400Y-39800
X73400Y-43600
X73600Y-44800
X73600Y-45400
X74000Y-38600
X74000Y-40400
X74200Y-42600
X76800Y-40600
X76800Y-47400
X77400Y-45200
X77600Y-41600
X77800Y-38600
X77800Y-39800
X78000Y-43600
X78400Y-38200
X78600Y-40200
X78600Y-42600
X78800Y-45200
X78800Y-47600
X80200Y-46800
X81800Y-38200
X81800Y-39600
X81800Y-43600
X81800Y-46000
X81800Y-47200
X82000Y-44800
X82400Y-40400
X82400Y-41600
X82400Y-42600
X82600Y-38600
X83200Y-40600
X84000Y-45600
X85000Y-47200
X85200Y-40000
X86000Y-46000
X86200Y-40000
X86200Y-42600
X86200Y-45000
X86600Y-40600
X86750Y-38250
X87000Y-41600
X87000Y-43600
X87200Y-40000
X87200Y-44800
X88800Y-38400
X89400Y-45400
X89400Y-46600
X89400Y-48000
X90000Y-40200
X90200Y-41200
X90200Y-47400
X92200Y-42200
X92400Y-39400
X92400Y-46000
X92600Y-40800
X92600Y-43800
X92600Y-44800
X92600Y-46800
T2
X64400Y-46400
X64400Y-47600
X67400Y-46400
X67400Y-47600
X69200Y-46400
X72200Y-46400
T3
X52848Y-46552
X53848Y-46552
X55391Y-46552
X56391Y-46552
X57852Y-46552
X58852Y-46552
T4
X36614Y-39173
X36614Y-40157
X36614Y-41142
X36614Y-42126
X36614Y-43110
X36614Y-44094
X40945Y-39173
X40945Y-40157
X40945Y-41142
X40945Y-42126
X40945Y-43110
X40945Y-44094
X45276Y-39173
X45276Y-40157
X45276Y-41142
X45276Y-42126
X45276Y-43110
X45276Y-44094
X49606Y-39173
X49606Y-40157
X49606Y-41142
X49606Y-42126
X49606Y-43110
X49606Y-44094
X53937Y-39173
X53937Y-40157
X53937Y-41142
X53937Y-42126
X53937Y-43110
X53937Y-44094
X58268Y-39173
X58268Y-40157
X58268Y-41142
X58268Y-42126
X58268Y-43110
X58268Y-44094
X62598Y-39173
X62598Y-40157
X62598Y-41142
X62598Y-42126
X62598Y-43110
X62598Y-44094
X66929Y-39173
X66929Y-40157
X66929Y-41142
X66929Y-42126
X66929Y-43110
X66929Y-44094
X71260Y-39173
X71260Y-40157
X71260Y-41142
X71260Y-42126
X71260Y-43110
X71260Y-44094
X75591Y-39173
X75591Y-40157
X75591Y-41142
X75591Y-42126
X75591Y-43110
X75591Y-44094
X79921Y-39173
X79921Y-40157
X79921Y-41142
X79921Y-42126
X79921Y-43110
X79921Y-44094
X84252Y-39173
X84252Y-40157
X84252Y-41142
X84252Y-42126
X84252Y-43110
X84252Y-44094
X88583Y-39173
X88583Y-40157
X88583Y-41142
X88583Y-42126
X88583Y-43110
X88583Y-44094
T5
X34094Y-45669
X34094Y-47386
X34114Y-38780
X34114Y-40472
X34114Y-42205
X34114Y-43937
X91339Y-38780
X91339Y-40512
X91339Y-42244
X91339Y-43976
X91339Y-45709
X91339Y-47402
T6
X37000Y-46800
X49600Y-46800
X62200Y-46800
X74800Y-46800
X87800Y-46800
T0
M30
