%TF.GenerationSoftware,KiCad,Pcbnew,5.1.9+dfsg1-1~bpo10+1*%
%TF.CreationDate,2022-05-16T17:10:37+08:00*%
%TF.ProjectId,BusBoard,42757342-6f61-4726-942e-6b696361645f,rev?*%
%TF.SameCoordinates,Original*%
%TF.FileFunction,Soldermask,Top*%
%TF.FilePolarity,Negative*%
%FSLAX46Y46*%
G04 Gerber Fmt 4.6, Leading zero omitted, Abs format (unit mm)*
G04 Created by KiCad (PCBNEW 5.1.9+dfsg1-1~bpo10+1) date 2022-05-16 17:10:37*
%MOMM*%
%LPD*%
G01*
G04 APERTURE LIST*
%ADD10R,1.800000X1.800000*%
%ADD11C,1.800000*%
%ADD12O,1.950000X1.700000*%
%ADD13C,1.600000*%
%ADD14O,1.600000X1.600000*%
%ADD15C,3.200000*%
G04 APERTURE END LIST*
D10*
%TO.C,D1*%
X143234000Y-118242000D03*
D11*
X140694000Y-118242000D03*
%TD*%
%TO.C,D2*%
X146944000Y-118242000D03*
D10*
X149484000Y-118242000D03*
%TD*%
%TO.C,D3*%
X134234000Y-118242000D03*
D11*
X136774000Y-118242000D03*
%TD*%
%TO.C,J3*%
G36*
G01*
X93725000Y-112850000D02*
X92275000Y-112850000D01*
G75*
G02*
X92025000Y-112600000I0J250000D01*
G01*
X92025000Y-111400000D01*
G75*
G02*
X92275000Y-111150000I250000J0D01*
G01*
X93725000Y-111150000D01*
G75*
G02*
X93975000Y-111400000I0J-250000D01*
G01*
X93975000Y-112600000D01*
G75*
G02*
X93725000Y-112850000I-250000J0D01*
G01*
G37*
D12*
X93000000Y-109500000D03*
X93000000Y-107000000D03*
X93000000Y-104500000D03*
X93000000Y-102000000D03*
X93000000Y-99500000D03*
%TD*%
%TO.C,J4*%
X104000000Y-99500000D03*
X104000000Y-102000000D03*
X104000000Y-104500000D03*
X104000000Y-107000000D03*
X104000000Y-109500000D03*
G36*
G01*
X104725000Y-112850000D02*
X103275000Y-112850000D01*
G75*
G02*
X103025000Y-112600000I0J250000D01*
G01*
X103025000Y-111400000D01*
G75*
G02*
X103275000Y-111150000I250000J0D01*
G01*
X104725000Y-111150000D01*
G75*
G02*
X104975000Y-111400000I0J-250000D01*
G01*
X104975000Y-112600000D01*
G75*
G02*
X104725000Y-112850000I-250000J0D01*
G01*
G37*
%TD*%
%TO.C,J7*%
G36*
G01*
X115725000Y-112850000D02*
X114275000Y-112850000D01*
G75*
G02*
X114025000Y-112600000I0J250000D01*
G01*
X114025000Y-111400000D01*
G75*
G02*
X114275000Y-111150000I250000J0D01*
G01*
X115725000Y-111150000D01*
G75*
G02*
X115975000Y-111400000I0J-250000D01*
G01*
X115975000Y-112600000D01*
G75*
G02*
X115725000Y-112850000I-250000J0D01*
G01*
G37*
X115000000Y-109500000D03*
X115000000Y-107000000D03*
X115000000Y-104500000D03*
X115000000Y-102000000D03*
X115000000Y-99500000D03*
%TD*%
%TO.C,J10*%
X181000000Y-99500000D03*
X181000000Y-102000000D03*
X181000000Y-104500000D03*
X181000000Y-107000000D03*
X181000000Y-109500000D03*
G36*
G01*
X181725000Y-112850000D02*
X180275000Y-112850000D01*
G75*
G02*
X180025000Y-112600000I0J250000D01*
G01*
X180025000Y-111400000D01*
G75*
G02*
X180275000Y-111150000I250000J0D01*
G01*
X181725000Y-111150000D01*
G75*
G02*
X181975000Y-111400000I0J-250000D01*
G01*
X181975000Y-112600000D01*
G75*
G02*
X181725000Y-112850000I-250000J0D01*
G01*
G37*
%TD*%
%TO.C,J13*%
G36*
G01*
X192725000Y-112850000D02*
X191275000Y-112850000D01*
G75*
G02*
X191025000Y-112600000I0J250000D01*
G01*
X191025000Y-111400000D01*
G75*
G02*
X191275000Y-111150000I250000J0D01*
G01*
X192725000Y-111150000D01*
G75*
G02*
X192975000Y-111400000I0J-250000D01*
G01*
X192975000Y-112600000D01*
G75*
G02*
X192725000Y-112850000I-250000J0D01*
G01*
G37*
X192000000Y-109500000D03*
X192000000Y-107000000D03*
X192000000Y-104500000D03*
X192000000Y-102000000D03*
X192000000Y-99500000D03*
%TD*%
%TO.C,J14*%
X203000000Y-99500000D03*
X203000000Y-102000000D03*
X203000000Y-104500000D03*
X203000000Y-107000000D03*
X203000000Y-109500000D03*
G36*
G01*
X203725000Y-112850000D02*
X202275000Y-112850000D01*
G75*
G02*
X202025000Y-112600000I0J250000D01*
G01*
X202025000Y-111400000D01*
G75*
G02*
X202275000Y-111150000I250000J0D01*
G01*
X203725000Y-111150000D01*
G75*
G02*
X203975000Y-111400000I0J-250000D01*
G01*
X203975000Y-112600000D01*
G75*
G02*
X203725000Y-112850000I-250000J0D01*
G01*
G37*
%TD*%
%TO.C,J17*%
G36*
G01*
X214725000Y-112850000D02*
X213275000Y-112850000D01*
G75*
G02*
X213025000Y-112600000I0J250000D01*
G01*
X213025000Y-111400000D01*
G75*
G02*
X213275000Y-111150000I250000J0D01*
G01*
X214725000Y-111150000D01*
G75*
G02*
X214975000Y-111400000I0J-250000D01*
G01*
X214975000Y-112600000D01*
G75*
G02*
X214725000Y-112850000I-250000J0D01*
G01*
G37*
X214000000Y-109500000D03*
X214000000Y-107000000D03*
X214000000Y-104500000D03*
X214000000Y-102000000D03*
X214000000Y-99500000D03*
%TD*%
%TO.C,J18*%
X170000000Y-99500000D03*
X170000000Y-102000000D03*
X170000000Y-104500000D03*
X170000000Y-107000000D03*
X170000000Y-109500000D03*
G36*
G01*
X170725000Y-112850000D02*
X169275000Y-112850000D01*
G75*
G02*
X169025000Y-112600000I0J250000D01*
G01*
X169025000Y-111400000D01*
G75*
G02*
X169275000Y-111150000I250000J0D01*
G01*
X170725000Y-111150000D01*
G75*
G02*
X170975000Y-111400000I0J-250000D01*
G01*
X170975000Y-112600000D01*
G75*
G02*
X170725000Y-112850000I-250000J0D01*
G01*
G37*
%TD*%
%TO.C,J19*%
G36*
G01*
X159725000Y-112850000D02*
X158275000Y-112850000D01*
G75*
G02*
X158025000Y-112600000I0J250000D01*
G01*
X158025000Y-111400000D01*
G75*
G02*
X158275000Y-111150000I250000J0D01*
G01*
X159725000Y-111150000D01*
G75*
G02*
X159975000Y-111400000I0J-250000D01*
G01*
X159975000Y-112600000D01*
G75*
G02*
X159725000Y-112850000I-250000J0D01*
G01*
G37*
X159000000Y-109500000D03*
X159000000Y-107000000D03*
X159000000Y-104500000D03*
X159000000Y-102000000D03*
X159000000Y-99500000D03*
%TD*%
%TO.C,J20*%
X225000000Y-99500000D03*
X225000000Y-102000000D03*
X225000000Y-104500000D03*
X225000000Y-107000000D03*
X225000000Y-109500000D03*
G36*
G01*
X225725000Y-112850000D02*
X224275000Y-112850000D01*
G75*
G02*
X224025000Y-112600000I0J250000D01*
G01*
X224025000Y-111400000D01*
G75*
G02*
X224275000Y-111150000I250000J0D01*
G01*
X225725000Y-111150000D01*
G75*
G02*
X225975000Y-111400000I0J-250000D01*
G01*
X225975000Y-112600000D01*
G75*
G02*
X225725000Y-112850000I-250000J0D01*
G01*
G37*
%TD*%
%TO.C,J21*%
G36*
G01*
X148725000Y-112850000D02*
X147275000Y-112850000D01*
G75*
G02*
X147025000Y-112600000I0J250000D01*
G01*
X147025000Y-111400000D01*
G75*
G02*
X147275000Y-111150000I250000J0D01*
G01*
X148725000Y-111150000D01*
G75*
G02*
X148975000Y-111400000I0J-250000D01*
G01*
X148975000Y-112600000D01*
G75*
G02*
X148725000Y-112850000I-250000J0D01*
G01*
G37*
X148000000Y-109500000D03*
X148000000Y-107000000D03*
X148000000Y-104500000D03*
X148000000Y-102000000D03*
X148000000Y-99500000D03*
%TD*%
%TO.C,J22*%
X126000000Y-99500000D03*
X126000000Y-102000000D03*
X126000000Y-104500000D03*
X126000000Y-107000000D03*
X126000000Y-109500000D03*
G36*
G01*
X126725000Y-112850000D02*
X125275000Y-112850000D01*
G75*
G02*
X125025000Y-112600000I0J250000D01*
G01*
X125025000Y-111400000D01*
G75*
G02*
X125275000Y-111150000I250000J0D01*
G01*
X126725000Y-111150000D01*
G75*
G02*
X126975000Y-111400000I0J-250000D01*
G01*
X126975000Y-112600000D01*
G75*
G02*
X126725000Y-112850000I-250000J0D01*
G01*
G37*
%TD*%
%TO.C,J23*%
G36*
G01*
X137725000Y-112850000D02*
X136275000Y-112850000D01*
G75*
G02*
X136025000Y-112600000I0J250000D01*
G01*
X136025000Y-111400000D01*
G75*
G02*
X136275000Y-111150000I250000J0D01*
G01*
X137725000Y-111150000D01*
G75*
G02*
X137975000Y-111400000I0J-250000D01*
G01*
X137975000Y-112600000D01*
G75*
G02*
X137725000Y-112850000I-250000J0D01*
G01*
G37*
X137000000Y-109500000D03*
X137000000Y-107000000D03*
X137000000Y-104500000D03*
X137000000Y-102000000D03*
X137000000Y-99500000D03*
%TD*%
D13*
%TO.C,R1*%
X171196000Y-117856000D03*
D14*
X163576000Y-117856000D03*
%TD*%
%TO.C,R2*%
X163576000Y-120904000D03*
D13*
X171196000Y-120904000D03*
%TD*%
D14*
%TO.C,R3*%
X175768000Y-117856000D03*
D13*
X183388000Y-117856000D03*
%TD*%
D15*
%TO.C,H1*%
X93980000Y-118872000D03*
%TD*%
%TO.C,H2*%
X125984000Y-118872000D03*
%TD*%
%TO.C,H3*%
X157988000Y-118872000D03*
%TD*%
%TO.C,H4*%
X189992000Y-118872000D03*
%TD*%
%TO.C,H5*%
X223012000Y-118872000D03*
%TD*%
%TO.C,J1*%
G36*
G01*
X85749999Y-110450000D02*
X87550001Y-110450000D01*
G75*
G02*
X87800000Y-110699999I0J-249999D01*
G01*
X87800000Y-112500001D01*
G75*
G02*
X87550001Y-112750000I-249999J0D01*
G01*
X85749999Y-112750000D01*
G75*
G02*
X85500000Y-112500001I0J249999D01*
G01*
X85500000Y-110699999D01*
G75*
G02*
X85749999Y-110450000I249999J0D01*
G01*
G37*
%TD*%
%TO.C,J2*%
G36*
G01*
X231099999Y-110550000D02*
X232900001Y-110550000D01*
G75*
G02*
X233150000Y-110799999I0J-249999D01*
G01*
X233150000Y-112600001D01*
G75*
G02*
X232900001Y-112850000I-249999J0D01*
G01*
X231099999Y-112850000D01*
G75*
G02*
X230850000Y-112600001I0J249999D01*
G01*
X230850000Y-110799999D01*
G75*
G02*
X231099999Y-110550000I249999J0D01*
G01*
G37*
%TD*%
%TO.C,J5*%
G36*
G01*
X85699999Y-119210000D02*
X87500001Y-119210000D01*
G75*
G02*
X87750000Y-119459999I0J-249999D01*
G01*
X87750000Y-121260001D01*
G75*
G02*
X87500001Y-121510000I-249999J0D01*
G01*
X85699999Y-121510000D01*
G75*
G02*
X85450000Y-121260001I0J249999D01*
G01*
X85450000Y-119459999D01*
G75*
G02*
X85699999Y-119210000I249999J0D01*
G01*
G37*
%TD*%
%TO.C,J6*%
G36*
G01*
X231099999Y-119250000D02*
X232900001Y-119250000D01*
G75*
G02*
X233150000Y-119499999I0J-249999D01*
G01*
X233150000Y-121300001D01*
G75*
G02*
X232900001Y-121550000I-249999J0D01*
G01*
X231099999Y-121550000D01*
G75*
G02*
X230850000Y-121300001I0J249999D01*
G01*
X230850000Y-119499999D01*
G75*
G02*
X231099999Y-119250000I249999J0D01*
G01*
G37*
%TD*%
%TO.C,J8*%
G36*
G01*
X85749999Y-106050000D02*
X87550001Y-106050000D01*
G75*
G02*
X87800000Y-106299999I0J-249999D01*
G01*
X87800000Y-108100001D01*
G75*
G02*
X87550001Y-108350000I-249999J0D01*
G01*
X85749999Y-108350000D01*
G75*
G02*
X85500000Y-108100001I0J249999D01*
G01*
X85500000Y-106299999D01*
G75*
G02*
X85749999Y-106050000I249999J0D01*
G01*
G37*
%TD*%
%TO.C,J9*%
G36*
G01*
X231099999Y-106150000D02*
X232900001Y-106150000D01*
G75*
G02*
X233150000Y-106399999I0J-249999D01*
G01*
X233150000Y-108200001D01*
G75*
G02*
X232900001Y-108450000I-249999J0D01*
G01*
X231099999Y-108450000D01*
G75*
G02*
X230850000Y-108200001I0J249999D01*
G01*
X230850000Y-106399999D01*
G75*
G02*
X231099999Y-106150000I249999J0D01*
G01*
G37*
%TD*%
%TO.C,J11*%
G36*
G01*
X87500001Y-117150000D02*
X85699999Y-117150000D01*
G75*
G02*
X85450000Y-116900001I0J249999D01*
G01*
X85450000Y-115099999D01*
G75*
G02*
X85699999Y-114850000I249999J0D01*
G01*
X87500001Y-114850000D01*
G75*
G02*
X87750000Y-115099999I0J-249999D01*
G01*
X87750000Y-116900001D01*
G75*
G02*
X87500001Y-117150000I-249999J0D01*
G01*
G37*
%TD*%
%TO.C,J12*%
G36*
G01*
X231099999Y-114950000D02*
X232900001Y-114950000D01*
G75*
G02*
X233150000Y-115199999I0J-249999D01*
G01*
X233150000Y-117000001D01*
G75*
G02*
X232900001Y-117250000I-249999J0D01*
G01*
X231099999Y-117250000D01*
G75*
G02*
X230850000Y-117000001I0J249999D01*
G01*
X230850000Y-115199999D01*
G75*
G02*
X231099999Y-114950000I249999J0D01*
G01*
G37*
%TD*%
%TO.C,J15*%
G36*
G01*
X85749999Y-97350000D02*
X87550001Y-97350000D01*
G75*
G02*
X87800000Y-97599999I0J-249999D01*
G01*
X87800000Y-99400001D01*
G75*
G02*
X87550001Y-99650000I-249999J0D01*
G01*
X85749999Y-99650000D01*
G75*
G02*
X85500000Y-99400001I0J249999D01*
G01*
X85500000Y-97599999D01*
G75*
G02*
X85749999Y-97350000I249999J0D01*
G01*
G37*
%TD*%
%TO.C,J16*%
G36*
G01*
X231099999Y-97350000D02*
X232900001Y-97350000D01*
G75*
G02*
X233150000Y-97599999I0J-249999D01*
G01*
X233150000Y-99400001D01*
G75*
G02*
X232900001Y-99650000I-249999J0D01*
G01*
X231099999Y-99650000D01*
G75*
G02*
X230850000Y-99400001I0J249999D01*
G01*
X230850000Y-97599999D01*
G75*
G02*
X231099999Y-97350000I249999J0D01*
G01*
G37*
%TD*%
%TO.C,J24*%
G36*
G01*
X85749999Y-101650000D02*
X87550001Y-101650000D01*
G75*
G02*
X87800000Y-101899999I0J-249999D01*
G01*
X87800000Y-103700001D01*
G75*
G02*
X87550001Y-103950000I-249999J0D01*
G01*
X85749999Y-103950000D01*
G75*
G02*
X85500000Y-103700001I0J249999D01*
G01*
X85500000Y-101899999D01*
G75*
G02*
X85749999Y-101650000I249999J0D01*
G01*
G37*
%TD*%
%TO.C,J25*%
G36*
G01*
X231099999Y-101750000D02*
X232900001Y-101750000D01*
G75*
G02*
X233150000Y-101999999I0J-249999D01*
G01*
X233150000Y-103800001D01*
G75*
G02*
X232900001Y-104050000I-249999J0D01*
G01*
X231099999Y-104050000D01*
G75*
G02*
X230850000Y-103800001I0J249999D01*
G01*
X230850000Y-101999999D01*
G75*
G02*
X231099999Y-101750000I249999J0D01*
G01*
G37*
%TD*%
M02*
