%FSLAX45Y45*%
G04 Gerber Fmt 4.5, Leading zero omitted, Abs format (unit mm)*
G04 Created by KiCad (PCBNEW 5.1.9+dfsg1-1~bpo10+1) date 2022-05-16 17:10:35*
%MOMM*%
%LPD*%
G01*
G04 APERTURE LIST*
%TA.AperFunction,Profile*%
%ADD10C,0.050000*%
%TD*%
%ADD11C,0.200000*%
%ADD12C,0.300000*%
G04 APERTURE END LIST*
D10*
X23650000Y-9550000D02*
X8140000Y-9550000D01*
X23650000Y-12325000D02*
X23650000Y-9550000D01*
X8140000Y-12325000D02*
X23650000Y-12325000D01*
X8140000Y-9550000D02*
X8140000Y-12325000D01*
D11*
X9784400Y-9733600D02*
X9824400Y-9773600D01*
X9824400Y-9733600D02*
X9784400Y-9773600D01*
X9784400Y-10089200D02*
X9824400Y-10129200D01*
X9824400Y-10089200D02*
X9784400Y-10129200D01*
X9784400Y-11054400D02*
X9824400Y-11094400D01*
X9824400Y-11054400D02*
X9784400Y-11094400D01*
X9835200Y-10546400D02*
X9875200Y-10586400D01*
X9875200Y-10546400D02*
X9835200Y-10586400D01*
X9835200Y-11460800D02*
X9875200Y-11500800D01*
X9875200Y-11460800D02*
X9835200Y-11500800D01*
X9835200Y-11867200D02*
X9875200Y-11907200D01*
X9875200Y-11867200D02*
X9835200Y-11907200D01*
X9936800Y-10292400D02*
X9976800Y-10332400D01*
X9976800Y-10292400D02*
X9936800Y-10332400D01*
X9987600Y-9733600D02*
X10027600Y-9773600D01*
X10027600Y-9733600D02*
X9987600Y-9773600D01*
X9987600Y-10089200D02*
X10027600Y-10129200D01*
X10027600Y-10089200D02*
X9987600Y-10129200D01*
X9987600Y-10800400D02*
X10027600Y-10840400D01*
X10027600Y-10800400D02*
X9987600Y-10840400D01*
X9987600Y-12019600D02*
X10027600Y-12059600D01*
X10027600Y-12019600D02*
X9987600Y-12059600D01*
X10902000Y-9733600D02*
X10942000Y-9773600D01*
X10942000Y-9733600D02*
X10902000Y-9773600D01*
X10902000Y-10089200D02*
X10942000Y-10129200D01*
X10942000Y-10089200D02*
X10902000Y-10129200D01*
X10902000Y-10800400D02*
X10942000Y-10840400D01*
X10942000Y-10800400D02*
X10902000Y-10840400D01*
X10952800Y-11562400D02*
X10992800Y-11602400D01*
X10992800Y-11562400D02*
X10952800Y-11602400D01*
X11003600Y-11054400D02*
X11043600Y-11094400D01*
X11043600Y-11054400D02*
X11003600Y-11094400D01*
X11054400Y-9784400D02*
X11094400Y-9824400D01*
X11094400Y-9784400D02*
X11054400Y-9824400D01*
X11054400Y-10292400D02*
X11094400Y-10332400D01*
X11094400Y-10292400D02*
X11054400Y-10332400D01*
X11054400Y-10546400D02*
X11094400Y-10586400D01*
X11094400Y-10546400D02*
X11054400Y-10586400D01*
X11054400Y-12019600D02*
X11094400Y-12059600D01*
X11094400Y-12019600D02*
X11054400Y-12059600D01*
X11765600Y-12019600D02*
X11805600Y-12059600D01*
X11805600Y-12019600D02*
X11765600Y-12059600D01*
X11867200Y-11613200D02*
X11907200Y-11653200D01*
X11907200Y-11613200D02*
X11867200Y-11653200D01*
X11918000Y-9784400D02*
X11958000Y-9824400D01*
X11958000Y-9784400D02*
X11918000Y-9824400D01*
X11968800Y-12019600D02*
X12008800Y-12059600D01*
X12008800Y-12019600D02*
X11968800Y-12059600D01*
X12019600Y-10292400D02*
X12059600Y-10332400D01*
X12059600Y-10292400D02*
X12019600Y-10332400D01*
X12070400Y-10546400D02*
X12110400Y-10586400D01*
X12110400Y-10546400D02*
X12070400Y-10586400D01*
X12070400Y-11816400D02*
X12110400Y-11856400D01*
X12110400Y-11816400D02*
X12070400Y-11856400D01*
X12172000Y-9733600D02*
X12212000Y-9773600D01*
X12212000Y-9733600D02*
X12172000Y-9773600D01*
X12172000Y-10140000D02*
X12212000Y-10180000D01*
X12212000Y-10140000D02*
X12172000Y-10180000D01*
X12172000Y-11359200D02*
X12212000Y-11399200D01*
X12212000Y-11359200D02*
X12172000Y-11399200D01*
X12222800Y-10800400D02*
X12262800Y-10840400D01*
X12262800Y-10800400D02*
X12222800Y-10840400D01*
X13086400Y-10292400D02*
X13126400Y-10332400D01*
X13126400Y-10292400D02*
X13086400Y-10332400D01*
X13086400Y-10800400D02*
X13126400Y-10840400D01*
X13126400Y-10800400D02*
X13086400Y-10840400D01*
X13086400Y-11816400D02*
X13126400Y-11856400D01*
X13126400Y-11816400D02*
X13086400Y-11856400D01*
X13137200Y-9733600D02*
X13177200Y-9773600D01*
X13177200Y-9733600D02*
X13137200Y-9773600D01*
X13137200Y-10089200D02*
X13177200Y-10129200D01*
X13177200Y-10089200D02*
X13137200Y-10129200D01*
X13137200Y-11460800D02*
X13177200Y-11500800D01*
X13177200Y-11460800D02*
X13137200Y-11500800D01*
X13188000Y-12121200D02*
X13228000Y-12161200D01*
X13228000Y-12121200D02*
X13188000Y-12161200D01*
X13238800Y-10546400D02*
X13278800Y-10586400D01*
X13278800Y-10546400D02*
X13238800Y-10586400D01*
X13238800Y-11054400D02*
X13278800Y-11094400D01*
X13278800Y-11054400D02*
X13238800Y-11094400D01*
X13289600Y-9682800D02*
X13329600Y-9722800D01*
X13329600Y-9682800D02*
X13289600Y-9722800D01*
X13289600Y-10241600D02*
X13329600Y-10281600D01*
X13329600Y-10241600D02*
X13289600Y-10281600D01*
X13848400Y-11918000D02*
X13888400Y-11958000D01*
X13888400Y-11918000D02*
X13848400Y-11958000D01*
X13848400Y-12172000D02*
X13888400Y-12212000D01*
X13888400Y-12172000D02*
X13848400Y-12212000D01*
X14204000Y-9682800D02*
X14244000Y-9722800D01*
X14244000Y-9682800D02*
X14204000Y-9722800D01*
X14204000Y-10546400D02*
X14244000Y-10586400D01*
X14244000Y-10546400D02*
X14204000Y-10586400D01*
X14204000Y-11054400D02*
X14244000Y-11094400D01*
X14244000Y-11054400D02*
X14204000Y-11094400D01*
X14254800Y-9784400D02*
X14294800Y-9824400D01*
X14294800Y-9784400D02*
X14254800Y-9824400D01*
X14254800Y-10089200D02*
X14294800Y-10129200D01*
X14294800Y-10089200D02*
X14254800Y-10129200D01*
X14305600Y-11308400D02*
X14345600Y-11348400D01*
X14345600Y-11308400D02*
X14305600Y-11348400D01*
X14356400Y-10241600D02*
X14396400Y-10281600D01*
X14396400Y-10241600D02*
X14356400Y-10281600D01*
X14407200Y-10800400D02*
X14447200Y-10840400D01*
X14447200Y-10800400D02*
X14407200Y-10840400D01*
X14458000Y-12121200D02*
X14498000Y-12161200D01*
X14498000Y-12121200D02*
X14458000Y-12161200D01*
X15169200Y-11968800D02*
X15209200Y-12008800D01*
X15209200Y-11968800D02*
X15169200Y-12008800D01*
X15270800Y-10038400D02*
X15310800Y-10078400D01*
X15310800Y-10038400D02*
X15270800Y-10078400D01*
X15270800Y-10800400D02*
X15310800Y-10840400D01*
X15310800Y-10800400D02*
X15270800Y-10840400D01*
X15270800Y-11664000D02*
X15310800Y-11704000D01*
X15310800Y-11664000D02*
X15270800Y-11704000D01*
X15321600Y-9784400D02*
X15361600Y-9824400D01*
X15361600Y-9784400D02*
X15321600Y-9824400D01*
X15321600Y-10241600D02*
X15361600Y-10281600D01*
X15361600Y-10241600D02*
X15321600Y-10281600D01*
X15372400Y-12121200D02*
X15412400Y-12161200D01*
X15412400Y-12121200D02*
X15372400Y-12161200D01*
X15474000Y-9632000D02*
X15514000Y-9672000D01*
X15514000Y-9632000D02*
X15474000Y-9672000D01*
X15474000Y-10140000D02*
X15514000Y-10180000D01*
X15514000Y-10140000D02*
X15474000Y-10180000D01*
X15474000Y-10546400D02*
X15514000Y-10586400D01*
X15514000Y-10546400D02*
X15474000Y-10586400D01*
X15474000Y-11308400D02*
X15514000Y-11348400D01*
X15514000Y-11308400D02*
X15474000Y-11348400D01*
X16337600Y-9733600D02*
X16377600Y-9773600D01*
X16377600Y-9733600D02*
X16337600Y-9773600D01*
X16337600Y-10089200D02*
X16377600Y-10129200D01*
X16377600Y-10089200D02*
X16337600Y-10129200D01*
X16439200Y-10292400D02*
X16479200Y-10332400D01*
X16479200Y-10292400D02*
X16439200Y-10332400D01*
X16439200Y-11410000D02*
X16479200Y-11450000D01*
X16479200Y-11410000D02*
X16439200Y-11450000D01*
X16540800Y-10800400D02*
X16580800Y-10840400D01*
X16580800Y-10800400D02*
X16540800Y-10840400D01*
X16591600Y-11511600D02*
X16631600Y-11551600D01*
X16631600Y-11511600D02*
X16591600Y-11551600D01*
X16642400Y-10190800D02*
X16682400Y-10230800D01*
X16682400Y-10190800D02*
X16642400Y-10230800D01*
X16693200Y-9682800D02*
X16733200Y-9722800D01*
X16733200Y-9682800D02*
X16693200Y-9722800D01*
X16744000Y-11816400D02*
X16784000Y-11856400D01*
X16784000Y-11816400D02*
X16744000Y-11856400D01*
X16744000Y-12070400D02*
X16784000Y-12110400D01*
X16784000Y-12070400D02*
X16744000Y-12110400D01*
X17404400Y-12019600D02*
X17444400Y-12059600D01*
X17444400Y-12019600D02*
X17404400Y-12059600D01*
X17404400Y-12172000D02*
X17444400Y-12212000D01*
X17444400Y-12172000D02*
X17404400Y-12212000D01*
X17455200Y-10800400D02*
X17495200Y-10840400D01*
X17495200Y-10800400D02*
X17455200Y-10840400D01*
X17556800Y-9784400D02*
X17596800Y-9824400D01*
X17596800Y-9784400D02*
X17556800Y-9824400D01*
X17556800Y-10089200D02*
X17596800Y-10129200D01*
X17596800Y-10089200D02*
X17556800Y-10129200D01*
X17556800Y-11308400D02*
X17596800Y-11348400D01*
X17596800Y-11308400D02*
X17556800Y-11348400D01*
X17607600Y-10190800D02*
X17647600Y-10230800D01*
X17647600Y-10190800D02*
X17607600Y-10230800D01*
X17607600Y-10546400D02*
X17647600Y-10586400D01*
X17647600Y-10546400D02*
X17607600Y-10586400D01*
X17658400Y-11054400D02*
X17698400Y-11094400D01*
X17698400Y-11054400D02*
X17658400Y-11094400D01*
X17658400Y-11511600D02*
X17698400Y-11551600D01*
X17698400Y-11511600D02*
X17658400Y-11551600D01*
X17709200Y-10800400D02*
X17749200Y-10840400D01*
X17749200Y-10800400D02*
X17709200Y-10840400D01*
X17709200Y-12070400D02*
X17749200Y-12110400D01*
X17749200Y-12070400D02*
X17709200Y-12110400D01*
X17760000Y-10292400D02*
X17800000Y-10332400D01*
X17800000Y-10292400D02*
X17760000Y-10332400D01*
X17912400Y-11765600D02*
X17952400Y-11805600D01*
X17952400Y-11765600D02*
X17912400Y-11805600D01*
X18166400Y-11511600D02*
X18206400Y-11551600D01*
X18206400Y-11511600D02*
X18166400Y-11551600D01*
X18217200Y-12019600D02*
X18257200Y-12059600D01*
X18257200Y-12019600D02*
X18217200Y-12059600D01*
X18471200Y-11968800D02*
X18511200Y-12008800D01*
X18511200Y-11968800D02*
X18471200Y-12008800D01*
X18572800Y-10546400D02*
X18612800Y-10586400D01*
X18612800Y-10546400D02*
X18572800Y-10586400D01*
X18623600Y-9682800D02*
X18663600Y-9722800D01*
X18663600Y-9682800D02*
X18623600Y-9722800D01*
X18623600Y-10089200D02*
X18663600Y-10129200D01*
X18663600Y-10089200D02*
X18623600Y-10129200D01*
X18623600Y-11054400D02*
X18663600Y-11094400D01*
X18663600Y-11054400D02*
X18623600Y-11094400D01*
X18674400Y-11359200D02*
X18714400Y-11399200D01*
X18714400Y-11359200D02*
X18674400Y-11399200D01*
X18674400Y-11511600D02*
X18714400Y-11551600D01*
X18714400Y-11511600D02*
X18674400Y-11551600D01*
X18776000Y-9784400D02*
X18816000Y-9824400D01*
X18816000Y-9784400D02*
X18776000Y-9824400D01*
X18776000Y-10241600D02*
X18816000Y-10281600D01*
X18816000Y-10241600D02*
X18776000Y-10281600D01*
X18826800Y-10800400D02*
X18866800Y-10840400D01*
X18866800Y-10800400D02*
X18826800Y-10840400D01*
X19487200Y-10292400D02*
X19527200Y-10332400D01*
X19527200Y-10292400D02*
X19487200Y-10332400D01*
X19487200Y-12019600D02*
X19527200Y-12059600D01*
X19527200Y-12019600D02*
X19487200Y-12059600D01*
X19639600Y-11460800D02*
X19679600Y-11500800D01*
X19679600Y-11460800D02*
X19639600Y-11500800D01*
X19690400Y-10546400D02*
X19730400Y-10586400D01*
X19730400Y-10546400D02*
X19690400Y-10586400D01*
X19741200Y-9784400D02*
X19781200Y-9824400D01*
X19781200Y-9784400D02*
X19741200Y-9824400D01*
X19741200Y-10089200D02*
X19781200Y-10129200D01*
X19781200Y-10089200D02*
X19741200Y-10129200D01*
X19792000Y-11054400D02*
X19832000Y-11094400D01*
X19832000Y-11054400D02*
X19792000Y-11094400D01*
X19893600Y-9682800D02*
X19933600Y-9722800D01*
X19933600Y-9682800D02*
X19893600Y-9722800D01*
X19944400Y-10190800D02*
X19984400Y-10230800D01*
X19984400Y-10190800D02*
X19944400Y-10230800D01*
X19944400Y-10800400D02*
X19984400Y-10840400D01*
X19984400Y-10800400D02*
X19944400Y-10840400D01*
X19995200Y-11460800D02*
X20035200Y-11500800D01*
X20035200Y-11460800D02*
X19995200Y-11500800D01*
X19995200Y-12070400D02*
X20035200Y-12110400D01*
X20035200Y-12070400D02*
X19995200Y-12110400D01*
X20350800Y-11867200D02*
X20390800Y-11907200D01*
X20390800Y-11867200D02*
X20350800Y-11907200D01*
X20757200Y-9682800D02*
X20797200Y-9722800D01*
X20797200Y-9682800D02*
X20757200Y-9722800D01*
X20757200Y-10038400D02*
X20797200Y-10078400D01*
X20797200Y-10038400D02*
X20757200Y-10078400D01*
X20757200Y-11054400D02*
X20797200Y-11094400D01*
X20797200Y-11054400D02*
X20757200Y-11094400D01*
X20757200Y-11664000D02*
X20797200Y-11704000D01*
X20797200Y-11664000D02*
X20757200Y-11704000D01*
X20757200Y-11968800D02*
X20797200Y-12008800D01*
X20797200Y-11968800D02*
X20757200Y-12008800D01*
X20808000Y-11359200D02*
X20848000Y-11399200D01*
X20848000Y-11359200D02*
X20808000Y-11399200D01*
X20909600Y-10241600D02*
X20949600Y-10281600D01*
X20949600Y-10241600D02*
X20909600Y-10281600D01*
X20909600Y-10546400D02*
X20949600Y-10586400D01*
X20949600Y-10546400D02*
X20909600Y-10586400D01*
X20909600Y-10800400D02*
X20949600Y-10840400D01*
X20949600Y-10800400D02*
X20909600Y-10840400D01*
X20960400Y-9784400D02*
X21000400Y-9824400D01*
X21000400Y-9784400D02*
X20960400Y-9824400D01*
X21112800Y-10292400D02*
X21152800Y-10332400D01*
X21152800Y-10292400D02*
X21112800Y-10332400D01*
X21316000Y-11562400D02*
X21356000Y-11602400D01*
X21356000Y-11562400D02*
X21316000Y-11602400D01*
X21570000Y-11968800D02*
X21610000Y-12008800D01*
X21610000Y-11968800D02*
X21570000Y-12008800D01*
X21620800Y-10140000D02*
X21660800Y-10180000D01*
X21660800Y-10140000D02*
X21620800Y-10180000D01*
X21824000Y-11664000D02*
X21864000Y-11704000D01*
X21864000Y-11664000D02*
X21824000Y-11704000D01*
X21874800Y-10140000D02*
X21914800Y-10180000D01*
X21914800Y-10140000D02*
X21874800Y-10180000D01*
X21874800Y-10800400D02*
X21914800Y-10840400D01*
X21914800Y-10800400D02*
X21874800Y-10840400D01*
X21874800Y-11410000D02*
X21914800Y-11450000D01*
X21914800Y-11410000D02*
X21874800Y-11450000D01*
X21976400Y-10292400D02*
X22016400Y-10332400D01*
X22016400Y-10292400D02*
X21976400Y-10332400D01*
X22014500Y-9695500D02*
X22054500Y-9735500D01*
X22054500Y-9695500D02*
X22014500Y-9735500D01*
X22078000Y-10546400D02*
X22118000Y-10586400D01*
X22118000Y-10546400D02*
X22078000Y-10586400D01*
X22078000Y-11054400D02*
X22118000Y-11094400D01*
X22118000Y-11054400D02*
X22078000Y-11094400D01*
X22128800Y-10140000D02*
X22168800Y-10180000D01*
X22168800Y-10140000D02*
X22128800Y-10180000D01*
X22128800Y-11359200D02*
X22168800Y-11399200D01*
X22168800Y-11359200D02*
X22128800Y-11399200D01*
X22535200Y-9733600D02*
X22575200Y-9773600D01*
X22575200Y-9733600D02*
X22535200Y-9773600D01*
X22687600Y-11511600D02*
X22727600Y-11551600D01*
X22727600Y-11511600D02*
X22687600Y-11551600D01*
X22687600Y-11816400D02*
X22727600Y-11856400D01*
X22727600Y-11816400D02*
X22687600Y-11856400D01*
X22687600Y-12172000D02*
X22727600Y-12212000D01*
X22727600Y-12172000D02*
X22687600Y-12212000D01*
X22840000Y-10190800D02*
X22880000Y-10230800D01*
X22880000Y-10190800D02*
X22840000Y-10230800D01*
X22890800Y-10444800D02*
X22930800Y-10484800D01*
X22930800Y-10444800D02*
X22890800Y-10484800D01*
X22890800Y-12019600D02*
X22930800Y-12059600D01*
X22930800Y-12019600D02*
X22890800Y-12059600D01*
X23398800Y-10698800D02*
X23438800Y-10738800D01*
X23438800Y-10698800D02*
X23398800Y-10738800D01*
X23449600Y-9987600D02*
X23489600Y-10027600D01*
X23489600Y-9987600D02*
X23449600Y-10027600D01*
X23449600Y-11664000D02*
X23489600Y-11704000D01*
X23489600Y-11664000D02*
X23449600Y-11704000D01*
X23500400Y-10343200D02*
X23540400Y-10383200D01*
X23540400Y-10343200D02*
X23500400Y-10383200D01*
X23500400Y-11105200D02*
X23540400Y-11145200D01*
X23540400Y-11105200D02*
X23500400Y-11145200D01*
X23500400Y-11359200D02*
X23540400Y-11399200D01*
X23540400Y-11359200D02*
X23500400Y-11399200D01*
X23500400Y-11867200D02*
X23540400Y-11907200D01*
X23540400Y-11867200D02*
X23500400Y-11907200D01*
X16397600Y-11785600D02*
G75*
G03*
X16397600Y-11785600I-40000J0D01*
G01*
X16397600Y-12090400D02*
G75*
G03*
X16397600Y-12090400I-40000J0D01*
G01*
X17159600Y-11785600D02*
G75*
G03*
X17159600Y-11785600I-40000J0D01*
G01*
X17159600Y-12090400D02*
G75*
G03*
X17159600Y-12090400I-40000J0D01*
G01*
X17616800Y-11785600D02*
G75*
G03*
X17616800Y-11785600I-40000J0D01*
G01*
X18378800Y-11785600D02*
G75*
G03*
X18378800Y-11785600I-40000J0D01*
G01*
X13423400Y-11779200D02*
X13423400Y-11869200D01*
X13378400Y-11824200D02*
X13468400Y-11824200D01*
X13677400Y-11779200D02*
X13677400Y-11869200D01*
X13632400Y-11824200D02*
X13722400Y-11824200D01*
X14069400Y-11779200D02*
X14069400Y-11869200D01*
X14024400Y-11824200D02*
X14114400Y-11824200D01*
X14323400Y-11779200D02*
X14323400Y-11869200D01*
X14278400Y-11824200D02*
X14368400Y-11824200D01*
X14694400Y-11779200D02*
X14694400Y-11869200D01*
X14649400Y-11824200D02*
X14739400Y-11824200D01*
X14948400Y-11779200D02*
X14948400Y-11869200D01*
X14903400Y-11824200D02*
X14993400Y-11824200D01*
X9333588Y-9983588D02*
X9333588Y-9916412D01*
X9266412Y-9916412D01*
X9266412Y-9983588D01*
X9333588Y-9983588D01*
X9333588Y-10233588D02*
X9333588Y-10166412D01*
X9266412Y-10166412D01*
X9266412Y-10233588D01*
X9333588Y-10233588D01*
X9333588Y-10483588D02*
X9333588Y-10416412D01*
X9266412Y-10416412D01*
X9266412Y-10483588D01*
X9333588Y-10483588D01*
X9333588Y-10733588D02*
X9333588Y-10666412D01*
X9266412Y-10666412D01*
X9266412Y-10733588D01*
X9333588Y-10733588D01*
X9333588Y-10983588D02*
X9333588Y-10916412D01*
X9266412Y-10916412D01*
X9266412Y-10983588D01*
X9333588Y-10983588D01*
X9333588Y-11233588D02*
X9333588Y-11166412D01*
X9266412Y-11166412D01*
X9266412Y-11233588D01*
X9333588Y-11233588D01*
X10433588Y-9983588D02*
X10433588Y-9916412D01*
X10366412Y-9916412D01*
X10366412Y-9983588D01*
X10433588Y-9983588D01*
X10433588Y-10233588D02*
X10433588Y-10166412D01*
X10366412Y-10166412D01*
X10366412Y-10233588D01*
X10433588Y-10233588D01*
X10433588Y-10483588D02*
X10433588Y-10416412D01*
X10366412Y-10416412D01*
X10366412Y-10483588D01*
X10433588Y-10483588D01*
X10433588Y-10733588D02*
X10433588Y-10666412D01*
X10366412Y-10666412D01*
X10366412Y-10733588D01*
X10433588Y-10733588D01*
X10433588Y-10983588D02*
X10433588Y-10916412D01*
X10366412Y-10916412D01*
X10366412Y-10983588D01*
X10433588Y-10983588D01*
X10433588Y-11233588D02*
X10433588Y-11166412D01*
X10366412Y-11166412D01*
X10366412Y-11233588D01*
X10433588Y-11233588D01*
X11533588Y-9983588D02*
X11533588Y-9916412D01*
X11466412Y-9916412D01*
X11466412Y-9983588D01*
X11533588Y-9983588D01*
X11533588Y-10233588D02*
X11533588Y-10166412D01*
X11466412Y-10166412D01*
X11466412Y-10233588D01*
X11533588Y-10233588D01*
X11533588Y-10483588D02*
X11533588Y-10416412D01*
X11466412Y-10416412D01*
X11466412Y-10483588D01*
X11533588Y-10483588D01*
X11533588Y-10733588D02*
X11533588Y-10666412D01*
X11466412Y-10666412D01*
X11466412Y-10733588D01*
X11533588Y-10733588D01*
X11533588Y-10983588D02*
X11533588Y-10916412D01*
X11466412Y-10916412D01*
X11466412Y-10983588D01*
X11533588Y-10983588D01*
X11533588Y-11233588D02*
X11533588Y-11166412D01*
X11466412Y-11166412D01*
X11466412Y-11233588D01*
X11533588Y-11233588D01*
X12633588Y-9983588D02*
X12633588Y-9916412D01*
X12566412Y-9916412D01*
X12566412Y-9983588D01*
X12633588Y-9983588D01*
X12633588Y-10233588D02*
X12633588Y-10166412D01*
X12566412Y-10166412D01*
X12566412Y-10233588D01*
X12633588Y-10233588D01*
X12633588Y-10483588D02*
X12633588Y-10416412D01*
X12566412Y-10416412D01*
X12566412Y-10483588D01*
X12633588Y-10483588D01*
X12633588Y-10733588D02*
X12633588Y-10666412D01*
X12566412Y-10666412D01*
X12566412Y-10733588D01*
X12633588Y-10733588D01*
X12633588Y-10983588D02*
X12633588Y-10916412D01*
X12566412Y-10916412D01*
X12566412Y-10983588D01*
X12633588Y-10983588D01*
X12633588Y-11233588D02*
X12633588Y-11166412D01*
X12566412Y-11166412D01*
X12566412Y-11233588D01*
X12633588Y-11233588D01*
X13733588Y-9983588D02*
X13733588Y-9916412D01*
X13666412Y-9916412D01*
X13666412Y-9983588D01*
X13733588Y-9983588D01*
X13733588Y-10233588D02*
X13733588Y-10166412D01*
X13666412Y-10166412D01*
X13666412Y-10233588D01*
X13733588Y-10233588D01*
X13733588Y-10483588D02*
X13733588Y-10416412D01*
X13666412Y-10416412D01*
X13666412Y-10483588D01*
X13733588Y-10483588D01*
X13733588Y-10733588D02*
X13733588Y-10666412D01*
X13666412Y-10666412D01*
X13666412Y-10733588D01*
X13733588Y-10733588D01*
X13733588Y-10983588D02*
X13733588Y-10916412D01*
X13666412Y-10916412D01*
X13666412Y-10983588D01*
X13733588Y-10983588D01*
X13733588Y-11233588D02*
X13733588Y-11166412D01*
X13666412Y-11166412D01*
X13666412Y-11233588D01*
X13733588Y-11233588D01*
X14833588Y-9983588D02*
X14833588Y-9916412D01*
X14766412Y-9916412D01*
X14766412Y-9983588D01*
X14833588Y-9983588D01*
X14833588Y-10233588D02*
X14833588Y-10166412D01*
X14766412Y-10166412D01*
X14766412Y-10233588D01*
X14833588Y-10233588D01*
X14833588Y-10483588D02*
X14833588Y-10416412D01*
X14766412Y-10416412D01*
X14766412Y-10483588D01*
X14833588Y-10483588D01*
X14833588Y-10733588D02*
X14833588Y-10666412D01*
X14766412Y-10666412D01*
X14766412Y-10733588D01*
X14833588Y-10733588D01*
X14833588Y-10983588D02*
X14833588Y-10916412D01*
X14766412Y-10916412D01*
X14766412Y-10983588D01*
X14833588Y-10983588D01*
X14833588Y-11233588D02*
X14833588Y-11166412D01*
X14766412Y-11166412D01*
X14766412Y-11233588D01*
X14833588Y-11233588D01*
X15933588Y-9983588D02*
X15933588Y-9916412D01*
X15866412Y-9916412D01*
X15866412Y-9983588D01*
X15933588Y-9983588D01*
X15933588Y-10233588D02*
X15933588Y-10166412D01*
X15866412Y-10166412D01*
X15866412Y-10233588D01*
X15933588Y-10233588D01*
X15933588Y-10483588D02*
X15933588Y-10416412D01*
X15866412Y-10416412D01*
X15866412Y-10483588D01*
X15933588Y-10483588D01*
X15933588Y-10733588D02*
X15933588Y-10666412D01*
X15866412Y-10666412D01*
X15866412Y-10733588D01*
X15933588Y-10733588D01*
X15933588Y-10983588D02*
X15933588Y-10916412D01*
X15866412Y-10916412D01*
X15866412Y-10983588D01*
X15933588Y-10983588D01*
X15933588Y-11233588D02*
X15933588Y-11166412D01*
X15866412Y-11166412D01*
X15866412Y-11233588D01*
X15933588Y-11233588D01*
X17033588Y-9983588D02*
X17033588Y-9916412D01*
X16966412Y-9916412D01*
X16966412Y-9983588D01*
X17033588Y-9983588D01*
X17033588Y-10233588D02*
X17033588Y-10166412D01*
X16966412Y-10166412D01*
X16966412Y-10233588D01*
X17033588Y-10233588D01*
X17033588Y-10483588D02*
X17033588Y-10416412D01*
X16966412Y-10416412D01*
X16966412Y-10483588D01*
X17033588Y-10483588D01*
X17033588Y-10733588D02*
X17033588Y-10666412D01*
X16966412Y-10666412D01*
X16966412Y-10733588D01*
X17033588Y-10733588D01*
X17033588Y-10983588D02*
X17033588Y-10916412D01*
X16966412Y-10916412D01*
X16966412Y-10983588D01*
X17033588Y-10983588D01*
X17033588Y-11233588D02*
X17033588Y-11166412D01*
X16966412Y-11166412D01*
X16966412Y-11233588D01*
X17033588Y-11233588D01*
X18133588Y-9983588D02*
X18133588Y-9916412D01*
X18066412Y-9916412D01*
X18066412Y-9983588D01*
X18133588Y-9983588D01*
X18133588Y-10233588D02*
X18133588Y-10166412D01*
X18066412Y-10166412D01*
X18066412Y-10233588D01*
X18133588Y-10233588D01*
X18133588Y-10483588D02*
X18133588Y-10416412D01*
X18066412Y-10416412D01*
X18066412Y-10483588D01*
X18133588Y-10483588D01*
X18133588Y-10733588D02*
X18133588Y-10666412D01*
X18066412Y-10666412D01*
X18066412Y-10733588D01*
X18133588Y-10733588D01*
X18133588Y-10983588D02*
X18133588Y-10916412D01*
X18066412Y-10916412D01*
X18066412Y-10983588D01*
X18133588Y-10983588D01*
X18133588Y-11233588D02*
X18133588Y-11166412D01*
X18066412Y-11166412D01*
X18066412Y-11233588D01*
X18133588Y-11233588D01*
X19233588Y-9983588D02*
X19233588Y-9916412D01*
X19166412Y-9916412D01*
X19166412Y-9983588D01*
X19233588Y-9983588D01*
X19233588Y-10233588D02*
X19233588Y-10166412D01*
X19166412Y-10166412D01*
X19166412Y-10233588D01*
X19233588Y-10233588D01*
X19233588Y-10483588D02*
X19233588Y-10416412D01*
X19166412Y-10416412D01*
X19166412Y-10483588D01*
X19233588Y-10483588D01*
X19233588Y-10733588D02*
X19233588Y-10666412D01*
X19166412Y-10666412D01*
X19166412Y-10733588D01*
X19233588Y-10733588D01*
X19233588Y-10983588D02*
X19233588Y-10916412D01*
X19166412Y-10916412D01*
X19166412Y-10983588D01*
X19233588Y-10983588D01*
X19233588Y-11233588D02*
X19233588Y-11166412D01*
X19166412Y-11166412D01*
X19166412Y-11233588D01*
X19233588Y-11233588D01*
X20333588Y-9983588D02*
X20333588Y-9916412D01*
X20266412Y-9916412D01*
X20266412Y-9983588D01*
X20333588Y-9983588D01*
X20333588Y-10233588D02*
X20333588Y-10166412D01*
X20266412Y-10166412D01*
X20266412Y-10233588D01*
X20333588Y-10233588D01*
X20333588Y-10483588D02*
X20333588Y-10416412D01*
X20266412Y-10416412D01*
X20266412Y-10483588D01*
X20333588Y-10483588D01*
X20333588Y-10733588D02*
X20333588Y-10666412D01*
X20266412Y-10666412D01*
X20266412Y-10733588D01*
X20333588Y-10733588D01*
X20333588Y-10983588D02*
X20333588Y-10916412D01*
X20266412Y-10916412D01*
X20266412Y-10983588D01*
X20333588Y-10983588D01*
X20333588Y-11233588D02*
X20333588Y-11166412D01*
X20266412Y-11166412D01*
X20266412Y-11233588D01*
X20333588Y-11233588D01*
X21433588Y-9983588D02*
X21433588Y-9916412D01*
X21366412Y-9916412D01*
X21366412Y-9983588D01*
X21433588Y-9983588D01*
X21433588Y-10233588D02*
X21433588Y-10166412D01*
X21366412Y-10166412D01*
X21366412Y-10233588D01*
X21433588Y-10233588D01*
X21433588Y-10483588D02*
X21433588Y-10416412D01*
X21366412Y-10416412D01*
X21366412Y-10483588D01*
X21433588Y-10483588D01*
X21433588Y-10733588D02*
X21433588Y-10666412D01*
X21366412Y-10666412D01*
X21366412Y-10733588D01*
X21433588Y-10733588D01*
X21433588Y-10983588D02*
X21433588Y-10916412D01*
X21366412Y-10916412D01*
X21366412Y-10983588D01*
X21433588Y-10983588D01*
X21433588Y-11233588D02*
X21433588Y-11166412D01*
X21366412Y-11166412D01*
X21366412Y-11233588D01*
X21433588Y-11233588D01*
X22533588Y-9983588D02*
X22533588Y-9916412D01*
X22466412Y-9916412D01*
X22466412Y-9983588D01*
X22533588Y-9983588D01*
X22533588Y-10233588D02*
X22533588Y-10166412D01*
X22466412Y-10166412D01*
X22466412Y-10233588D01*
X22533588Y-10233588D01*
X22533588Y-10483588D02*
X22533588Y-10416412D01*
X22466412Y-10416412D01*
X22466412Y-10483588D01*
X22533588Y-10483588D01*
X22533588Y-10733588D02*
X22533588Y-10666412D01*
X22466412Y-10666412D01*
X22466412Y-10733588D01*
X22533588Y-10733588D01*
X22533588Y-10983588D02*
X22533588Y-10916412D01*
X22466412Y-10916412D01*
X22466412Y-10983588D01*
X22533588Y-10983588D01*
X22533588Y-11233588D02*
X22533588Y-11166412D01*
X22466412Y-11166412D01*
X22466412Y-11233588D01*
X22533588Y-11233588D01*
X8660000Y-11655000D02*
X8715000Y-11600000D01*
X8660000Y-11545000D01*
X8605000Y-11600000D01*
X8660000Y-11655000D01*
X8660000Y-12091000D02*
X8715000Y-12036000D01*
X8660000Y-11981000D01*
X8605000Y-12036000D01*
X8660000Y-12091000D01*
X8665000Y-9905000D02*
X8720000Y-9850000D01*
X8665000Y-9795000D01*
X8610000Y-9850000D01*
X8665000Y-9905000D01*
X8665000Y-10335000D02*
X8720000Y-10280000D01*
X8665000Y-10225000D01*
X8610000Y-10280000D01*
X8665000Y-10335000D01*
X8665000Y-10775000D02*
X8720000Y-10720000D01*
X8665000Y-10665000D01*
X8610000Y-10720000D01*
X8665000Y-10775000D01*
X8665000Y-11215000D02*
X8720000Y-11160000D01*
X8665000Y-11105000D01*
X8610000Y-11160000D01*
X8665000Y-11215000D01*
X23200000Y-9905000D02*
X23255000Y-9850000D01*
X23200000Y-9795000D01*
X23145000Y-9850000D01*
X23200000Y-9905000D01*
X23200000Y-10345000D02*
X23255000Y-10290000D01*
X23200000Y-10235000D01*
X23145000Y-10290000D01*
X23200000Y-10345000D01*
X23200000Y-10785000D02*
X23255000Y-10730000D01*
X23200000Y-10675000D01*
X23145000Y-10730000D01*
X23200000Y-10785000D01*
X23200000Y-11225000D02*
X23255000Y-11170000D01*
X23200000Y-11115000D01*
X23145000Y-11170000D01*
X23200000Y-11225000D01*
X23200000Y-11665000D02*
X23255000Y-11610000D01*
X23200000Y-11555000D01*
X23145000Y-11610000D01*
X23200000Y-11665000D01*
X23200000Y-12095000D02*
X23255000Y-12040000D01*
X23200000Y-11985000D01*
X23145000Y-12040000D01*
X23200000Y-12095000D01*
X9238000Y-11727200D02*
X9558000Y-12047200D01*
X9558000Y-11727200D02*
X9238000Y-12047200D01*
X9558000Y-11887200D02*
G75*
G03*
X9558000Y-11887200I-160000J0D01*
G01*
X12438400Y-11727200D02*
X12758400Y-12047200D01*
X12758400Y-11727200D02*
X12438400Y-12047200D01*
X12758400Y-11887200D02*
G75*
G03*
X12758400Y-11887200I-160000J0D01*
G01*
X15638800Y-11727200D02*
X15958800Y-12047200D01*
X15958800Y-11727200D02*
X15638800Y-12047200D01*
X15958800Y-11887200D02*
G75*
G03*
X15958800Y-11887200I-160000J0D01*
G01*
X18839200Y-11727200D02*
X19159200Y-12047200D01*
X19159200Y-11727200D02*
X18839200Y-12047200D01*
X19159200Y-11887200D02*
G75*
G03*
X19159200Y-11887200I-160000J0D01*
G01*
X22141200Y-11727200D02*
X22461200Y-12047200D01*
X22461200Y-11727200D02*
X22141200Y-12047200D01*
X22461200Y-11887200D02*
G75*
G03*
X22461200Y-11887200I-160000J0D01*
G01*
D12*
X8423928Y-12793214D02*
X8423928Y-12493214D01*
X8495357Y-12493214D01*
X8538214Y-12507500D01*
X8566786Y-12536071D01*
X8581071Y-12564643D01*
X8595357Y-12621786D01*
X8595357Y-12664643D01*
X8581071Y-12721786D01*
X8566786Y-12750357D01*
X8538214Y-12778929D01*
X8495357Y-12793214D01*
X8423928Y-12793214D01*
X8723928Y-12793214D02*
X8723928Y-12593214D01*
X8723928Y-12650357D02*
X8738214Y-12621786D01*
X8752500Y-12607500D01*
X8781071Y-12593214D01*
X8809643Y-12593214D01*
X8909643Y-12793214D02*
X8909643Y-12593214D01*
X8909643Y-12493214D02*
X8895357Y-12507500D01*
X8909643Y-12521786D01*
X8923928Y-12507500D01*
X8909643Y-12493214D01*
X8909643Y-12521786D01*
X9095357Y-12793214D02*
X9066786Y-12778929D01*
X9052500Y-12750357D01*
X9052500Y-12493214D01*
X9252500Y-12793214D02*
X9223928Y-12778929D01*
X9209643Y-12750357D01*
X9209643Y-12493214D01*
X9595357Y-12793214D02*
X9595357Y-12493214D01*
X9695357Y-12707500D01*
X9795357Y-12493214D01*
X9795357Y-12793214D01*
X10066786Y-12793214D02*
X10066786Y-12636071D01*
X10052500Y-12607500D01*
X10023928Y-12593214D01*
X9966786Y-12593214D01*
X9938214Y-12607500D01*
X10066786Y-12778929D02*
X10038214Y-12793214D01*
X9966786Y-12793214D01*
X9938214Y-12778929D01*
X9923928Y-12750357D01*
X9923928Y-12721786D01*
X9938214Y-12693214D01*
X9966786Y-12678929D01*
X10038214Y-12678929D01*
X10066786Y-12664643D01*
X10209643Y-12593214D02*
X10209643Y-12893214D01*
X10209643Y-12607500D02*
X10238214Y-12593214D01*
X10295357Y-12593214D01*
X10323928Y-12607500D01*
X10338214Y-12621786D01*
X10352500Y-12650357D01*
X10352500Y-12736071D01*
X10338214Y-12764643D01*
X10323928Y-12778929D01*
X10295357Y-12793214D01*
X10238214Y-12793214D01*
X10209643Y-12778929D01*
X10481071Y-12764643D02*
X10495357Y-12778929D01*
X10481071Y-12793214D01*
X10466786Y-12778929D01*
X10481071Y-12764643D01*
X10481071Y-12793214D01*
X10481071Y-12607500D02*
X10495357Y-12621786D01*
X10481071Y-12636071D01*
X10466786Y-12621786D01*
X10481071Y-12607500D01*
X10481071Y-12636071D01*
X8097500Y-13267500D02*
X8137500Y-13307500D01*
X8137500Y-13267500D02*
X8097500Y-13307500D01*
X8481071Y-13123214D02*
X8509643Y-13123214D01*
X8538214Y-13137500D01*
X8552500Y-13151786D01*
X8566786Y-13180357D01*
X8581071Y-13237500D01*
X8581071Y-13308929D01*
X8566786Y-13366071D01*
X8552500Y-13394643D01*
X8538214Y-13408929D01*
X8509643Y-13423214D01*
X8481071Y-13423214D01*
X8452500Y-13408929D01*
X8438214Y-13394643D01*
X8423928Y-13366071D01*
X8409643Y-13308929D01*
X8409643Y-13237500D01*
X8423928Y-13180357D01*
X8438214Y-13151786D01*
X8452500Y-13137500D01*
X8481071Y-13123214D01*
X8709643Y-13394643D02*
X8723928Y-13408929D01*
X8709643Y-13423214D01*
X8695357Y-13408929D01*
X8709643Y-13394643D01*
X8709643Y-13423214D01*
X8981071Y-13223214D02*
X8981071Y-13423214D01*
X8909643Y-13108929D02*
X8838214Y-13323214D01*
X9023928Y-13323214D01*
X9195357Y-13123214D02*
X9223928Y-13123214D01*
X9252500Y-13137500D01*
X9266786Y-13151786D01*
X9281071Y-13180357D01*
X9295357Y-13237500D01*
X9295357Y-13308929D01*
X9281071Y-13366071D01*
X9266786Y-13394643D01*
X9252500Y-13408929D01*
X9223928Y-13423214D01*
X9195357Y-13423214D01*
X9166786Y-13408929D01*
X9152500Y-13394643D01*
X9138214Y-13366071D01*
X9123928Y-13308929D01*
X9123928Y-13237500D01*
X9138214Y-13180357D01*
X9152500Y-13151786D01*
X9166786Y-13137500D01*
X9195357Y-13123214D01*
X9423928Y-13423214D02*
X9423928Y-13223214D01*
X9423928Y-13251786D02*
X9438214Y-13237500D01*
X9466786Y-13223214D01*
X9509643Y-13223214D01*
X9538214Y-13237500D01*
X9552500Y-13266071D01*
X9552500Y-13423214D01*
X9552500Y-13266071D02*
X9566786Y-13237500D01*
X9595357Y-13223214D01*
X9638214Y-13223214D01*
X9666786Y-13237500D01*
X9681071Y-13266071D01*
X9681071Y-13423214D01*
X9823928Y-13423214D02*
X9823928Y-13223214D01*
X9823928Y-13251786D02*
X9838214Y-13237500D01*
X9866786Y-13223214D01*
X9909643Y-13223214D01*
X9938214Y-13237500D01*
X9952500Y-13266071D01*
X9952500Y-13423214D01*
X9952500Y-13266071D02*
X9966786Y-13237500D01*
X9995357Y-13223214D01*
X10038214Y-13223214D01*
X10066786Y-13237500D01*
X10081071Y-13266071D01*
X10081071Y-13423214D01*
X10666786Y-13108929D02*
X10409643Y-13494643D01*
X11052500Y-13123214D02*
X11081071Y-13123214D01*
X11109643Y-13137500D01*
X11123928Y-13151786D01*
X11138214Y-13180357D01*
X11152500Y-13237500D01*
X11152500Y-13308929D01*
X11138214Y-13366071D01*
X11123928Y-13394643D01*
X11109643Y-13408929D01*
X11081071Y-13423214D01*
X11052500Y-13423214D01*
X11023928Y-13408929D01*
X11009643Y-13394643D01*
X10995357Y-13366071D01*
X10981071Y-13308929D01*
X10981071Y-13237500D01*
X10995357Y-13180357D01*
X11009643Y-13151786D01*
X11023928Y-13137500D01*
X11052500Y-13123214D01*
X11281071Y-13394643D02*
X11295357Y-13408929D01*
X11281071Y-13423214D01*
X11266786Y-13408929D01*
X11281071Y-13394643D01*
X11281071Y-13423214D01*
X11481071Y-13123214D02*
X11509643Y-13123214D01*
X11538214Y-13137500D01*
X11552500Y-13151786D01*
X11566786Y-13180357D01*
X11581071Y-13237500D01*
X11581071Y-13308929D01*
X11566786Y-13366071D01*
X11552500Y-13394643D01*
X11538214Y-13408929D01*
X11509643Y-13423214D01*
X11481071Y-13423214D01*
X11452500Y-13408929D01*
X11438214Y-13394643D01*
X11423928Y-13366071D01*
X11409643Y-13308929D01*
X11409643Y-13237500D01*
X11423928Y-13180357D01*
X11438214Y-13151786D01*
X11452500Y-13137500D01*
X11481071Y-13123214D01*
X11866786Y-13423214D02*
X11695357Y-13423214D01*
X11781071Y-13423214D02*
X11781071Y-13123214D01*
X11752500Y-13166071D01*
X11723928Y-13194643D01*
X11695357Y-13208929D01*
X12123928Y-13123214D02*
X12066786Y-13123214D01*
X12038214Y-13137500D01*
X12023928Y-13151786D01*
X11995357Y-13194643D01*
X11981071Y-13251786D01*
X11981071Y-13366071D01*
X11995357Y-13394643D01*
X12009643Y-13408929D01*
X12038214Y-13423214D01*
X12095357Y-13423214D01*
X12123928Y-13408929D01*
X12138214Y-13394643D01*
X12152500Y-13366071D01*
X12152500Y-13294643D01*
X12138214Y-13266071D01*
X12123928Y-13251786D01*
X12095357Y-13237500D01*
X12038214Y-13237500D01*
X12009643Y-13251786D01*
X11995357Y-13266071D01*
X11981071Y-13294643D01*
X12266786Y-13123214D02*
X12266786Y-13180357D01*
X12381071Y-13123214D02*
X12381071Y-13180357D01*
X12823928Y-13537500D02*
X12809643Y-13523214D01*
X12781071Y-13480357D01*
X12766786Y-13451786D01*
X12752500Y-13408929D01*
X12738214Y-13337500D01*
X12738214Y-13280357D01*
X12752500Y-13208929D01*
X12766786Y-13166071D01*
X12781071Y-13137500D01*
X12809643Y-13094643D01*
X12823928Y-13080357D01*
X13095357Y-13423214D02*
X12923928Y-13423214D01*
X13009643Y-13423214D02*
X13009643Y-13123214D01*
X12981071Y-13166071D01*
X12952500Y-13194643D01*
X12923928Y-13208929D01*
X13366786Y-13123214D02*
X13223928Y-13123214D01*
X13209643Y-13266071D01*
X13223928Y-13251786D01*
X13252500Y-13237500D01*
X13323928Y-13237500D01*
X13352500Y-13251786D01*
X13366786Y-13266071D01*
X13381071Y-13294643D01*
X13381071Y-13366071D01*
X13366786Y-13394643D01*
X13352500Y-13408929D01*
X13323928Y-13423214D01*
X13252500Y-13423214D01*
X13223928Y-13408929D01*
X13209643Y-13394643D01*
X13666786Y-13423214D02*
X13495357Y-13423214D01*
X13581071Y-13423214D02*
X13581071Y-13123214D01*
X13552500Y-13166071D01*
X13523928Y-13194643D01*
X13495357Y-13208929D01*
X14023928Y-13423214D02*
X14023928Y-13123214D01*
X14152500Y-13423214D02*
X14152500Y-13266071D01*
X14138214Y-13237500D01*
X14109643Y-13223214D01*
X14066786Y-13223214D01*
X14038214Y-13237500D01*
X14023928Y-13251786D01*
X14338214Y-13423214D02*
X14309643Y-13408929D01*
X14295357Y-13394643D01*
X14281071Y-13366071D01*
X14281071Y-13280357D01*
X14295357Y-13251786D01*
X14309643Y-13237500D01*
X14338214Y-13223214D01*
X14381071Y-13223214D01*
X14409643Y-13237500D01*
X14423928Y-13251786D01*
X14438214Y-13280357D01*
X14438214Y-13366071D01*
X14423928Y-13394643D01*
X14409643Y-13408929D01*
X14381071Y-13423214D01*
X14338214Y-13423214D01*
X14609643Y-13423214D02*
X14581071Y-13408929D01*
X14566786Y-13380357D01*
X14566786Y-13123214D01*
X14838214Y-13408929D02*
X14809643Y-13423214D01*
X14752500Y-13423214D01*
X14723928Y-13408929D01*
X14709643Y-13380357D01*
X14709643Y-13266071D01*
X14723928Y-13237500D01*
X14752500Y-13223214D01*
X14809643Y-13223214D01*
X14838214Y-13237500D01*
X14852500Y-13266071D01*
X14852500Y-13294643D01*
X14709643Y-13323214D01*
X14966786Y-13408929D02*
X14995357Y-13423214D01*
X15052500Y-13423214D01*
X15081071Y-13408929D01*
X15095357Y-13380357D01*
X15095357Y-13366071D01*
X15081071Y-13337500D01*
X15052500Y-13323214D01*
X15009643Y-13323214D01*
X14981071Y-13308929D01*
X14966786Y-13280357D01*
X14966786Y-13266071D01*
X14981071Y-13237500D01*
X15009643Y-13223214D01*
X15052500Y-13223214D01*
X15081071Y-13237500D01*
X15195357Y-13537500D02*
X15209643Y-13523214D01*
X15238214Y-13480357D01*
X15252500Y-13451786D01*
X15266786Y-13408929D01*
X15281071Y-13337500D01*
X15281071Y-13280357D01*
X15266786Y-13208929D01*
X15252500Y-13166071D01*
X15238214Y-13137500D01*
X15209643Y-13094643D01*
X15195357Y-13080357D01*
X8137500Y-13683500D02*
G75*
G03*
X8137500Y-13683500I-40000J0D01*
G01*
X8481071Y-13519214D02*
X8509643Y-13519214D01*
X8538214Y-13533500D01*
X8552500Y-13547786D01*
X8566786Y-13576357D01*
X8581071Y-13633500D01*
X8581071Y-13704929D01*
X8566786Y-13762071D01*
X8552500Y-13790643D01*
X8538214Y-13804929D01*
X8509643Y-13819214D01*
X8481071Y-13819214D01*
X8452500Y-13804929D01*
X8438214Y-13790643D01*
X8423928Y-13762071D01*
X8409643Y-13704929D01*
X8409643Y-13633500D01*
X8423928Y-13576357D01*
X8438214Y-13547786D01*
X8452500Y-13533500D01*
X8481071Y-13519214D01*
X8709643Y-13790643D02*
X8723928Y-13804929D01*
X8709643Y-13819214D01*
X8695357Y-13804929D01*
X8709643Y-13790643D01*
X8709643Y-13819214D01*
X8895357Y-13647786D02*
X8866786Y-13633500D01*
X8852500Y-13619214D01*
X8838214Y-13590643D01*
X8838214Y-13576357D01*
X8852500Y-13547786D01*
X8866786Y-13533500D01*
X8895357Y-13519214D01*
X8952500Y-13519214D01*
X8981071Y-13533500D01*
X8995357Y-13547786D01*
X9009643Y-13576357D01*
X9009643Y-13590643D01*
X8995357Y-13619214D01*
X8981071Y-13633500D01*
X8952500Y-13647786D01*
X8895357Y-13647786D01*
X8866786Y-13662071D01*
X8852500Y-13676357D01*
X8838214Y-13704929D01*
X8838214Y-13762071D01*
X8852500Y-13790643D01*
X8866786Y-13804929D01*
X8895357Y-13819214D01*
X8952500Y-13819214D01*
X8981071Y-13804929D01*
X8995357Y-13790643D01*
X9009643Y-13762071D01*
X9009643Y-13704929D01*
X8995357Y-13676357D01*
X8981071Y-13662071D01*
X8952500Y-13647786D01*
X9195357Y-13519214D02*
X9223928Y-13519214D01*
X9252500Y-13533500D01*
X9266786Y-13547786D01*
X9281071Y-13576357D01*
X9295357Y-13633500D01*
X9295357Y-13704929D01*
X9281071Y-13762071D01*
X9266786Y-13790643D01*
X9252500Y-13804929D01*
X9223928Y-13819214D01*
X9195357Y-13819214D01*
X9166786Y-13804929D01*
X9152500Y-13790643D01*
X9138214Y-13762071D01*
X9123928Y-13704929D01*
X9123928Y-13633500D01*
X9138214Y-13576357D01*
X9152500Y-13547786D01*
X9166786Y-13533500D01*
X9195357Y-13519214D01*
X9423928Y-13819214D02*
X9423928Y-13619214D01*
X9423928Y-13647786D02*
X9438214Y-13633500D01*
X9466786Y-13619214D01*
X9509643Y-13619214D01*
X9538214Y-13633500D01*
X9552500Y-13662071D01*
X9552500Y-13819214D01*
X9552500Y-13662071D02*
X9566786Y-13633500D01*
X9595357Y-13619214D01*
X9638214Y-13619214D01*
X9666786Y-13633500D01*
X9681071Y-13662071D01*
X9681071Y-13819214D01*
X9823928Y-13819214D02*
X9823928Y-13619214D01*
X9823928Y-13647786D02*
X9838214Y-13633500D01*
X9866786Y-13619214D01*
X9909643Y-13619214D01*
X9938214Y-13633500D01*
X9952500Y-13662071D01*
X9952500Y-13819214D01*
X9952500Y-13662071D02*
X9966786Y-13633500D01*
X9995357Y-13619214D01*
X10038214Y-13619214D01*
X10066786Y-13633500D01*
X10081071Y-13662071D01*
X10081071Y-13819214D01*
X10666786Y-13504929D02*
X10409643Y-13890643D01*
X11052500Y-13519214D02*
X11081071Y-13519214D01*
X11109643Y-13533500D01*
X11123928Y-13547786D01*
X11138214Y-13576357D01*
X11152500Y-13633500D01*
X11152500Y-13704929D01*
X11138214Y-13762071D01*
X11123928Y-13790643D01*
X11109643Y-13804929D01*
X11081071Y-13819214D01*
X11052500Y-13819214D01*
X11023928Y-13804929D01*
X11009643Y-13790643D01*
X10995357Y-13762071D01*
X10981071Y-13704929D01*
X10981071Y-13633500D01*
X10995357Y-13576357D01*
X11009643Y-13547786D01*
X11023928Y-13533500D01*
X11052500Y-13519214D01*
X11281071Y-13790643D02*
X11295357Y-13804929D01*
X11281071Y-13819214D01*
X11266786Y-13804929D01*
X11281071Y-13790643D01*
X11281071Y-13819214D01*
X11481071Y-13519214D02*
X11509643Y-13519214D01*
X11538214Y-13533500D01*
X11552500Y-13547786D01*
X11566786Y-13576357D01*
X11581071Y-13633500D01*
X11581071Y-13704929D01*
X11566786Y-13762071D01*
X11552500Y-13790643D01*
X11538214Y-13804929D01*
X11509643Y-13819214D01*
X11481071Y-13819214D01*
X11452500Y-13804929D01*
X11438214Y-13790643D01*
X11423928Y-13762071D01*
X11409643Y-13704929D01*
X11409643Y-13633500D01*
X11423928Y-13576357D01*
X11438214Y-13547786D01*
X11452500Y-13533500D01*
X11481071Y-13519214D01*
X11681071Y-13519214D02*
X11866786Y-13519214D01*
X11766786Y-13633500D01*
X11809643Y-13633500D01*
X11838214Y-13647786D01*
X11852500Y-13662071D01*
X11866786Y-13690643D01*
X11866786Y-13762071D01*
X11852500Y-13790643D01*
X11838214Y-13804929D01*
X11809643Y-13819214D01*
X11723928Y-13819214D01*
X11695357Y-13804929D01*
X11681071Y-13790643D01*
X12152500Y-13819214D02*
X11981071Y-13819214D01*
X12066786Y-13819214D02*
X12066786Y-13519214D01*
X12038214Y-13562071D01*
X12009643Y-13590643D01*
X11981071Y-13604929D01*
X12266786Y-13519214D02*
X12266786Y-13576357D01*
X12381071Y-13519214D02*
X12381071Y-13576357D01*
X12823928Y-13933500D02*
X12809643Y-13919214D01*
X12781071Y-13876357D01*
X12766786Y-13847786D01*
X12752500Y-13804929D01*
X12738214Y-13733500D01*
X12738214Y-13676357D01*
X12752500Y-13604929D01*
X12766786Y-13562071D01*
X12781071Y-13533500D01*
X12809643Y-13490643D01*
X12823928Y-13476357D01*
X13066786Y-13519214D02*
X13009643Y-13519214D01*
X12981071Y-13533500D01*
X12966786Y-13547786D01*
X12938214Y-13590643D01*
X12923928Y-13647786D01*
X12923928Y-13762071D01*
X12938214Y-13790643D01*
X12952500Y-13804929D01*
X12981071Y-13819214D01*
X13038214Y-13819214D01*
X13066786Y-13804929D01*
X13081071Y-13790643D01*
X13095357Y-13762071D01*
X13095357Y-13690643D01*
X13081071Y-13662071D01*
X13066786Y-13647786D01*
X13038214Y-13633500D01*
X12981071Y-13633500D01*
X12952500Y-13647786D01*
X12938214Y-13662071D01*
X12923928Y-13690643D01*
X13452500Y-13819214D02*
X13452500Y-13519214D01*
X13581071Y-13819214D02*
X13581071Y-13662071D01*
X13566786Y-13633500D01*
X13538214Y-13619214D01*
X13495357Y-13619214D01*
X13466786Y-13633500D01*
X13452500Y-13647786D01*
X13766786Y-13819214D02*
X13738214Y-13804929D01*
X13723928Y-13790643D01*
X13709643Y-13762071D01*
X13709643Y-13676357D01*
X13723928Y-13647786D01*
X13738214Y-13633500D01*
X13766786Y-13619214D01*
X13809643Y-13619214D01*
X13838214Y-13633500D01*
X13852500Y-13647786D01*
X13866786Y-13676357D01*
X13866786Y-13762071D01*
X13852500Y-13790643D01*
X13838214Y-13804929D01*
X13809643Y-13819214D01*
X13766786Y-13819214D01*
X14038214Y-13819214D02*
X14009643Y-13804929D01*
X13995357Y-13776357D01*
X13995357Y-13519214D01*
X14266786Y-13804929D02*
X14238214Y-13819214D01*
X14181071Y-13819214D01*
X14152500Y-13804929D01*
X14138214Y-13776357D01*
X14138214Y-13662071D01*
X14152500Y-13633500D01*
X14181071Y-13619214D01*
X14238214Y-13619214D01*
X14266786Y-13633500D01*
X14281071Y-13662071D01*
X14281071Y-13690643D01*
X14138214Y-13719214D01*
X14395357Y-13804929D02*
X14423928Y-13819214D01*
X14481071Y-13819214D01*
X14509643Y-13804929D01*
X14523928Y-13776357D01*
X14523928Y-13762071D01*
X14509643Y-13733500D01*
X14481071Y-13719214D01*
X14438214Y-13719214D01*
X14409643Y-13704929D01*
X14395357Y-13676357D01*
X14395357Y-13662071D01*
X14409643Y-13633500D01*
X14438214Y-13619214D01*
X14481071Y-13619214D01*
X14509643Y-13633500D01*
X14623928Y-13933500D02*
X14638214Y-13919214D01*
X14666786Y-13876357D01*
X14681071Y-13847786D01*
X14695357Y-13804929D01*
X14709643Y-13733500D01*
X14709643Y-13676357D01*
X14695357Y-13604929D01*
X14681071Y-13562071D01*
X14666786Y-13533500D01*
X14638214Y-13490643D01*
X14623928Y-13476357D01*
X8092500Y-14034500D02*
X8092500Y-14124500D01*
X8047500Y-14079500D02*
X8137500Y-14079500D01*
X8481071Y-13915214D02*
X8509643Y-13915214D01*
X8538214Y-13929500D01*
X8552500Y-13943786D01*
X8566786Y-13972357D01*
X8581071Y-14029500D01*
X8581071Y-14100929D01*
X8566786Y-14158071D01*
X8552500Y-14186643D01*
X8538214Y-14200929D01*
X8509643Y-14215214D01*
X8481071Y-14215214D01*
X8452500Y-14200929D01*
X8438214Y-14186643D01*
X8423928Y-14158071D01*
X8409643Y-14100929D01*
X8409643Y-14029500D01*
X8423928Y-13972357D01*
X8438214Y-13943786D01*
X8452500Y-13929500D01*
X8481071Y-13915214D01*
X8709643Y-14186643D02*
X8723928Y-14200929D01*
X8709643Y-14215214D01*
X8695357Y-14200929D01*
X8709643Y-14186643D01*
X8709643Y-14215214D01*
X8866786Y-14215214D02*
X8923928Y-14215214D01*
X8952500Y-14200929D01*
X8966786Y-14186643D01*
X8995357Y-14143786D01*
X9009643Y-14086643D01*
X9009643Y-13972357D01*
X8995357Y-13943786D01*
X8981071Y-13929500D01*
X8952500Y-13915214D01*
X8895357Y-13915214D01*
X8866786Y-13929500D01*
X8852500Y-13943786D01*
X8838214Y-13972357D01*
X8838214Y-14043786D01*
X8852500Y-14072357D01*
X8866786Y-14086643D01*
X8895357Y-14100929D01*
X8952500Y-14100929D01*
X8981071Y-14086643D01*
X8995357Y-14072357D01*
X9009643Y-14043786D01*
X9195357Y-13915214D02*
X9223928Y-13915214D01*
X9252500Y-13929500D01*
X9266786Y-13943786D01*
X9281071Y-13972357D01*
X9295357Y-14029500D01*
X9295357Y-14100929D01*
X9281071Y-14158071D01*
X9266786Y-14186643D01*
X9252500Y-14200929D01*
X9223928Y-14215214D01*
X9195357Y-14215214D01*
X9166786Y-14200929D01*
X9152500Y-14186643D01*
X9138214Y-14158071D01*
X9123928Y-14100929D01*
X9123928Y-14029500D01*
X9138214Y-13972357D01*
X9152500Y-13943786D01*
X9166786Y-13929500D01*
X9195357Y-13915214D01*
X9423928Y-14215214D02*
X9423928Y-14015214D01*
X9423928Y-14043786D02*
X9438214Y-14029500D01*
X9466786Y-14015214D01*
X9509643Y-14015214D01*
X9538214Y-14029500D01*
X9552500Y-14058071D01*
X9552500Y-14215214D01*
X9552500Y-14058071D02*
X9566786Y-14029500D01*
X9595357Y-14015214D01*
X9638214Y-14015214D01*
X9666786Y-14029500D01*
X9681071Y-14058071D01*
X9681071Y-14215214D01*
X9823928Y-14215214D02*
X9823928Y-14015214D01*
X9823928Y-14043786D02*
X9838214Y-14029500D01*
X9866786Y-14015214D01*
X9909643Y-14015214D01*
X9938214Y-14029500D01*
X9952500Y-14058071D01*
X9952500Y-14215214D01*
X9952500Y-14058071D02*
X9966786Y-14029500D01*
X9995357Y-14015214D01*
X10038214Y-14015214D01*
X10066786Y-14029500D01*
X10081071Y-14058071D01*
X10081071Y-14215214D01*
X10666786Y-13900929D02*
X10409643Y-14286643D01*
X11052500Y-13915214D02*
X11081071Y-13915214D01*
X11109643Y-13929500D01*
X11123928Y-13943786D01*
X11138214Y-13972357D01*
X11152500Y-14029500D01*
X11152500Y-14100929D01*
X11138214Y-14158071D01*
X11123928Y-14186643D01*
X11109643Y-14200929D01*
X11081071Y-14215214D01*
X11052500Y-14215214D01*
X11023928Y-14200929D01*
X11009643Y-14186643D01*
X10995357Y-14158071D01*
X10981071Y-14100929D01*
X10981071Y-14029500D01*
X10995357Y-13972357D01*
X11009643Y-13943786D01*
X11023928Y-13929500D01*
X11052500Y-13915214D01*
X11281071Y-14186643D02*
X11295357Y-14200929D01*
X11281071Y-14215214D01*
X11266786Y-14200929D01*
X11281071Y-14186643D01*
X11281071Y-14215214D01*
X11481071Y-13915214D02*
X11509643Y-13915214D01*
X11538214Y-13929500D01*
X11552500Y-13943786D01*
X11566786Y-13972357D01*
X11581071Y-14029500D01*
X11581071Y-14100929D01*
X11566786Y-14158071D01*
X11552500Y-14186643D01*
X11538214Y-14200929D01*
X11509643Y-14215214D01*
X11481071Y-14215214D01*
X11452500Y-14200929D01*
X11438214Y-14186643D01*
X11423928Y-14158071D01*
X11409643Y-14100929D01*
X11409643Y-14029500D01*
X11423928Y-13972357D01*
X11438214Y-13943786D01*
X11452500Y-13929500D01*
X11481071Y-13915214D01*
X11681071Y-13915214D02*
X11866786Y-13915214D01*
X11766786Y-14029500D01*
X11809643Y-14029500D01*
X11838214Y-14043786D01*
X11852500Y-14058071D01*
X11866786Y-14086643D01*
X11866786Y-14158071D01*
X11852500Y-14186643D01*
X11838214Y-14200929D01*
X11809643Y-14215214D01*
X11723928Y-14215214D01*
X11695357Y-14200929D01*
X11681071Y-14186643D01*
X12138214Y-13915214D02*
X11995357Y-13915214D01*
X11981071Y-14058071D01*
X11995357Y-14043786D01*
X12023928Y-14029500D01*
X12095357Y-14029500D01*
X12123928Y-14043786D01*
X12138214Y-14058071D01*
X12152500Y-14086643D01*
X12152500Y-14158071D01*
X12138214Y-14186643D01*
X12123928Y-14200929D01*
X12095357Y-14215214D01*
X12023928Y-14215214D01*
X11995357Y-14200929D01*
X11981071Y-14186643D01*
X12266786Y-13915214D02*
X12266786Y-13972357D01*
X12381071Y-13915214D02*
X12381071Y-13972357D01*
X12823928Y-14329500D02*
X12809643Y-14315214D01*
X12781071Y-14272357D01*
X12766786Y-14243786D01*
X12752500Y-14200929D01*
X12738214Y-14129500D01*
X12738214Y-14072357D01*
X12752500Y-14000929D01*
X12766786Y-13958071D01*
X12781071Y-13929500D01*
X12809643Y-13886643D01*
X12823928Y-13872357D01*
X13066786Y-13915214D02*
X13009643Y-13915214D01*
X12981071Y-13929500D01*
X12966786Y-13943786D01*
X12938214Y-13986643D01*
X12923928Y-14043786D01*
X12923928Y-14158071D01*
X12938214Y-14186643D01*
X12952500Y-14200929D01*
X12981071Y-14215214D01*
X13038214Y-14215214D01*
X13066786Y-14200929D01*
X13081071Y-14186643D01*
X13095357Y-14158071D01*
X13095357Y-14086643D01*
X13081071Y-14058071D01*
X13066786Y-14043786D01*
X13038214Y-14029500D01*
X12981071Y-14029500D01*
X12952500Y-14043786D01*
X12938214Y-14058071D01*
X12923928Y-14086643D01*
X13452500Y-14215214D02*
X13452500Y-13915214D01*
X13581071Y-14215214D02*
X13581071Y-14058071D01*
X13566786Y-14029500D01*
X13538214Y-14015214D01*
X13495357Y-14015214D01*
X13466786Y-14029500D01*
X13452500Y-14043786D01*
X13766786Y-14215214D02*
X13738214Y-14200929D01*
X13723928Y-14186643D01*
X13709643Y-14158071D01*
X13709643Y-14072357D01*
X13723928Y-14043786D01*
X13738214Y-14029500D01*
X13766786Y-14015214D01*
X13809643Y-14015214D01*
X13838214Y-14029500D01*
X13852500Y-14043786D01*
X13866786Y-14072357D01*
X13866786Y-14158071D01*
X13852500Y-14186643D01*
X13838214Y-14200929D01*
X13809643Y-14215214D01*
X13766786Y-14215214D01*
X14038214Y-14215214D02*
X14009643Y-14200929D01*
X13995357Y-14172357D01*
X13995357Y-13915214D01*
X14266786Y-14200929D02*
X14238214Y-14215214D01*
X14181071Y-14215214D01*
X14152500Y-14200929D01*
X14138214Y-14172357D01*
X14138214Y-14058071D01*
X14152500Y-14029500D01*
X14181071Y-14015214D01*
X14238214Y-14015214D01*
X14266786Y-14029500D01*
X14281071Y-14058071D01*
X14281071Y-14086643D01*
X14138214Y-14115214D01*
X14395357Y-14200929D02*
X14423928Y-14215214D01*
X14481071Y-14215214D01*
X14509643Y-14200929D01*
X14523928Y-14172357D01*
X14523928Y-14158071D01*
X14509643Y-14129500D01*
X14481071Y-14115214D01*
X14438214Y-14115214D01*
X14409643Y-14100929D01*
X14395357Y-14072357D01*
X14395357Y-14058071D01*
X14409643Y-14029500D01*
X14438214Y-14015214D01*
X14481071Y-14015214D01*
X14509643Y-14029500D01*
X14623928Y-14329500D02*
X14638214Y-14315214D01*
X14666786Y-14272357D01*
X14681071Y-14243786D01*
X14695357Y-14200929D01*
X14709643Y-14129500D01*
X14709643Y-14072357D01*
X14695357Y-14000929D01*
X14681071Y-13958071D01*
X14666786Y-13929500D01*
X14638214Y-13886643D01*
X14623928Y-13872357D01*
X8123588Y-14509088D02*
X8123588Y-14441912D01*
X8056412Y-14441912D01*
X8056412Y-14509088D01*
X8123588Y-14509088D01*
X8481071Y-14311214D02*
X8509643Y-14311214D01*
X8538214Y-14325500D01*
X8552500Y-14339786D01*
X8566786Y-14368357D01*
X8581071Y-14425500D01*
X8581071Y-14496929D01*
X8566786Y-14554071D01*
X8552500Y-14582643D01*
X8538214Y-14596929D01*
X8509643Y-14611214D01*
X8481071Y-14611214D01*
X8452500Y-14596929D01*
X8438214Y-14582643D01*
X8423928Y-14554071D01*
X8409643Y-14496929D01*
X8409643Y-14425500D01*
X8423928Y-14368357D01*
X8438214Y-14339786D01*
X8452500Y-14325500D01*
X8481071Y-14311214D01*
X8709643Y-14582643D02*
X8723928Y-14596929D01*
X8709643Y-14611214D01*
X8695357Y-14596929D01*
X8709643Y-14582643D01*
X8709643Y-14611214D01*
X8866786Y-14611214D02*
X8923928Y-14611214D01*
X8952500Y-14596929D01*
X8966786Y-14582643D01*
X8995357Y-14539786D01*
X9009643Y-14482643D01*
X9009643Y-14368357D01*
X8995357Y-14339786D01*
X8981071Y-14325500D01*
X8952500Y-14311214D01*
X8895357Y-14311214D01*
X8866786Y-14325500D01*
X8852500Y-14339786D01*
X8838214Y-14368357D01*
X8838214Y-14439786D01*
X8852500Y-14468357D01*
X8866786Y-14482643D01*
X8895357Y-14496929D01*
X8952500Y-14496929D01*
X8981071Y-14482643D01*
X8995357Y-14468357D01*
X9009643Y-14439786D01*
X9281071Y-14311214D02*
X9138214Y-14311214D01*
X9123928Y-14454071D01*
X9138214Y-14439786D01*
X9166786Y-14425500D01*
X9238214Y-14425500D01*
X9266786Y-14439786D01*
X9281071Y-14454071D01*
X9295357Y-14482643D01*
X9295357Y-14554071D01*
X9281071Y-14582643D01*
X9266786Y-14596929D01*
X9238214Y-14611214D01*
X9166786Y-14611214D01*
X9138214Y-14596929D01*
X9123928Y-14582643D01*
X9423928Y-14611214D02*
X9423928Y-14411214D01*
X9423928Y-14439786D02*
X9438214Y-14425500D01*
X9466786Y-14411214D01*
X9509643Y-14411214D01*
X9538214Y-14425500D01*
X9552500Y-14454071D01*
X9552500Y-14611214D01*
X9552500Y-14454071D02*
X9566786Y-14425500D01*
X9595357Y-14411214D01*
X9638214Y-14411214D01*
X9666786Y-14425500D01*
X9681071Y-14454071D01*
X9681071Y-14611214D01*
X9823928Y-14611214D02*
X9823928Y-14411214D01*
X9823928Y-14439786D02*
X9838214Y-14425500D01*
X9866786Y-14411214D01*
X9909643Y-14411214D01*
X9938214Y-14425500D01*
X9952500Y-14454071D01*
X9952500Y-14611214D01*
X9952500Y-14454071D02*
X9966786Y-14425500D01*
X9995357Y-14411214D01*
X10038214Y-14411214D01*
X10066786Y-14425500D01*
X10081071Y-14454071D01*
X10081071Y-14611214D01*
X10666786Y-14296929D02*
X10409643Y-14682643D01*
X11052500Y-14311214D02*
X11081071Y-14311214D01*
X11109643Y-14325500D01*
X11123928Y-14339786D01*
X11138214Y-14368357D01*
X11152500Y-14425500D01*
X11152500Y-14496929D01*
X11138214Y-14554071D01*
X11123928Y-14582643D01*
X11109643Y-14596929D01*
X11081071Y-14611214D01*
X11052500Y-14611214D01*
X11023928Y-14596929D01*
X11009643Y-14582643D01*
X10995357Y-14554071D01*
X10981071Y-14496929D01*
X10981071Y-14425500D01*
X10995357Y-14368357D01*
X11009643Y-14339786D01*
X11023928Y-14325500D01*
X11052500Y-14311214D01*
X11281071Y-14582643D02*
X11295357Y-14596929D01*
X11281071Y-14611214D01*
X11266786Y-14596929D01*
X11281071Y-14582643D01*
X11281071Y-14611214D01*
X11481071Y-14311214D02*
X11509643Y-14311214D01*
X11538214Y-14325500D01*
X11552500Y-14339786D01*
X11566786Y-14368357D01*
X11581071Y-14425500D01*
X11581071Y-14496929D01*
X11566786Y-14554071D01*
X11552500Y-14582643D01*
X11538214Y-14596929D01*
X11509643Y-14611214D01*
X11481071Y-14611214D01*
X11452500Y-14596929D01*
X11438214Y-14582643D01*
X11423928Y-14554071D01*
X11409643Y-14496929D01*
X11409643Y-14425500D01*
X11423928Y-14368357D01*
X11438214Y-14339786D01*
X11452500Y-14325500D01*
X11481071Y-14311214D01*
X11681071Y-14311214D02*
X11866786Y-14311214D01*
X11766786Y-14425500D01*
X11809643Y-14425500D01*
X11838214Y-14439786D01*
X11852500Y-14454071D01*
X11866786Y-14482643D01*
X11866786Y-14554071D01*
X11852500Y-14582643D01*
X11838214Y-14596929D01*
X11809643Y-14611214D01*
X11723928Y-14611214D01*
X11695357Y-14596929D01*
X11681071Y-14582643D01*
X11966786Y-14311214D02*
X12166786Y-14311214D01*
X12038214Y-14611214D01*
X12266786Y-14311214D02*
X12266786Y-14368357D01*
X12381071Y-14311214D02*
X12381071Y-14368357D01*
X12823928Y-14725500D02*
X12809643Y-14711214D01*
X12781071Y-14668357D01*
X12766786Y-14639786D01*
X12752500Y-14596929D01*
X12738214Y-14525500D01*
X12738214Y-14468357D01*
X12752500Y-14396929D01*
X12766786Y-14354071D01*
X12781071Y-14325500D01*
X12809643Y-14282643D01*
X12823928Y-14268357D01*
X12909643Y-14311214D02*
X13109643Y-14311214D01*
X12981071Y-14611214D01*
X13266786Y-14439786D02*
X13238214Y-14425500D01*
X13223928Y-14411214D01*
X13209643Y-14382643D01*
X13209643Y-14368357D01*
X13223928Y-14339786D01*
X13238214Y-14325500D01*
X13266786Y-14311214D01*
X13323928Y-14311214D01*
X13352500Y-14325500D01*
X13366786Y-14339786D01*
X13381071Y-14368357D01*
X13381071Y-14382643D01*
X13366786Y-14411214D01*
X13352500Y-14425500D01*
X13323928Y-14439786D01*
X13266786Y-14439786D01*
X13238214Y-14454071D01*
X13223928Y-14468357D01*
X13209643Y-14496929D01*
X13209643Y-14554071D01*
X13223928Y-14582643D01*
X13238214Y-14596929D01*
X13266786Y-14611214D01*
X13323928Y-14611214D01*
X13352500Y-14596929D01*
X13366786Y-14582643D01*
X13381071Y-14554071D01*
X13381071Y-14496929D01*
X13366786Y-14468357D01*
X13352500Y-14454071D01*
X13323928Y-14439786D01*
X13738214Y-14611214D02*
X13738214Y-14311214D01*
X13866786Y-14611214D02*
X13866786Y-14454071D01*
X13852500Y-14425500D01*
X13823928Y-14411214D01*
X13781071Y-14411214D01*
X13752500Y-14425500D01*
X13738214Y-14439786D01*
X14052500Y-14611214D02*
X14023928Y-14596929D01*
X14009643Y-14582643D01*
X13995357Y-14554071D01*
X13995357Y-14468357D01*
X14009643Y-14439786D01*
X14023928Y-14425500D01*
X14052500Y-14411214D01*
X14095357Y-14411214D01*
X14123928Y-14425500D01*
X14138214Y-14439786D01*
X14152500Y-14468357D01*
X14152500Y-14554071D01*
X14138214Y-14582643D01*
X14123928Y-14596929D01*
X14095357Y-14611214D01*
X14052500Y-14611214D01*
X14323928Y-14611214D02*
X14295357Y-14596929D01*
X14281071Y-14568357D01*
X14281071Y-14311214D01*
X14552500Y-14596929D02*
X14523928Y-14611214D01*
X14466786Y-14611214D01*
X14438214Y-14596929D01*
X14423928Y-14568357D01*
X14423928Y-14454071D01*
X14438214Y-14425500D01*
X14466786Y-14411214D01*
X14523928Y-14411214D01*
X14552500Y-14425500D01*
X14566786Y-14454071D01*
X14566786Y-14482643D01*
X14423928Y-14511214D01*
X14681071Y-14596929D02*
X14709643Y-14611214D01*
X14766786Y-14611214D01*
X14795357Y-14596929D01*
X14809643Y-14568357D01*
X14809643Y-14554071D01*
X14795357Y-14525500D01*
X14766786Y-14511214D01*
X14723928Y-14511214D01*
X14695357Y-14496929D01*
X14681071Y-14468357D01*
X14681071Y-14454071D01*
X14695357Y-14425500D01*
X14723928Y-14411214D01*
X14766786Y-14411214D01*
X14795357Y-14425500D01*
X14909643Y-14725500D02*
X14923928Y-14711214D01*
X14952500Y-14668357D01*
X14966786Y-14639786D01*
X14981071Y-14596929D01*
X14995357Y-14525500D01*
X14995357Y-14468357D01*
X14981071Y-14396929D01*
X14966786Y-14354071D01*
X14952500Y-14325500D01*
X14923928Y-14282643D01*
X14909643Y-14268357D01*
X8082500Y-14926500D02*
X8137500Y-14871500D01*
X8082500Y-14816500D01*
X8027500Y-14871500D01*
X8082500Y-14926500D01*
X8581071Y-15007214D02*
X8409643Y-15007214D01*
X8495357Y-15007214D02*
X8495357Y-14707214D01*
X8466786Y-14750071D01*
X8438214Y-14778643D01*
X8409643Y-14792929D01*
X8709643Y-14978643D02*
X8723928Y-14992929D01*
X8709643Y-15007214D01*
X8695357Y-14992929D01*
X8709643Y-14978643D01*
X8709643Y-15007214D01*
X9009643Y-15007214D02*
X8838214Y-15007214D01*
X8923928Y-15007214D02*
X8923928Y-14707214D01*
X8895357Y-14750071D01*
X8866786Y-14778643D01*
X8838214Y-14792929D01*
X9195357Y-14707214D02*
X9223928Y-14707214D01*
X9252500Y-14721500D01*
X9266786Y-14735786D01*
X9281071Y-14764357D01*
X9295357Y-14821500D01*
X9295357Y-14892929D01*
X9281071Y-14950071D01*
X9266786Y-14978643D01*
X9252500Y-14992929D01*
X9223928Y-15007214D01*
X9195357Y-15007214D01*
X9166786Y-14992929D01*
X9152500Y-14978643D01*
X9138214Y-14950071D01*
X9123928Y-14892929D01*
X9123928Y-14821500D01*
X9138214Y-14764357D01*
X9152500Y-14735786D01*
X9166786Y-14721500D01*
X9195357Y-14707214D01*
X9423928Y-15007214D02*
X9423928Y-14807214D01*
X9423928Y-14835786D02*
X9438214Y-14821500D01*
X9466786Y-14807214D01*
X9509643Y-14807214D01*
X9538214Y-14821500D01*
X9552500Y-14850071D01*
X9552500Y-15007214D01*
X9552500Y-14850071D02*
X9566786Y-14821500D01*
X9595357Y-14807214D01*
X9638214Y-14807214D01*
X9666786Y-14821500D01*
X9681071Y-14850071D01*
X9681071Y-15007214D01*
X9823928Y-15007214D02*
X9823928Y-14807214D01*
X9823928Y-14835786D02*
X9838214Y-14821500D01*
X9866786Y-14807214D01*
X9909643Y-14807214D01*
X9938214Y-14821500D01*
X9952500Y-14850071D01*
X9952500Y-15007214D01*
X9952500Y-14850071D02*
X9966786Y-14821500D01*
X9995357Y-14807214D01*
X10038214Y-14807214D01*
X10066786Y-14821500D01*
X10081071Y-14850071D01*
X10081071Y-15007214D01*
X10666786Y-14692929D02*
X10409643Y-15078643D01*
X11052500Y-14707214D02*
X11081071Y-14707214D01*
X11109643Y-14721500D01*
X11123928Y-14735786D01*
X11138214Y-14764357D01*
X11152500Y-14821500D01*
X11152500Y-14892929D01*
X11138214Y-14950071D01*
X11123928Y-14978643D01*
X11109643Y-14992929D01*
X11081071Y-15007214D01*
X11052500Y-15007214D01*
X11023928Y-14992929D01*
X11009643Y-14978643D01*
X10995357Y-14950071D01*
X10981071Y-14892929D01*
X10981071Y-14821500D01*
X10995357Y-14764357D01*
X11009643Y-14735786D01*
X11023928Y-14721500D01*
X11052500Y-14707214D01*
X11281071Y-14978643D02*
X11295357Y-14992929D01*
X11281071Y-15007214D01*
X11266786Y-14992929D01*
X11281071Y-14978643D01*
X11281071Y-15007214D01*
X11481071Y-14707214D02*
X11509643Y-14707214D01*
X11538214Y-14721500D01*
X11552500Y-14735786D01*
X11566786Y-14764357D01*
X11581071Y-14821500D01*
X11581071Y-14892929D01*
X11566786Y-14950071D01*
X11552500Y-14978643D01*
X11538214Y-14992929D01*
X11509643Y-15007214D01*
X11481071Y-15007214D01*
X11452500Y-14992929D01*
X11438214Y-14978643D01*
X11423928Y-14950071D01*
X11409643Y-14892929D01*
X11409643Y-14821500D01*
X11423928Y-14764357D01*
X11438214Y-14735786D01*
X11452500Y-14721500D01*
X11481071Y-14707214D01*
X11838214Y-14807214D02*
X11838214Y-15007214D01*
X11766786Y-14692929D02*
X11695357Y-14907214D01*
X11881071Y-14907214D01*
X11966786Y-14707214D02*
X12152500Y-14707214D01*
X12052500Y-14821500D01*
X12095357Y-14821500D01*
X12123928Y-14835786D01*
X12138214Y-14850071D01*
X12152500Y-14878643D01*
X12152500Y-14950071D01*
X12138214Y-14978643D01*
X12123928Y-14992929D01*
X12095357Y-15007214D01*
X12009643Y-15007214D01*
X11981071Y-14992929D01*
X11966786Y-14978643D01*
X12266786Y-14707214D02*
X12266786Y-14764357D01*
X12381071Y-14707214D02*
X12381071Y-14764357D01*
X12823928Y-15121500D02*
X12809643Y-15107214D01*
X12781071Y-15064357D01*
X12766786Y-15035786D01*
X12752500Y-14992929D01*
X12738214Y-14921500D01*
X12738214Y-14864357D01*
X12752500Y-14792929D01*
X12766786Y-14750071D01*
X12781071Y-14721500D01*
X12809643Y-14678643D01*
X12823928Y-14664357D01*
X13095357Y-15007214D02*
X12923928Y-15007214D01*
X13009643Y-15007214D02*
X13009643Y-14707214D01*
X12981071Y-14750071D01*
X12952500Y-14778643D01*
X12923928Y-14792929D01*
X13209643Y-14735786D02*
X13223928Y-14721500D01*
X13252500Y-14707214D01*
X13323928Y-14707214D01*
X13352500Y-14721500D01*
X13366786Y-14735786D01*
X13381071Y-14764357D01*
X13381071Y-14792929D01*
X13366786Y-14835786D01*
X13195357Y-15007214D01*
X13381071Y-15007214D01*
X13738214Y-15007214D02*
X13738214Y-14707214D01*
X13866786Y-15007214D02*
X13866786Y-14850071D01*
X13852500Y-14821500D01*
X13823928Y-14807214D01*
X13781071Y-14807214D01*
X13752500Y-14821500D01*
X13738214Y-14835786D01*
X14052500Y-15007214D02*
X14023928Y-14992929D01*
X14009643Y-14978643D01*
X13995357Y-14950071D01*
X13995357Y-14864357D01*
X14009643Y-14835786D01*
X14023928Y-14821500D01*
X14052500Y-14807214D01*
X14095357Y-14807214D01*
X14123928Y-14821500D01*
X14138214Y-14835786D01*
X14152500Y-14864357D01*
X14152500Y-14950071D01*
X14138214Y-14978643D01*
X14123928Y-14992929D01*
X14095357Y-15007214D01*
X14052500Y-15007214D01*
X14323928Y-15007214D02*
X14295357Y-14992929D01*
X14281071Y-14964357D01*
X14281071Y-14707214D01*
X14552500Y-14992929D02*
X14523928Y-15007214D01*
X14466786Y-15007214D01*
X14438214Y-14992929D01*
X14423928Y-14964357D01*
X14423928Y-14850071D01*
X14438214Y-14821500D01*
X14466786Y-14807214D01*
X14523928Y-14807214D01*
X14552500Y-14821500D01*
X14566786Y-14850071D01*
X14566786Y-14878643D01*
X14423928Y-14907214D01*
X14681071Y-14992929D02*
X14709643Y-15007214D01*
X14766786Y-15007214D01*
X14795357Y-14992929D01*
X14809643Y-14964357D01*
X14809643Y-14950071D01*
X14795357Y-14921500D01*
X14766786Y-14907214D01*
X14723928Y-14907214D01*
X14695357Y-14892929D01*
X14681071Y-14864357D01*
X14681071Y-14850071D01*
X14695357Y-14821500D01*
X14723928Y-14807214D01*
X14766786Y-14807214D01*
X14795357Y-14821500D01*
X14909643Y-15121500D02*
X14923928Y-15107214D01*
X14952500Y-15064357D01*
X14966786Y-15035786D01*
X14981071Y-14992929D01*
X14995357Y-14921500D01*
X14995357Y-14864357D01*
X14981071Y-14792929D01*
X14966786Y-14750071D01*
X14952500Y-14721500D01*
X14923928Y-14678643D01*
X14909643Y-14664357D01*
X7817500Y-15107500D02*
X8137500Y-15427500D01*
X8137500Y-15107500D02*
X7817500Y-15427500D01*
X8137500Y-15267500D02*
G75*
G03*
X8137500Y-15267500I-160000J0D01*
G01*
X8395357Y-15103214D02*
X8581071Y-15103214D01*
X8481071Y-15217500D01*
X8523928Y-15217500D01*
X8552500Y-15231786D01*
X8566786Y-15246071D01*
X8581071Y-15274643D01*
X8581071Y-15346071D01*
X8566786Y-15374643D01*
X8552500Y-15388929D01*
X8523928Y-15403214D01*
X8438214Y-15403214D01*
X8409643Y-15388929D01*
X8395357Y-15374643D01*
X8709643Y-15374643D02*
X8723928Y-15388929D01*
X8709643Y-15403214D01*
X8695357Y-15388929D01*
X8709643Y-15374643D01*
X8709643Y-15403214D01*
X8838214Y-15131786D02*
X8852500Y-15117500D01*
X8881071Y-15103214D01*
X8952500Y-15103214D01*
X8981071Y-15117500D01*
X8995357Y-15131786D01*
X9009643Y-15160357D01*
X9009643Y-15188929D01*
X8995357Y-15231786D01*
X8823928Y-15403214D01*
X9009643Y-15403214D01*
X9195357Y-15103214D02*
X9223928Y-15103214D01*
X9252500Y-15117500D01*
X9266786Y-15131786D01*
X9281071Y-15160357D01*
X9295357Y-15217500D01*
X9295357Y-15288929D01*
X9281071Y-15346071D01*
X9266786Y-15374643D01*
X9252500Y-15388929D01*
X9223928Y-15403214D01*
X9195357Y-15403214D01*
X9166786Y-15388929D01*
X9152500Y-15374643D01*
X9138214Y-15346071D01*
X9123928Y-15288929D01*
X9123928Y-15217500D01*
X9138214Y-15160357D01*
X9152500Y-15131786D01*
X9166786Y-15117500D01*
X9195357Y-15103214D01*
X9423928Y-15403214D02*
X9423928Y-15203214D01*
X9423928Y-15231786D02*
X9438214Y-15217500D01*
X9466786Y-15203214D01*
X9509643Y-15203214D01*
X9538214Y-15217500D01*
X9552500Y-15246071D01*
X9552500Y-15403214D01*
X9552500Y-15246071D02*
X9566786Y-15217500D01*
X9595357Y-15203214D01*
X9638214Y-15203214D01*
X9666786Y-15217500D01*
X9681071Y-15246071D01*
X9681071Y-15403214D01*
X9823928Y-15403214D02*
X9823928Y-15203214D01*
X9823928Y-15231786D02*
X9838214Y-15217500D01*
X9866786Y-15203214D01*
X9909643Y-15203214D01*
X9938214Y-15217500D01*
X9952500Y-15246071D01*
X9952500Y-15403214D01*
X9952500Y-15246071D02*
X9966786Y-15217500D01*
X9995357Y-15203214D01*
X10038214Y-15203214D01*
X10066786Y-15217500D01*
X10081071Y-15246071D01*
X10081071Y-15403214D01*
X10666786Y-15088929D02*
X10409643Y-15474643D01*
X11052500Y-15103214D02*
X11081071Y-15103214D01*
X11109643Y-15117500D01*
X11123928Y-15131786D01*
X11138214Y-15160357D01*
X11152500Y-15217500D01*
X11152500Y-15288929D01*
X11138214Y-15346071D01*
X11123928Y-15374643D01*
X11109643Y-15388929D01*
X11081071Y-15403214D01*
X11052500Y-15403214D01*
X11023928Y-15388929D01*
X11009643Y-15374643D01*
X10995357Y-15346071D01*
X10981071Y-15288929D01*
X10981071Y-15217500D01*
X10995357Y-15160357D01*
X11009643Y-15131786D01*
X11023928Y-15117500D01*
X11052500Y-15103214D01*
X11281071Y-15374643D02*
X11295357Y-15388929D01*
X11281071Y-15403214D01*
X11266786Y-15388929D01*
X11281071Y-15374643D01*
X11281071Y-15403214D01*
X11581071Y-15403214D02*
X11409643Y-15403214D01*
X11495357Y-15403214D02*
X11495357Y-15103214D01*
X11466786Y-15146071D01*
X11438214Y-15174643D01*
X11409643Y-15188929D01*
X11695357Y-15131786D02*
X11709643Y-15117500D01*
X11738214Y-15103214D01*
X11809643Y-15103214D01*
X11838214Y-15117500D01*
X11852500Y-15131786D01*
X11866786Y-15160357D01*
X11866786Y-15188929D01*
X11852500Y-15231786D01*
X11681071Y-15403214D01*
X11866786Y-15403214D01*
X12123928Y-15103214D02*
X12066786Y-15103214D01*
X12038214Y-15117500D01*
X12023928Y-15131786D01*
X11995357Y-15174643D01*
X11981071Y-15231786D01*
X11981071Y-15346071D01*
X11995357Y-15374643D01*
X12009643Y-15388929D01*
X12038214Y-15403214D01*
X12095357Y-15403214D01*
X12123928Y-15388929D01*
X12138214Y-15374643D01*
X12152500Y-15346071D01*
X12152500Y-15274643D01*
X12138214Y-15246071D01*
X12123928Y-15231786D01*
X12095357Y-15217500D01*
X12038214Y-15217500D01*
X12009643Y-15231786D01*
X11995357Y-15246071D01*
X11981071Y-15274643D01*
X12266786Y-15103214D02*
X12266786Y-15160357D01*
X12381071Y-15103214D02*
X12381071Y-15160357D01*
X12823928Y-15517500D02*
X12809643Y-15503214D01*
X12781071Y-15460357D01*
X12766786Y-15431786D01*
X12752500Y-15388929D01*
X12738214Y-15317500D01*
X12738214Y-15260357D01*
X12752500Y-15188929D01*
X12766786Y-15146071D01*
X12781071Y-15117500D01*
X12809643Y-15074643D01*
X12823928Y-15060357D01*
X13081071Y-15103214D02*
X12938214Y-15103214D01*
X12923928Y-15246071D01*
X12938214Y-15231786D01*
X12966786Y-15217500D01*
X13038214Y-15217500D01*
X13066786Y-15231786D01*
X13081071Y-15246071D01*
X13095357Y-15274643D01*
X13095357Y-15346071D01*
X13081071Y-15374643D01*
X13066786Y-15388929D01*
X13038214Y-15403214D01*
X12966786Y-15403214D01*
X12938214Y-15388929D01*
X12923928Y-15374643D01*
X13452500Y-15403214D02*
X13452500Y-15103214D01*
X13581071Y-15403214D02*
X13581071Y-15246071D01*
X13566786Y-15217500D01*
X13538214Y-15203214D01*
X13495357Y-15203214D01*
X13466786Y-15217500D01*
X13452500Y-15231786D01*
X13766786Y-15403214D02*
X13738214Y-15388929D01*
X13723928Y-15374643D01*
X13709643Y-15346071D01*
X13709643Y-15260357D01*
X13723928Y-15231786D01*
X13738214Y-15217500D01*
X13766786Y-15203214D01*
X13809643Y-15203214D01*
X13838214Y-15217500D01*
X13852500Y-15231786D01*
X13866786Y-15260357D01*
X13866786Y-15346071D01*
X13852500Y-15374643D01*
X13838214Y-15388929D01*
X13809643Y-15403214D01*
X13766786Y-15403214D01*
X14038214Y-15403214D02*
X14009643Y-15388929D01*
X13995357Y-15360357D01*
X13995357Y-15103214D01*
X14266786Y-15388929D02*
X14238214Y-15403214D01*
X14181071Y-15403214D01*
X14152500Y-15388929D01*
X14138214Y-15360357D01*
X14138214Y-15246071D01*
X14152500Y-15217500D01*
X14181071Y-15203214D01*
X14238214Y-15203214D01*
X14266786Y-15217500D01*
X14281071Y-15246071D01*
X14281071Y-15274643D01*
X14138214Y-15303214D01*
X14395357Y-15388929D02*
X14423928Y-15403214D01*
X14481071Y-15403214D01*
X14509643Y-15388929D01*
X14523928Y-15360357D01*
X14523928Y-15346071D01*
X14509643Y-15317500D01*
X14481071Y-15303214D01*
X14438214Y-15303214D01*
X14409643Y-15288929D01*
X14395357Y-15260357D01*
X14395357Y-15246071D01*
X14409643Y-15217500D01*
X14438214Y-15203214D01*
X14481071Y-15203214D01*
X14509643Y-15217500D01*
X14623928Y-15517500D02*
X14638214Y-15503214D01*
X14666786Y-15460357D01*
X14681071Y-15431786D01*
X14695357Y-15388929D01*
X14709643Y-15317500D01*
X14709643Y-15260357D01*
X14695357Y-15188929D01*
X14681071Y-15146071D01*
X14666786Y-15117500D01*
X14638214Y-15074643D01*
X14623928Y-15060357D01*
X15166786Y-15517500D02*
X15152500Y-15503214D01*
X15123928Y-15460357D01*
X15109643Y-15431786D01*
X15095357Y-15388929D01*
X15081071Y-15317500D01*
X15081071Y-15260357D01*
X15095357Y-15188929D01*
X15109643Y-15146071D01*
X15123928Y-15117500D01*
X15152500Y-15074643D01*
X15166786Y-15060357D01*
X15281071Y-15203214D02*
X15281071Y-15403214D01*
X15281071Y-15231786D02*
X15295357Y-15217500D01*
X15323928Y-15203214D01*
X15366786Y-15203214D01*
X15395357Y-15217500D01*
X15409643Y-15246071D01*
X15409643Y-15403214D01*
X15595357Y-15403214D02*
X15566786Y-15388929D01*
X15552500Y-15374643D01*
X15538214Y-15346071D01*
X15538214Y-15260357D01*
X15552500Y-15231786D01*
X15566786Y-15217500D01*
X15595357Y-15203214D01*
X15638214Y-15203214D01*
X15666786Y-15217500D01*
X15681071Y-15231786D01*
X15695357Y-15260357D01*
X15695357Y-15346071D01*
X15681071Y-15374643D01*
X15666786Y-15388929D01*
X15638214Y-15403214D01*
X15595357Y-15403214D01*
X15781071Y-15203214D02*
X15895357Y-15203214D01*
X15823928Y-15103214D02*
X15823928Y-15360357D01*
X15838214Y-15388929D01*
X15866786Y-15403214D01*
X15895357Y-15403214D01*
X16223928Y-15203214D02*
X16223928Y-15503214D01*
X16223928Y-15217500D02*
X16252500Y-15203214D01*
X16309643Y-15203214D01*
X16338214Y-15217500D01*
X16352500Y-15231786D01*
X16366786Y-15260357D01*
X16366786Y-15346071D01*
X16352500Y-15374643D01*
X16338214Y-15388929D01*
X16309643Y-15403214D01*
X16252500Y-15403214D01*
X16223928Y-15388929D01*
X16538214Y-15403214D02*
X16509643Y-15388929D01*
X16495357Y-15360357D01*
X16495357Y-15103214D01*
X16781071Y-15403214D02*
X16781071Y-15246071D01*
X16766786Y-15217500D01*
X16738214Y-15203214D01*
X16681071Y-15203214D01*
X16652500Y-15217500D01*
X16781071Y-15388929D02*
X16752500Y-15403214D01*
X16681071Y-15403214D01*
X16652500Y-15388929D01*
X16638214Y-15360357D01*
X16638214Y-15331786D01*
X16652500Y-15303214D01*
X16681071Y-15288929D01*
X16752500Y-15288929D01*
X16781071Y-15274643D01*
X16881071Y-15203214D02*
X16995357Y-15203214D01*
X16923928Y-15103214D02*
X16923928Y-15360357D01*
X16938214Y-15388929D01*
X16966786Y-15403214D01*
X16995357Y-15403214D01*
X17209643Y-15388929D02*
X17181071Y-15403214D01*
X17123928Y-15403214D01*
X17095357Y-15388929D01*
X17081071Y-15360357D01*
X17081071Y-15246071D01*
X17095357Y-15217500D01*
X17123928Y-15203214D01*
X17181071Y-15203214D01*
X17209643Y-15217500D01*
X17223928Y-15246071D01*
X17223928Y-15274643D01*
X17081071Y-15303214D01*
X17481071Y-15403214D02*
X17481071Y-15103214D01*
X17481071Y-15388929D02*
X17452500Y-15403214D01*
X17395357Y-15403214D01*
X17366786Y-15388929D01*
X17352500Y-15374643D01*
X17338214Y-15346071D01*
X17338214Y-15260357D01*
X17352500Y-15231786D01*
X17366786Y-15217500D01*
X17395357Y-15203214D01*
X17452500Y-15203214D01*
X17481071Y-15217500D01*
X17595357Y-15517500D02*
X17609643Y-15503214D01*
X17638214Y-15460357D01*
X17652500Y-15431786D01*
X17666786Y-15388929D01*
X17681071Y-15317500D01*
X17681071Y-15260357D01*
X17666786Y-15188929D01*
X17652500Y-15146071D01*
X17638214Y-15117500D01*
X17609643Y-15074643D01*
X17595357Y-15060357D01*
M02*
