%TF.GenerationSoftware,KiCad,Pcbnew,5.1.9+dfsg1-1~bpo10+1*%
%TF.CreationDate,2022-05-16T17:10:37+08:00*%
%TF.ProjectId,BusBoard,42757342-6f61-4726-942e-6b696361645f,rev?*%
%TF.SameCoordinates,Original*%
%TF.FileFunction,Copper,L2,Bot*%
%TF.FilePolarity,Positive*%
%FSLAX46Y46*%
G04 Gerber Fmt 4.6, Leading zero omitted, Abs format (unit mm)*
G04 Created by KiCad (PCBNEW 5.1.9+dfsg1-1~bpo10+1) date 2022-05-16 17:10:37*
%MOMM*%
%LPD*%
G01*
G04 APERTURE LIST*
%TA.AperFunction,ComponentPad*%
%ADD10R,1.800000X1.800000*%
%TD*%
%TA.AperFunction,ComponentPad*%
%ADD11C,1.800000*%
%TD*%
%TA.AperFunction,ComponentPad*%
%ADD12O,1.950000X1.700000*%
%TD*%
%TA.AperFunction,ComponentPad*%
%ADD13C,1.600000*%
%TD*%
%TA.AperFunction,ComponentPad*%
%ADD14O,1.600000X1.600000*%
%TD*%
%TA.AperFunction,ViaPad*%
%ADD15C,0.800000*%
%TD*%
%TA.AperFunction,Conductor*%
%ADD16C,0.250000*%
%TD*%
%TA.AperFunction,Conductor*%
%ADD17C,0.254000*%
%TD*%
%TA.AperFunction,Conductor*%
%ADD18C,0.100000*%
%TD*%
G04 APERTURE END LIST*
D10*
%TO.P,D1,1*%
%TO.N,Net-(D1-Pad1)*%
X143234000Y-118242000D03*
D11*
%TO.P,D1,2*%
%TO.N,5V*%
X140694000Y-118242000D03*
%TD*%
%TO.P,D2,2*%
%TO.N,POS_12V*%
X146944000Y-118242000D03*
D10*
%TO.P,D2,1*%
%TO.N,Net-(D2-Pad1)*%
X149484000Y-118242000D03*
%TD*%
%TO.P,D3,1*%
%TO.N,NEG_12V*%
X134234000Y-118242000D03*
D11*
%TO.P,D3,2*%
%TO.N,Net-(D3-Pad2)*%
X136774000Y-118242000D03*
%TD*%
%TO.P,J3,1*%
%TO.N,GATE*%
%TA.AperFunction,ComponentPad*%
G36*
G01*
X93725000Y-112850000D02*
X92275000Y-112850000D01*
G75*
G02*
X92025000Y-112600000I0J250000D01*
G01*
X92025000Y-111400000D01*
G75*
G02*
X92275000Y-111150000I250000J0D01*
G01*
X93725000Y-111150000D01*
G75*
G02*
X93975000Y-111400000I0J-250000D01*
G01*
X93975000Y-112600000D01*
G75*
G02*
X93725000Y-112850000I-250000J0D01*
G01*
G37*
%TD.AperFunction*%
D12*
%TO.P,J3,2*%
%TO.N,CV*%
X93000000Y-109500000D03*
%TO.P,J3,3*%
%TO.N,5V*%
X93000000Y-107000000D03*
%TO.P,J3,4*%
%TO.N,POS_12V*%
X93000000Y-104500000D03*
%TO.P,J3,5*%
%TO.N,GND*%
X93000000Y-102000000D03*
%TO.P,J3,6*%
%TO.N,NEG_12V*%
X93000000Y-99500000D03*
%TD*%
%TO.P,J4,6*%
%TO.N,NEG_12V*%
X104000000Y-99500000D03*
%TO.P,J4,5*%
%TO.N,GND*%
X104000000Y-102000000D03*
%TO.P,J4,4*%
%TO.N,POS_12V*%
X104000000Y-104500000D03*
%TO.P,J4,3*%
%TO.N,5V*%
X104000000Y-107000000D03*
%TO.P,J4,2*%
%TO.N,CV*%
X104000000Y-109500000D03*
%TO.P,J4,1*%
%TO.N,GATE*%
%TA.AperFunction,ComponentPad*%
G36*
G01*
X104725000Y-112850000D02*
X103275000Y-112850000D01*
G75*
G02*
X103025000Y-112600000I0J250000D01*
G01*
X103025000Y-111400000D01*
G75*
G02*
X103275000Y-111150000I250000J0D01*
G01*
X104725000Y-111150000D01*
G75*
G02*
X104975000Y-111400000I0J-250000D01*
G01*
X104975000Y-112600000D01*
G75*
G02*
X104725000Y-112850000I-250000J0D01*
G01*
G37*
%TD.AperFunction*%
%TD*%
%TO.P,J7,1*%
%TO.N,GATE*%
%TA.AperFunction,ComponentPad*%
G36*
G01*
X115725000Y-112850000D02*
X114275000Y-112850000D01*
G75*
G02*
X114025000Y-112600000I0J250000D01*
G01*
X114025000Y-111400000D01*
G75*
G02*
X114275000Y-111150000I250000J0D01*
G01*
X115725000Y-111150000D01*
G75*
G02*
X115975000Y-111400000I0J-250000D01*
G01*
X115975000Y-112600000D01*
G75*
G02*
X115725000Y-112850000I-250000J0D01*
G01*
G37*
%TD.AperFunction*%
%TO.P,J7,2*%
%TO.N,CV*%
X115000000Y-109500000D03*
%TO.P,J7,3*%
%TO.N,5V*%
X115000000Y-107000000D03*
%TO.P,J7,4*%
%TO.N,POS_12V*%
X115000000Y-104500000D03*
%TO.P,J7,5*%
%TO.N,GND*%
X115000000Y-102000000D03*
%TO.P,J7,6*%
%TO.N,NEG_12V*%
X115000000Y-99500000D03*
%TD*%
%TO.P,J10,6*%
%TO.N,NEG_12V*%
X181000000Y-99500000D03*
%TO.P,J10,5*%
%TO.N,GND*%
X181000000Y-102000000D03*
%TO.P,J10,4*%
%TO.N,POS_12V*%
X181000000Y-104500000D03*
%TO.P,J10,3*%
%TO.N,5V*%
X181000000Y-107000000D03*
%TO.P,J10,2*%
%TO.N,CV*%
X181000000Y-109500000D03*
%TO.P,J10,1*%
%TO.N,GATE*%
%TA.AperFunction,ComponentPad*%
G36*
G01*
X181725000Y-112850000D02*
X180275000Y-112850000D01*
G75*
G02*
X180025000Y-112600000I0J250000D01*
G01*
X180025000Y-111400000D01*
G75*
G02*
X180275000Y-111150000I250000J0D01*
G01*
X181725000Y-111150000D01*
G75*
G02*
X181975000Y-111400000I0J-250000D01*
G01*
X181975000Y-112600000D01*
G75*
G02*
X181725000Y-112850000I-250000J0D01*
G01*
G37*
%TD.AperFunction*%
%TD*%
%TO.P,J13,1*%
%TO.N,GATE*%
%TA.AperFunction,ComponentPad*%
G36*
G01*
X192725000Y-112850000D02*
X191275000Y-112850000D01*
G75*
G02*
X191025000Y-112600000I0J250000D01*
G01*
X191025000Y-111400000D01*
G75*
G02*
X191275000Y-111150000I250000J0D01*
G01*
X192725000Y-111150000D01*
G75*
G02*
X192975000Y-111400000I0J-250000D01*
G01*
X192975000Y-112600000D01*
G75*
G02*
X192725000Y-112850000I-250000J0D01*
G01*
G37*
%TD.AperFunction*%
%TO.P,J13,2*%
%TO.N,CV*%
X192000000Y-109500000D03*
%TO.P,J13,3*%
%TO.N,5V*%
X192000000Y-107000000D03*
%TO.P,J13,4*%
%TO.N,POS_12V*%
X192000000Y-104500000D03*
%TO.P,J13,5*%
%TO.N,GND*%
X192000000Y-102000000D03*
%TO.P,J13,6*%
%TO.N,NEG_12V*%
X192000000Y-99500000D03*
%TD*%
%TO.P,J14,6*%
%TO.N,NEG_12V*%
X203000000Y-99500000D03*
%TO.P,J14,5*%
%TO.N,GND*%
X203000000Y-102000000D03*
%TO.P,J14,4*%
%TO.N,POS_12V*%
X203000000Y-104500000D03*
%TO.P,J14,3*%
%TO.N,5V*%
X203000000Y-107000000D03*
%TO.P,J14,2*%
%TO.N,CV*%
X203000000Y-109500000D03*
%TO.P,J14,1*%
%TO.N,GATE*%
%TA.AperFunction,ComponentPad*%
G36*
G01*
X203725000Y-112850000D02*
X202275000Y-112850000D01*
G75*
G02*
X202025000Y-112600000I0J250000D01*
G01*
X202025000Y-111400000D01*
G75*
G02*
X202275000Y-111150000I250000J0D01*
G01*
X203725000Y-111150000D01*
G75*
G02*
X203975000Y-111400000I0J-250000D01*
G01*
X203975000Y-112600000D01*
G75*
G02*
X203725000Y-112850000I-250000J0D01*
G01*
G37*
%TD.AperFunction*%
%TD*%
%TO.P,J17,1*%
%TO.N,GATE*%
%TA.AperFunction,ComponentPad*%
G36*
G01*
X214725000Y-112850000D02*
X213275000Y-112850000D01*
G75*
G02*
X213025000Y-112600000I0J250000D01*
G01*
X213025000Y-111400000D01*
G75*
G02*
X213275000Y-111150000I250000J0D01*
G01*
X214725000Y-111150000D01*
G75*
G02*
X214975000Y-111400000I0J-250000D01*
G01*
X214975000Y-112600000D01*
G75*
G02*
X214725000Y-112850000I-250000J0D01*
G01*
G37*
%TD.AperFunction*%
%TO.P,J17,2*%
%TO.N,CV*%
X214000000Y-109500000D03*
%TO.P,J17,3*%
%TO.N,5V*%
X214000000Y-107000000D03*
%TO.P,J17,4*%
%TO.N,POS_12V*%
X214000000Y-104500000D03*
%TO.P,J17,5*%
%TO.N,GND*%
X214000000Y-102000000D03*
%TO.P,J17,6*%
%TO.N,NEG_12V*%
X214000000Y-99500000D03*
%TD*%
%TO.P,J18,6*%
%TO.N,NEG_12V*%
X170000000Y-99500000D03*
%TO.P,J18,5*%
%TO.N,GND*%
X170000000Y-102000000D03*
%TO.P,J18,4*%
%TO.N,POS_12V*%
X170000000Y-104500000D03*
%TO.P,J18,3*%
%TO.N,5V*%
X170000000Y-107000000D03*
%TO.P,J18,2*%
%TO.N,CV*%
X170000000Y-109500000D03*
%TO.P,J18,1*%
%TO.N,GATE*%
%TA.AperFunction,ComponentPad*%
G36*
G01*
X170725000Y-112850000D02*
X169275000Y-112850000D01*
G75*
G02*
X169025000Y-112600000I0J250000D01*
G01*
X169025000Y-111400000D01*
G75*
G02*
X169275000Y-111150000I250000J0D01*
G01*
X170725000Y-111150000D01*
G75*
G02*
X170975000Y-111400000I0J-250000D01*
G01*
X170975000Y-112600000D01*
G75*
G02*
X170725000Y-112850000I-250000J0D01*
G01*
G37*
%TD.AperFunction*%
%TD*%
%TO.P,J19,1*%
%TO.N,GATE*%
%TA.AperFunction,ComponentPad*%
G36*
G01*
X159725000Y-112850000D02*
X158275000Y-112850000D01*
G75*
G02*
X158025000Y-112600000I0J250000D01*
G01*
X158025000Y-111400000D01*
G75*
G02*
X158275000Y-111150000I250000J0D01*
G01*
X159725000Y-111150000D01*
G75*
G02*
X159975000Y-111400000I0J-250000D01*
G01*
X159975000Y-112600000D01*
G75*
G02*
X159725000Y-112850000I-250000J0D01*
G01*
G37*
%TD.AperFunction*%
%TO.P,J19,2*%
%TO.N,CV*%
X159000000Y-109500000D03*
%TO.P,J19,3*%
%TO.N,5V*%
X159000000Y-107000000D03*
%TO.P,J19,4*%
%TO.N,POS_12V*%
X159000000Y-104500000D03*
%TO.P,J19,5*%
%TO.N,GND*%
X159000000Y-102000000D03*
%TO.P,J19,6*%
%TO.N,NEG_12V*%
X159000000Y-99500000D03*
%TD*%
%TO.P,J20,6*%
%TO.N,NEG_12V*%
X225000000Y-99500000D03*
%TO.P,J20,5*%
%TO.N,GND*%
X225000000Y-102000000D03*
%TO.P,J20,4*%
%TO.N,POS_12V*%
X225000000Y-104500000D03*
%TO.P,J20,3*%
%TO.N,5V*%
X225000000Y-107000000D03*
%TO.P,J20,2*%
%TO.N,CV*%
X225000000Y-109500000D03*
%TO.P,J20,1*%
%TO.N,GATE*%
%TA.AperFunction,ComponentPad*%
G36*
G01*
X225725000Y-112850000D02*
X224275000Y-112850000D01*
G75*
G02*
X224025000Y-112600000I0J250000D01*
G01*
X224025000Y-111400000D01*
G75*
G02*
X224275000Y-111150000I250000J0D01*
G01*
X225725000Y-111150000D01*
G75*
G02*
X225975000Y-111400000I0J-250000D01*
G01*
X225975000Y-112600000D01*
G75*
G02*
X225725000Y-112850000I-250000J0D01*
G01*
G37*
%TD.AperFunction*%
%TD*%
%TO.P,J21,1*%
%TO.N,GATE*%
%TA.AperFunction,ComponentPad*%
G36*
G01*
X148725000Y-112850000D02*
X147275000Y-112850000D01*
G75*
G02*
X147025000Y-112600000I0J250000D01*
G01*
X147025000Y-111400000D01*
G75*
G02*
X147275000Y-111150000I250000J0D01*
G01*
X148725000Y-111150000D01*
G75*
G02*
X148975000Y-111400000I0J-250000D01*
G01*
X148975000Y-112600000D01*
G75*
G02*
X148725000Y-112850000I-250000J0D01*
G01*
G37*
%TD.AperFunction*%
%TO.P,J21,2*%
%TO.N,CV*%
X148000000Y-109500000D03*
%TO.P,J21,3*%
%TO.N,5V*%
X148000000Y-107000000D03*
%TO.P,J21,4*%
%TO.N,POS_12V*%
X148000000Y-104500000D03*
%TO.P,J21,5*%
%TO.N,GND*%
X148000000Y-102000000D03*
%TO.P,J21,6*%
%TO.N,NEG_12V*%
X148000000Y-99500000D03*
%TD*%
%TO.P,J22,6*%
%TO.N,NEG_12V*%
X126000000Y-99500000D03*
%TO.P,J22,5*%
%TO.N,GND*%
X126000000Y-102000000D03*
%TO.P,J22,4*%
%TO.N,POS_12V*%
X126000000Y-104500000D03*
%TO.P,J22,3*%
%TO.N,5V*%
X126000000Y-107000000D03*
%TO.P,J22,2*%
%TO.N,CV*%
X126000000Y-109500000D03*
%TO.P,J22,1*%
%TO.N,GATE*%
%TA.AperFunction,ComponentPad*%
G36*
G01*
X126725000Y-112850000D02*
X125275000Y-112850000D01*
G75*
G02*
X125025000Y-112600000I0J250000D01*
G01*
X125025000Y-111400000D01*
G75*
G02*
X125275000Y-111150000I250000J0D01*
G01*
X126725000Y-111150000D01*
G75*
G02*
X126975000Y-111400000I0J-250000D01*
G01*
X126975000Y-112600000D01*
G75*
G02*
X126725000Y-112850000I-250000J0D01*
G01*
G37*
%TD.AperFunction*%
%TD*%
%TO.P,J23,1*%
%TO.N,GATE*%
%TA.AperFunction,ComponentPad*%
G36*
G01*
X137725000Y-112850000D02*
X136275000Y-112850000D01*
G75*
G02*
X136025000Y-112600000I0J250000D01*
G01*
X136025000Y-111400000D01*
G75*
G02*
X136275000Y-111150000I250000J0D01*
G01*
X137725000Y-111150000D01*
G75*
G02*
X137975000Y-111400000I0J-250000D01*
G01*
X137975000Y-112600000D01*
G75*
G02*
X137725000Y-112850000I-250000J0D01*
G01*
G37*
%TD.AperFunction*%
%TO.P,J23,2*%
%TO.N,CV*%
X137000000Y-109500000D03*
%TO.P,J23,3*%
%TO.N,5V*%
X137000000Y-107000000D03*
%TO.P,J23,4*%
%TO.N,POS_12V*%
X137000000Y-104500000D03*
%TO.P,J23,5*%
%TO.N,GND*%
X137000000Y-102000000D03*
%TO.P,J23,6*%
%TO.N,NEG_12V*%
X137000000Y-99500000D03*
%TD*%
D13*
%TO.P,R1,1*%
%TO.N,GND*%
X171196000Y-117856000D03*
D14*
%TO.P,R1,2*%
%TO.N,Net-(D1-Pad1)*%
X163576000Y-117856000D03*
%TD*%
%TO.P,R2,2*%
%TO.N,Net-(D2-Pad1)*%
X163576000Y-120904000D03*
D13*
%TO.P,R2,1*%
%TO.N,GND*%
X171196000Y-120904000D03*
%TD*%
D14*
%TO.P,R3,2*%
%TO.N,Net-(D3-Pad2)*%
X175768000Y-117856000D03*
D13*
%TO.P,R3,1*%
%TO.N,GND*%
X183388000Y-117856000D03*
%TD*%
%TO.P,J1,1*%
%TO.N,5V*%
%TA.AperFunction,ComponentPad*%
G36*
G01*
X85749999Y-110450000D02*
X87550001Y-110450000D01*
G75*
G02*
X87800000Y-110699999I0J-249999D01*
G01*
X87800000Y-112500001D01*
G75*
G02*
X87550001Y-112750000I-249999J0D01*
G01*
X85749999Y-112750000D01*
G75*
G02*
X85500000Y-112500001I0J249999D01*
G01*
X85500000Y-110699999D01*
G75*
G02*
X85749999Y-110450000I249999J0D01*
G01*
G37*
%TD.AperFunction*%
%TD*%
%TO.P,J2,1*%
%TO.N,5V*%
%TA.AperFunction,ComponentPad*%
G36*
G01*
X231099999Y-110550000D02*
X232900001Y-110550000D01*
G75*
G02*
X233150000Y-110799999I0J-249999D01*
G01*
X233150000Y-112600001D01*
G75*
G02*
X232900001Y-112850000I-249999J0D01*
G01*
X231099999Y-112850000D01*
G75*
G02*
X230850000Y-112600001I0J249999D01*
G01*
X230850000Y-110799999D01*
G75*
G02*
X231099999Y-110550000I249999J0D01*
G01*
G37*
%TD.AperFunction*%
%TD*%
%TO.P,J5,1*%
%TO.N,GATE*%
%TA.AperFunction,ComponentPad*%
G36*
G01*
X85699999Y-119210000D02*
X87500001Y-119210000D01*
G75*
G02*
X87750000Y-119459999I0J-249999D01*
G01*
X87750000Y-121260001D01*
G75*
G02*
X87500001Y-121510000I-249999J0D01*
G01*
X85699999Y-121510000D01*
G75*
G02*
X85450000Y-121260001I0J249999D01*
G01*
X85450000Y-119459999D01*
G75*
G02*
X85699999Y-119210000I249999J0D01*
G01*
G37*
%TD.AperFunction*%
%TD*%
%TO.P,J6,1*%
%TO.N,GATE*%
%TA.AperFunction,ComponentPad*%
G36*
G01*
X231099999Y-119250000D02*
X232900001Y-119250000D01*
G75*
G02*
X233150000Y-119499999I0J-249999D01*
G01*
X233150000Y-121300001D01*
G75*
G02*
X232900001Y-121550000I-249999J0D01*
G01*
X231099999Y-121550000D01*
G75*
G02*
X230850000Y-121300001I0J249999D01*
G01*
X230850000Y-119499999D01*
G75*
G02*
X231099999Y-119250000I249999J0D01*
G01*
G37*
%TD.AperFunction*%
%TD*%
%TO.P,J8,1*%
%TO.N,POS_12V*%
%TA.AperFunction,ComponentPad*%
G36*
G01*
X85749999Y-106050000D02*
X87550001Y-106050000D01*
G75*
G02*
X87800000Y-106299999I0J-249999D01*
G01*
X87800000Y-108100001D01*
G75*
G02*
X87550001Y-108350000I-249999J0D01*
G01*
X85749999Y-108350000D01*
G75*
G02*
X85500000Y-108100001I0J249999D01*
G01*
X85500000Y-106299999D01*
G75*
G02*
X85749999Y-106050000I249999J0D01*
G01*
G37*
%TD.AperFunction*%
%TD*%
%TO.P,J9,1*%
%TO.N,POS_12V*%
%TA.AperFunction,ComponentPad*%
G36*
G01*
X231099999Y-106150000D02*
X232900001Y-106150000D01*
G75*
G02*
X233150000Y-106399999I0J-249999D01*
G01*
X233150000Y-108200001D01*
G75*
G02*
X232900001Y-108450000I-249999J0D01*
G01*
X231099999Y-108450000D01*
G75*
G02*
X230850000Y-108200001I0J249999D01*
G01*
X230850000Y-106399999D01*
G75*
G02*
X231099999Y-106150000I249999J0D01*
G01*
G37*
%TD.AperFunction*%
%TD*%
%TO.P,J11,1*%
%TO.N,CV*%
%TA.AperFunction,ComponentPad*%
G36*
G01*
X87500001Y-117150000D02*
X85699999Y-117150000D01*
G75*
G02*
X85450000Y-116900001I0J249999D01*
G01*
X85450000Y-115099999D01*
G75*
G02*
X85699999Y-114850000I249999J0D01*
G01*
X87500001Y-114850000D01*
G75*
G02*
X87750000Y-115099999I0J-249999D01*
G01*
X87750000Y-116900001D01*
G75*
G02*
X87500001Y-117150000I-249999J0D01*
G01*
G37*
%TD.AperFunction*%
%TD*%
%TO.P,J12,1*%
%TO.N,CV*%
%TA.AperFunction,ComponentPad*%
G36*
G01*
X231099999Y-114950000D02*
X232900001Y-114950000D01*
G75*
G02*
X233150000Y-115199999I0J-249999D01*
G01*
X233150000Y-117000001D01*
G75*
G02*
X232900001Y-117250000I-249999J0D01*
G01*
X231099999Y-117250000D01*
G75*
G02*
X230850000Y-117000001I0J249999D01*
G01*
X230850000Y-115199999D01*
G75*
G02*
X231099999Y-114950000I249999J0D01*
G01*
G37*
%TD.AperFunction*%
%TD*%
%TO.P,J15,1*%
%TO.N,NEG_12V*%
%TA.AperFunction,ComponentPad*%
G36*
G01*
X85749999Y-97350000D02*
X87550001Y-97350000D01*
G75*
G02*
X87800000Y-97599999I0J-249999D01*
G01*
X87800000Y-99400001D01*
G75*
G02*
X87550001Y-99650000I-249999J0D01*
G01*
X85749999Y-99650000D01*
G75*
G02*
X85500000Y-99400001I0J249999D01*
G01*
X85500000Y-97599999D01*
G75*
G02*
X85749999Y-97350000I249999J0D01*
G01*
G37*
%TD.AperFunction*%
%TD*%
%TO.P,J16,1*%
%TO.N,NEG_12V*%
%TA.AperFunction,ComponentPad*%
G36*
G01*
X231099999Y-97350000D02*
X232900001Y-97350000D01*
G75*
G02*
X233150000Y-97599999I0J-249999D01*
G01*
X233150000Y-99400001D01*
G75*
G02*
X232900001Y-99650000I-249999J0D01*
G01*
X231099999Y-99650000D01*
G75*
G02*
X230850000Y-99400001I0J249999D01*
G01*
X230850000Y-97599999D01*
G75*
G02*
X231099999Y-97350000I249999J0D01*
G01*
G37*
%TD.AperFunction*%
%TD*%
%TO.P,J24,1*%
%TO.N,GND*%
%TA.AperFunction,ComponentPad*%
G36*
G01*
X85749999Y-101650000D02*
X87550001Y-101650000D01*
G75*
G02*
X87800000Y-101899999I0J-249999D01*
G01*
X87800000Y-103700001D01*
G75*
G02*
X87550001Y-103950000I-249999J0D01*
G01*
X85749999Y-103950000D01*
G75*
G02*
X85500000Y-103700001I0J249999D01*
G01*
X85500000Y-101899999D01*
G75*
G02*
X85749999Y-101650000I249999J0D01*
G01*
G37*
%TD.AperFunction*%
%TD*%
%TO.P,J25,1*%
%TO.N,GND*%
%TA.AperFunction,ComponentPad*%
G36*
G01*
X231099999Y-101750000D02*
X232900001Y-101750000D01*
G75*
G02*
X233150000Y-101999999I0J-249999D01*
G01*
X233150000Y-103800001D01*
G75*
G02*
X232900001Y-104050000I-249999J0D01*
G01*
X231099999Y-104050000D01*
G75*
G02*
X230850000Y-103800001I0J249999D01*
G01*
X230850000Y-101999999D01*
G75*
G02*
X231099999Y-101750000I249999J0D01*
G01*
G37*
%TD.AperFunction*%
%TD*%
D15*
%TO.N,GND*%
X109220000Y-101092000D03*
X110744000Y-103124000D03*
X110744000Y-105664000D03*
X109220000Y-108204000D03*
X110236000Y-110744000D03*
X98044000Y-101092000D03*
X99568000Y-103124000D03*
X98552000Y-105664000D03*
X100076000Y-108204000D03*
X98044000Y-110744000D03*
X98552000Y-114808000D03*
X98552000Y-118872000D03*
X100076000Y-120396000D03*
X110744000Y-120396000D03*
X109728000Y-115824000D03*
X118872000Y-116332000D03*
X117856000Y-120396000D03*
X119888000Y-120396000D03*
X120904000Y-118364000D03*
X121920000Y-113792000D03*
X120904000Y-105664000D03*
X122428000Y-108204000D03*
X120396000Y-103124000D03*
X121920000Y-101600000D03*
X131064000Y-103124000D03*
X133096000Y-102616000D03*
X131572000Y-101092000D03*
X132588000Y-105664000D03*
X131064000Y-108204000D03*
X132588000Y-110744000D03*
X131572000Y-114808000D03*
X131064000Y-118364000D03*
X132080000Y-121412000D03*
X152908000Y-116840000D03*
X151892000Y-119888000D03*
X153924000Y-121412000D03*
X144780000Y-121412000D03*
X138684000Y-121920000D03*
X138684000Y-119380000D03*
X143256000Y-113284000D03*
X142240000Y-110744000D03*
X144272000Y-108204000D03*
X142240000Y-105664000D03*
X143764000Y-102616000D03*
X142748000Y-101092000D03*
X152908000Y-100584000D03*
X154940000Y-101600000D03*
X153416000Y-102616000D03*
X154940000Y-96520000D03*
X153416000Y-98044000D03*
X142748000Y-98044000D03*
X142240000Y-97028000D03*
X131572000Y-97536000D03*
X133096000Y-97028000D03*
X119380000Y-98044000D03*
X121920000Y-97536000D03*
X110744000Y-98044000D03*
X109220000Y-97536000D03*
X100076000Y-97536000D03*
X98044000Y-97536000D03*
X165608000Y-108204000D03*
X152908000Y-108204000D03*
X154940000Y-105664000D03*
X154940000Y-113284000D03*
X166624000Y-102108000D03*
X164592000Y-103124000D03*
X163576000Y-101092000D03*
X175768000Y-101092000D03*
X176276000Y-102108000D03*
X177800000Y-103124000D03*
X176276000Y-105664000D03*
X174752000Y-108204000D03*
X177292000Y-108204000D03*
X176784000Y-110744000D03*
X175768000Y-113284000D03*
X176784000Y-115316000D03*
X164592000Y-114300000D03*
X166116000Y-115316000D03*
X167640000Y-118364000D03*
X167640000Y-120904000D03*
X177292000Y-120904000D03*
X182372000Y-120396000D03*
X174244000Y-121920000D03*
X174244000Y-120396000D03*
X179324000Y-117856000D03*
X181864000Y-115316000D03*
X186944000Y-115316000D03*
X186944000Y-113792000D03*
X184912000Y-119888000D03*
X186436000Y-110744000D03*
X188468000Y-108204000D03*
X185928000Y-105664000D03*
X187960000Y-102616000D03*
X186436000Y-101092000D03*
X197612000Y-101092000D03*
X199644000Y-102108000D03*
X195072000Y-103124000D03*
X197104000Y-105664000D03*
X199644000Y-108204000D03*
X198120000Y-110744000D03*
X196596000Y-114808000D03*
X200152000Y-114808000D03*
X195072000Y-120396000D03*
X208280000Y-113792000D03*
X207772000Y-116840000D03*
X203708000Y-118872000D03*
X215900000Y-119888000D03*
X218440000Y-116840000D03*
X207772000Y-119888000D03*
X200152000Y-120904000D03*
X213360000Y-115824000D03*
X221488000Y-113792000D03*
X218948000Y-114300000D03*
X207772000Y-110744000D03*
X209296000Y-108204000D03*
X209296000Y-105664000D03*
X209296000Y-102616000D03*
X211328000Y-103124000D03*
X207772000Y-100584000D03*
X216408000Y-101600000D03*
X218948000Y-101600000D03*
X219964000Y-103124000D03*
X221488000Y-101600000D03*
X220980000Y-105664000D03*
X218948000Y-108204000D03*
X220980000Y-110744000D03*
X227076000Y-115316000D03*
X227076000Y-118364000D03*
X229108000Y-120396000D03*
X227076000Y-121920000D03*
X228600000Y-102108000D03*
X229108000Y-104648000D03*
X234696000Y-100076000D03*
X235204000Y-103632000D03*
X234188000Y-107188000D03*
X235204000Y-111252000D03*
X235204000Y-113792000D03*
X234696000Y-116840000D03*
X235204000Y-118872000D03*
X225552000Y-97536000D03*
X209804000Y-98044000D03*
X207772000Y-97028000D03*
X199136000Y-97028000D03*
X197612000Y-98044000D03*
X187960000Y-98044000D03*
X186436000Y-97028000D03*
X175768000Y-98044000D03*
X163576000Y-97536000D03*
X167132000Y-97028000D03*
X100076000Y-101092000D03*
X220345000Y-97155000D03*
%TD*%
D16*
%TO.N,5V*%
X134689011Y-109310989D02*
X134689011Y-114369011D01*
X134689011Y-114369011D02*
X138562000Y-118242000D01*
X138562000Y-118242000D02*
X139421208Y-118242000D01*
X139421208Y-118242000D02*
X140694000Y-118242000D01*
X137000000Y-107000000D02*
X134689011Y-109310989D01*
%TO.N,POS_12V*%
X146044001Y-117342001D02*
X146944000Y-118242000D01*
X148000000Y-104500000D02*
X146044001Y-106455999D01*
X146044001Y-106455999D02*
X146044001Y-117342001D01*
%TO.N,NEG_12V*%
X134234000Y-118242000D02*
X134234000Y-117600000D01*
X134239000Y-118237000D02*
X134234000Y-118242000D01*
X134239000Y-102235000D02*
X134239000Y-118237000D01*
X137000000Y-99500000D02*
X136974000Y-99500000D01*
X136974000Y-99500000D02*
X134239000Y-102235000D01*
%TD*%
D17*
%TO.N,GND*%
X235840000Y-122590000D02*
X82127000Y-122590000D01*
X82127000Y-119459999D01*
X84811928Y-119459999D01*
X84811928Y-121260001D01*
X84828992Y-121433255D01*
X84879528Y-121599851D01*
X84961595Y-121753387D01*
X85072038Y-121887962D01*
X85206613Y-121998405D01*
X85360149Y-122080472D01*
X85526745Y-122131008D01*
X85699999Y-122148072D01*
X87500001Y-122148072D01*
X87673255Y-122131008D01*
X87839851Y-122080472D01*
X87993387Y-121998405D01*
X88127962Y-121887962D01*
X88238405Y-121753387D01*
X88320472Y-121599851D01*
X88371008Y-121433255D01*
X88388072Y-121260001D01*
X88388072Y-119459999D01*
X88371008Y-119286745D01*
X88320472Y-119120149D01*
X88238405Y-118966613D01*
X88127962Y-118832038D01*
X87993387Y-118721595D01*
X87862945Y-118651872D01*
X91745000Y-118651872D01*
X91745000Y-119092128D01*
X91830890Y-119523925D01*
X91999369Y-119930669D01*
X92243962Y-120296729D01*
X92555271Y-120608038D01*
X92921331Y-120852631D01*
X93328075Y-121021110D01*
X93759872Y-121107000D01*
X94200128Y-121107000D01*
X94631925Y-121021110D01*
X95038669Y-120852631D01*
X95404729Y-120608038D01*
X95716038Y-120296729D01*
X95960631Y-119930669D01*
X96129110Y-119523925D01*
X96215000Y-119092128D01*
X96215000Y-118651872D01*
X123749000Y-118651872D01*
X123749000Y-119092128D01*
X123834890Y-119523925D01*
X124003369Y-119930669D01*
X124247962Y-120296729D01*
X124559271Y-120608038D01*
X124925331Y-120852631D01*
X125332075Y-121021110D01*
X125763872Y-121107000D01*
X126204128Y-121107000D01*
X126635925Y-121021110D01*
X127042669Y-120852631D01*
X127408729Y-120608038D01*
X127720038Y-120296729D01*
X127964631Y-119930669D01*
X128133110Y-119523925D01*
X128219000Y-119092128D01*
X128219000Y-118651872D01*
X128133110Y-118220075D01*
X127964631Y-117813331D01*
X127720038Y-117447271D01*
X127614767Y-117342000D01*
X132695928Y-117342000D01*
X132695928Y-119142000D01*
X132708188Y-119266482D01*
X132744498Y-119386180D01*
X132803463Y-119496494D01*
X132882815Y-119593185D01*
X132979506Y-119672537D01*
X133089820Y-119731502D01*
X133209518Y-119767812D01*
X133334000Y-119780072D01*
X135134000Y-119780072D01*
X135258482Y-119767812D01*
X135378180Y-119731502D01*
X135488494Y-119672537D01*
X135585185Y-119593185D01*
X135664537Y-119496494D01*
X135723502Y-119386180D01*
X135729056Y-119367873D01*
X135795495Y-119434312D01*
X136046905Y-119602299D01*
X136326257Y-119718011D01*
X136622816Y-119777000D01*
X136925184Y-119777000D01*
X137221743Y-119718011D01*
X137501095Y-119602299D01*
X137752505Y-119434312D01*
X137966312Y-119220505D01*
X138134299Y-118969095D01*
X138166161Y-118892174D01*
X138269753Y-118947546D01*
X138413014Y-118991003D01*
X138562000Y-119005677D01*
X138599333Y-119002000D01*
X139355687Y-119002000D01*
X139501688Y-119220505D01*
X139715495Y-119434312D01*
X139966905Y-119602299D01*
X140246257Y-119718011D01*
X140542816Y-119777000D01*
X140845184Y-119777000D01*
X141141743Y-119718011D01*
X141421095Y-119602299D01*
X141672505Y-119434312D01*
X141738944Y-119367873D01*
X141744498Y-119386180D01*
X141803463Y-119496494D01*
X141882815Y-119593185D01*
X141979506Y-119672537D01*
X142089820Y-119731502D01*
X142209518Y-119767812D01*
X142334000Y-119780072D01*
X144134000Y-119780072D01*
X144258482Y-119767812D01*
X144378180Y-119731502D01*
X144488494Y-119672537D01*
X144585185Y-119593185D01*
X144664537Y-119496494D01*
X144723502Y-119386180D01*
X144759812Y-119266482D01*
X144772072Y-119142000D01*
X144772072Y-117342000D01*
X144759812Y-117217518D01*
X144723502Y-117097820D01*
X144664537Y-116987506D01*
X144585185Y-116890815D01*
X144488494Y-116811463D01*
X144378180Y-116752498D01*
X144258482Y-116716188D01*
X144134000Y-116703928D01*
X142334000Y-116703928D01*
X142209518Y-116716188D01*
X142089820Y-116752498D01*
X141979506Y-116811463D01*
X141882815Y-116890815D01*
X141803463Y-116987506D01*
X141744498Y-117097820D01*
X141738944Y-117116127D01*
X141672505Y-117049688D01*
X141421095Y-116881701D01*
X141141743Y-116765989D01*
X140845184Y-116707000D01*
X140542816Y-116707000D01*
X140246257Y-116765989D01*
X139966905Y-116881701D01*
X139715495Y-117049688D01*
X139501688Y-117263495D01*
X139355687Y-117482000D01*
X138876802Y-117482000D01*
X135449011Y-114054210D01*
X135449011Y-112921663D01*
X135454528Y-112939850D01*
X135536595Y-113093386D01*
X135647038Y-113227962D01*
X135781614Y-113338405D01*
X135935150Y-113420472D01*
X136101746Y-113471008D01*
X136275000Y-113488072D01*
X137725000Y-113488072D01*
X137898254Y-113471008D01*
X138064850Y-113420472D01*
X138218386Y-113338405D01*
X138352962Y-113227962D01*
X138463405Y-113093386D01*
X138545472Y-112939850D01*
X138596008Y-112773254D01*
X138613072Y-112600000D01*
X138613072Y-111400000D01*
X138596008Y-111226746D01*
X138545472Y-111060150D01*
X138463405Y-110906614D01*
X138352962Y-110772038D01*
X138218386Y-110661595D01*
X138116663Y-110607223D01*
X138180134Y-110555134D01*
X138365706Y-110329014D01*
X138503599Y-110071034D01*
X138588513Y-109791111D01*
X138617185Y-109500000D01*
X138588513Y-109208889D01*
X138503599Y-108928966D01*
X138365706Y-108670986D01*
X138180134Y-108444866D01*
X137954014Y-108259294D01*
X137936626Y-108250000D01*
X137954014Y-108240706D01*
X138180134Y-108055134D01*
X138365706Y-107829014D01*
X138503599Y-107571034D01*
X138588513Y-107291111D01*
X138617185Y-107000000D01*
X138588513Y-106708889D01*
X138511800Y-106455999D01*
X145280325Y-106455999D01*
X145284001Y-106493321D01*
X145284002Y-117304669D01*
X145280325Y-117342001D01*
X145294999Y-117490986D01*
X145338455Y-117634247D01*
X145409027Y-117766277D01*
X145460966Y-117829564D01*
X145409000Y-118090816D01*
X145409000Y-118393184D01*
X145467989Y-118689743D01*
X145583701Y-118969095D01*
X145751688Y-119220505D01*
X145965495Y-119434312D01*
X146216905Y-119602299D01*
X146496257Y-119718011D01*
X146792816Y-119777000D01*
X147095184Y-119777000D01*
X147391743Y-119718011D01*
X147671095Y-119602299D01*
X147922505Y-119434312D01*
X147988944Y-119367873D01*
X147994498Y-119386180D01*
X148053463Y-119496494D01*
X148132815Y-119593185D01*
X148229506Y-119672537D01*
X148339820Y-119731502D01*
X148459518Y-119767812D01*
X148584000Y-119780072D01*
X150384000Y-119780072D01*
X150508482Y-119767812D01*
X150628180Y-119731502D01*
X150738494Y-119672537D01*
X150835185Y-119593185D01*
X150914537Y-119496494D01*
X150973502Y-119386180D01*
X151009812Y-119266482D01*
X151022072Y-119142000D01*
X151022072Y-118651872D01*
X155753000Y-118651872D01*
X155753000Y-119092128D01*
X155838890Y-119523925D01*
X156007369Y-119930669D01*
X156251962Y-120296729D01*
X156563271Y-120608038D01*
X156929331Y-120852631D01*
X157336075Y-121021110D01*
X157767872Y-121107000D01*
X158208128Y-121107000D01*
X158639925Y-121021110D01*
X159046669Y-120852631D01*
X159181312Y-120762665D01*
X162141000Y-120762665D01*
X162141000Y-121045335D01*
X162196147Y-121322574D01*
X162304320Y-121583727D01*
X162461363Y-121818759D01*
X162661241Y-122018637D01*
X162896273Y-122175680D01*
X163157426Y-122283853D01*
X163434665Y-122339000D01*
X163717335Y-122339000D01*
X163994574Y-122283853D01*
X164255727Y-122175680D01*
X164490759Y-122018637D01*
X164612694Y-121896702D01*
X170382903Y-121896702D01*
X170454486Y-122140671D01*
X170709996Y-122261571D01*
X170984184Y-122330300D01*
X171266512Y-122344217D01*
X171546130Y-122302787D01*
X171812292Y-122207603D01*
X171937514Y-122140671D01*
X172009097Y-121896702D01*
X171196000Y-121083605D01*
X170382903Y-121896702D01*
X164612694Y-121896702D01*
X164690637Y-121818759D01*
X164847680Y-121583727D01*
X164955853Y-121322574D01*
X165011000Y-121045335D01*
X165011000Y-120974512D01*
X169755783Y-120974512D01*
X169797213Y-121254130D01*
X169892397Y-121520292D01*
X169959329Y-121645514D01*
X170203298Y-121717097D01*
X171016395Y-120904000D01*
X171375605Y-120904000D01*
X172188702Y-121717097D01*
X172432671Y-121645514D01*
X172553571Y-121390004D01*
X172622300Y-121115816D01*
X172636217Y-120833488D01*
X172594787Y-120553870D01*
X172499603Y-120287708D01*
X172432671Y-120162486D01*
X172188702Y-120090903D01*
X171375605Y-120904000D01*
X171016395Y-120904000D01*
X170203298Y-120090903D01*
X169959329Y-120162486D01*
X169838429Y-120417996D01*
X169769700Y-120692184D01*
X169755783Y-120974512D01*
X165011000Y-120974512D01*
X165011000Y-120762665D01*
X164955853Y-120485426D01*
X164847680Y-120224273D01*
X164690637Y-119989241D01*
X164612694Y-119911298D01*
X170382903Y-119911298D01*
X171196000Y-120724395D01*
X172009097Y-119911298D01*
X171937514Y-119667329D01*
X171682004Y-119546429D01*
X171407816Y-119477700D01*
X171125488Y-119463783D01*
X170845870Y-119505213D01*
X170579708Y-119600397D01*
X170454486Y-119667329D01*
X170382903Y-119911298D01*
X164612694Y-119911298D01*
X164490759Y-119789363D01*
X164255727Y-119632320D01*
X163994574Y-119524147D01*
X163717335Y-119469000D01*
X163434665Y-119469000D01*
X163157426Y-119524147D01*
X162896273Y-119632320D01*
X162661241Y-119789363D01*
X162461363Y-119989241D01*
X162304320Y-120224273D01*
X162196147Y-120485426D01*
X162141000Y-120762665D01*
X159181312Y-120762665D01*
X159412729Y-120608038D01*
X159724038Y-120296729D01*
X159968631Y-119930669D01*
X160137110Y-119523925D01*
X160223000Y-119092128D01*
X160223000Y-118651872D01*
X160137110Y-118220075D01*
X159968631Y-117813331D01*
X159902705Y-117714665D01*
X162141000Y-117714665D01*
X162141000Y-117997335D01*
X162196147Y-118274574D01*
X162304320Y-118535727D01*
X162461363Y-118770759D01*
X162661241Y-118970637D01*
X162896273Y-119127680D01*
X163157426Y-119235853D01*
X163434665Y-119291000D01*
X163717335Y-119291000D01*
X163994574Y-119235853D01*
X164255727Y-119127680D01*
X164490759Y-118970637D01*
X164612694Y-118848702D01*
X170382903Y-118848702D01*
X170454486Y-119092671D01*
X170709996Y-119213571D01*
X170984184Y-119282300D01*
X171266512Y-119296217D01*
X171546130Y-119254787D01*
X171812292Y-119159603D01*
X171937514Y-119092671D01*
X172009097Y-118848702D01*
X171196000Y-118035605D01*
X170382903Y-118848702D01*
X164612694Y-118848702D01*
X164690637Y-118770759D01*
X164847680Y-118535727D01*
X164955853Y-118274574D01*
X165011000Y-117997335D01*
X165011000Y-117926512D01*
X169755783Y-117926512D01*
X169797213Y-118206130D01*
X169892397Y-118472292D01*
X169959329Y-118597514D01*
X170203298Y-118669097D01*
X171016395Y-117856000D01*
X171375605Y-117856000D01*
X172188702Y-118669097D01*
X172432671Y-118597514D01*
X172553571Y-118342004D01*
X172622300Y-118067816D01*
X172636217Y-117785488D01*
X172625724Y-117714665D01*
X174333000Y-117714665D01*
X174333000Y-117997335D01*
X174388147Y-118274574D01*
X174496320Y-118535727D01*
X174653363Y-118770759D01*
X174853241Y-118970637D01*
X175088273Y-119127680D01*
X175349426Y-119235853D01*
X175626665Y-119291000D01*
X175909335Y-119291000D01*
X176186574Y-119235853D01*
X176447727Y-119127680D01*
X176682759Y-118970637D01*
X176804694Y-118848702D01*
X182574903Y-118848702D01*
X182646486Y-119092671D01*
X182901996Y-119213571D01*
X183176184Y-119282300D01*
X183458512Y-119296217D01*
X183738130Y-119254787D01*
X184004292Y-119159603D01*
X184129514Y-119092671D01*
X184201097Y-118848702D01*
X183388000Y-118035605D01*
X182574903Y-118848702D01*
X176804694Y-118848702D01*
X176882637Y-118770759D01*
X177039680Y-118535727D01*
X177147853Y-118274574D01*
X177203000Y-117997335D01*
X177203000Y-117926512D01*
X181947783Y-117926512D01*
X181989213Y-118206130D01*
X182084397Y-118472292D01*
X182151329Y-118597514D01*
X182395298Y-118669097D01*
X183208395Y-117856000D01*
X183567605Y-117856000D01*
X184380702Y-118669097D01*
X184439408Y-118651872D01*
X187757000Y-118651872D01*
X187757000Y-119092128D01*
X187842890Y-119523925D01*
X188011369Y-119930669D01*
X188255962Y-120296729D01*
X188567271Y-120608038D01*
X188933331Y-120852631D01*
X189340075Y-121021110D01*
X189771872Y-121107000D01*
X190212128Y-121107000D01*
X190643925Y-121021110D01*
X191050669Y-120852631D01*
X191416729Y-120608038D01*
X191728038Y-120296729D01*
X191972631Y-119930669D01*
X192141110Y-119523925D01*
X192227000Y-119092128D01*
X192227000Y-118651872D01*
X220777000Y-118651872D01*
X220777000Y-119092128D01*
X220862890Y-119523925D01*
X221031369Y-119930669D01*
X221275962Y-120296729D01*
X221587271Y-120608038D01*
X221953331Y-120852631D01*
X222360075Y-121021110D01*
X222791872Y-121107000D01*
X223232128Y-121107000D01*
X223663925Y-121021110D01*
X224070669Y-120852631D01*
X224436729Y-120608038D01*
X224748038Y-120296729D01*
X224992631Y-119930669D01*
X225161110Y-119523925D01*
X225165869Y-119499999D01*
X230211928Y-119499999D01*
X230211928Y-121300001D01*
X230228992Y-121473255D01*
X230279528Y-121639851D01*
X230361595Y-121793387D01*
X230472038Y-121927962D01*
X230606613Y-122038405D01*
X230760149Y-122120472D01*
X230926745Y-122171008D01*
X231099999Y-122188072D01*
X232900001Y-122188072D01*
X233073255Y-122171008D01*
X233239851Y-122120472D01*
X233393387Y-122038405D01*
X233527962Y-121927962D01*
X233638405Y-121793387D01*
X233720472Y-121639851D01*
X233771008Y-121473255D01*
X233788072Y-121300001D01*
X233788072Y-119499999D01*
X233771008Y-119326745D01*
X233720472Y-119160149D01*
X233638405Y-119006613D01*
X233527962Y-118872038D01*
X233393387Y-118761595D01*
X233239851Y-118679528D01*
X233073255Y-118628992D01*
X232900001Y-118611928D01*
X231099999Y-118611928D01*
X230926745Y-118628992D01*
X230760149Y-118679528D01*
X230606613Y-118761595D01*
X230472038Y-118872038D01*
X230361595Y-119006613D01*
X230279528Y-119160149D01*
X230228992Y-119326745D01*
X230211928Y-119499999D01*
X225165869Y-119499999D01*
X225247000Y-119092128D01*
X225247000Y-118651872D01*
X225161110Y-118220075D01*
X224992631Y-117813331D01*
X224748038Y-117447271D01*
X224436729Y-117135962D01*
X224070669Y-116891369D01*
X223663925Y-116722890D01*
X223232128Y-116637000D01*
X222791872Y-116637000D01*
X222360075Y-116722890D01*
X221953331Y-116891369D01*
X221587271Y-117135962D01*
X221275962Y-117447271D01*
X221031369Y-117813331D01*
X220862890Y-118220075D01*
X220777000Y-118651872D01*
X192227000Y-118651872D01*
X192141110Y-118220075D01*
X191972631Y-117813331D01*
X191728038Y-117447271D01*
X191416729Y-117135962D01*
X191050669Y-116891369D01*
X190643925Y-116722890D01*
X190212128Y-116637000D01*
X189771872Y-116637000D01*
X189340075Y-116722890D01*
X188933331Y-116891369D01*
X188567271Y-117135962D01*
X188255962Y-117447271D01*
X188011369Y-117813331D01*
X187842890Y-118220075D01*
X187757000Y-118651872D01*
X184439408Y-118651872D01*
X184624671Y-118597514D01*
X184745571Y-118342004D01*
X184814300Y-118067816D01*
X184828217Y-117785488D01*
X184786787Y-117505870D01*
X184691603Y-117239708D01*
X184624671Y-117114486D01*
X184380702Y-117042903D01*
X183567605Y-117856000D01*
X183208395Y-117856000D01*
X182395298Y-117042903D01*
X182151329Y-117114486D01*
X182030429Y-117369996D01*
X181961700Y-117644184D01*
X181947783Y-117926512D01*
X177203000Y-117926512D01*
X177203000Y-117714665D01*
X177147853Y-117437426D01*
X177039680Y-117176273D01*
X176882637Y-116941241D01*
X176804694Y-116863298D01*
X182574903Y-116863298D01*
X183388000Y-117676395D01*
X184201097Y-116863298D01*
X184129514Y-116619329D01*
X183874004Y-116498429D01*
X183599816Y-116429700D01*
X183317488Y-116415783D01*
X183037870Y-116457213D01*
X182771708Y-116552397D01*
X182646486Y-116619329D01*
X182574903Y-116863298D01*
X176804694Y-116863298D01*
X176682759Y-116741363D01*
X176447727Y-116584320D01*
X176186574Y-116476147D01*
X175909335Y-116421000D01*
X175626665Y-116421000D01*
X175349426Y-116476147D01*
X175088273Y-116584320D01*
X174853241Y-116741363D01*
X174653363Y-116941241D01*
X174496320Y-117176273D01*
X174388147Y-117437426D01*
X174333000Y-117714665D01*
X172625724Y-117714665D01*
X172594787Y-117505870D01*
X172499603Y-117239708D01*
X172432671Y-117114486D01*
X172188702Y-117042903D01*
X171375605Y-117856000D01*
X171016395Y-117856000D01*
X170203298Y-117042903D01*
X169959329Y-117114486D01*
X169838429Y-117369996D01*
X169769700Y-117644184D01*
X169755783Y-117926512D01*
X165011000Y-117926512D01*
X165011000Y-117714665D01*
X164955853Y-117437426D01*
X164847680Y-117176273D01*
X164690637Y-116941241D01*
X164612694Y-116863298D01*
X170382903Y-116863298D01*
X171196000Y-117676395D01*
X172009097Y-116863298D01*
X171937514Y-116619329D01*
X171682004Y-116498429D01*
X171407816Y-116429700D01*
X171125488Y-116415783D01*
X170845870Y-116457213D01*
X170579708Y-116552397D01*
X170454486Y-116619329D01*
X170382903Y-116863298D01*
X164612694Y-116863298D01*
X164490759Y-116741363D01*
X164255727Y-116584320D01*
X163994574Y-116476147D01*
X163717335Y-116421000D01*
X163434665Y-116421000D01*
X163157426Y-116476147D01*
X162896273Y-116584320D01*
X162661241Y-116741363D01*
X162461363Y-116941241D01*
X162304320Y-117176273D01*
X162196147Y-117437426D01*
X162141000Y-117714665D01*
X159902705Y-117714665D01*
X159724038Y-117447271D01*
X159412729Y-117135962D01*
X159046669Y-116891369D01*
X158639925Y-116722890D01*
X158208128Y-116637000D01*
X157767872Y-116637000D01*
X157336075Y-116722890D01*
X156929331Y-116891369D01*
X156563271Y-117135962D01*
X156251962Y-117447271D01*
X156007369Y-117813331D01*
X155838890Y-118220075D01*
X155753000Y-118651872D01*
X151022072Y-118651872D01*
X151022072Y-117342000D01*
X151009812Y-117217518D01*
X150973502Y-117097820D01*
X150914537Y-116987506D01*
X150835185Y-116890815D01*
X150738494Y-116811463D01*
X150628180Y-116752498D01*
X150508482Y-116716188D01*
X150384000Y-116703928D01*
X148584000Y-116703928D01*
X148459518Y-116716188D01*
X148339820Y-116752498D01*
X148229506Y-116811463D01*
X148132815Y-116890815D01*
X148053463Y-116987506D01*
X147994498Y-117097820D01*
X147988944Y-117116127D01*
X147922505Y-117049688D01*
X147671095Y-116881701D01*
X147391743Y-116765989D01*
X147095184Y-116707000D01*
X146804001Y-116707000D01*
X146804001Y-115199999D01*
X230211928Y-115199999D01*
X230211928Y-117000001D01*
X230228992Y-117173255D01*
X230279528Y-117339851D01*
X230361595Y-117493387D01*
X230472038Y-117627962D01*
X230606613Y-117738405D01*
X230760149Y-117820472D01*
X230926745Y-117871008D01*
X231099999Y-117888072D01*
X232900001Y-117888072D01*
X233073255Y-117871008D01*
X233239851Y-117820472D01*
X233393387Y-117738405D01*
X233527962Y-117627962D01*
X233638405Y-117493387D01*
X233720472Y-117339851D01*
X233771008Y-117173255D01*
X233788072Y-117000001D01*
X233788072Y-115199999D01*
X233771008Y-115026745D01*
X233720472Y-114860149D01*
X233638405Y-114706613D01*
X233527962Y-114572038D01*
X233393387Y-114461595D01*
X233239851Y-114379528D01*
X233073255Y-114328992D01*
X232900001Y-114311928D01*
X231099999Y-114311928D01*
X230926745Y-114328992D01*
X230760149Y-114379528D01*
X230606613Y-114461595D01*
X230472038Y-114572038D01*
X230361595Y-114706613D01*
X230279528Y-114860149D01*
X230228992Y-115026745D01*
X230211928Y-115199999D01*
X146804001Y-115199999D01*
X146804001Y-113350371D01*
X146935150Y-113420472D01*
X147101746Y-113471008D01*
X147275000Y-113488072D01*
X148725000Y-113488072D01*
X148898254Y-113471008D01*
X149064850Y-113420472D01*
X149218386Y-113338405D01*
X149352962Y-113227962D01*
X149463405Y-113093386D01*
X149545472Y-112939850D01*
X149596008Y-112773254D01*
X149613072Y-112600000D01*
X149613072Y-111400000D01*
X149596008Y-111226746D01*
X149545472Y-111060150D01*
X149463405Y-110906614D01*
X149352962Y-110772038D01*
X149218386Y-110661595D01*
X149116663Y-110607223D01*
X149180134Y-110555134D01*
X149365706Y-110329014D01*
X149503599Y-110071034D01*
X149588513Y-109791111D01*
X149617185Y-109500000D01*
X149588513Y-109208889D01*
X149503599Y-108928966D01*
X149365706Y-108670986D01*
X149180134Y-108444866D01*
X148954014Y-108259294D01*
X148936626Y-108250000D01*
X148954014Y-108240706D01*
X149180134Y-108055134D01*
X149365706Y-107829014D01*
X149503599Y-107571034D01*
X149588513Y-107291111D01*
X149617185Y-107000000D01*
X149588513Y-106708889D01*
X149503599Y-106428966D01*
X149365706Y-106170986D01*
X149180134Y-105944866D01*
X148954014Y-105759294D01*
X148936626Y-105750000D01*
X148954014Y-105740706D01*
X149180134Y-105555134D01*
X149365706Y-105329014D01*
X149503599Y-105071034D01*
X149588513Y-104791111D01*
X149617185Y-104500000D01*
X157382815Y-104500000D01*
X157411487Y-104791111D01*
X157496401Y-105071034D01*
X157634294Y-105329014D01*
X157819866Y-105555134D01*
X158045986Y-105740706D01*
X158063374Y-105750000D01*
X158045986Y-105759294D01*
X157819866Y-105944866D01*
X157634294Y-106170986D01*
X157496401Y-106428966D01*
X157411487Y-106708889D01*
X157382815Y-107000000D01*
X157411487Y-107291111D01*
X157496401Y-107571034D01*
X157634294Y-107829014D01*
X157819866Y-108055134D01*
X158045986Y-108240706D01*
X158063374Y-108250000D01*
X158045986Y-108259294D01*
X157819866Y-108444866D01*
X157634294Y-108670986D01*
X157496401Y-108928966D01*
X157411487Y-109208889D01*
X157382815Y-109500000D01*
X157411487Y-109791111D01*
X157496401Y-110071034D01*
X157634294Y-110329014D01*
X157819866Y-110555134D01*
X157883337Y-110607223D01*
X157781614Y-110661595D01*
X157647038Y-110772038D01*
X157536595Y-110906614D01*
X157454528Y-111060150D01*
X157403992Y-111226746D01*
X157386928Y-111400000D01*
X157386928Y-112600000D01*
X157403992Y-112773254D01*
X157454528Y-112939850D01*
X157536595Y-113093386D01*
X157647038Y-113227962D01*
X157781614Y-113338405D01*
X157935150Y-113420472D01*
X158101746Y-113471008D01*
X158275000Y-113488072D01*
X159725000Y-113488072D01*
X159898254Y-113471008D01*
X160064850Y-113420472D01*
X160218386Y-113338405D01*
X160352962Y-113227962D01*
X160463405Y-113093386D01*
X160545472Y-112939850D01*
X160596008Y-112773254D01*
X160613072Y-112600000D01*
X160613072Y-111400000D01*
X160596008Y-111226746D01*
X160545472Y-111060150D01*
X160463405Y-110906614D01*
X160352962Y-110772038D01*
X160218386Y-110661595D01*
X160116663Y-110607223D01*
X160180134Y-110555134D01*
X160365706Y-110329014D01*
X160503599Y-110071034D01*
X160588513Y-109791111D01*
X160617185Y-109500000D01*
X160588513Y-109208889D01*
X160503599Y-108928966D01*
X160365706Y-108670986D01*
X160180134Y-108444866D01*
X159954014Y-108259294D01*
X159936626Y-108250000D01*
X159954014Y-108240706D01*
X160180134Y-108055134D01*
X160365706Y-107829014D01*
X160503599Y-107571034D01*
X160588513Y-107291111D01*
X160617185Y-107000000D01*
X160588513Y-106708889D01*
X160503599Y-106428966D01*
X160365706Y-106170986D01*
X160180134Y-105944866D01*
X159954014Y-105759294D01*
X159936626Y-105750000D01*
X159954014Y-105740706D01*
X160180134Y-105555134D01*
X160365706Y-105329014D01*
X160503599Y-105071034D01*
X160588513Y-104791111D01*
X160617185Y-104500000D01*
X168382815Y-104500000D01*
X168411487Y-104791111D01*
X168496401Y-105071034D01*
X168634294Y-105329014D01*
X168819866Y-105555134D01*
X169045986Y-105740706D01*
X169063374Y-105750000D01*
X169045986Y-105759294D01*
X168819866Y-105944866D01*
X168634294Y-106170986D01*
X168496401Y-106428966D01*
X168411487Y-106708889D01*
X168382815Y-107000000D01*
X168411487Y-107291111D01*
X168496401Y-107571034D01*
X168634294Y-107829014D01*
X168819866Y-108055134D01*
X169045986Y-108240706D01*
X169063374Y-108250000D01*
X169045986Y-108259294D01*
X168819866Y-108444866D01*
X168634294Y-108670986D01*
X168496401Y-108928966D01*
X168411487Y-109208889D01*
X168382815Y-109500000D01*
X168411487Y-109791111D01*
X168496401Y-110071034D01*
X168634294Y-110329014D01*
X168819866Y-110555134D01*
X168883337Y-110607223D01*
X168781614Y-110661595D01*
X168647038Y-110772038D01*
X168536595Y-110906614D01*
X168454528Y-111060150D01*
X168403992Y-111226746D01*
X168386928Y-111400000D01*
X168386928Y-112600000D01*
X168403992Y-112773254D01*
X168454528Y-112939850D01*
X168536595Y-113093386D01*
X168647038Y-113227962D01*
X168781614Y-113338405D01*
X168935150Y-113420472D01*
X169101746Y-113471008D01*
X169275000Y-113488072D01*
X170725000Y-113488072D01*
X170898254Y-113471008D01*
X171064850Y-113420472D01*
X171218386Y-113338405D01*
X171352962Y-113227962D01*
X171463405Y-113093386D01*
X171545472Y-112939850D01*
X171596008Y-112773254D01*
X171613072Y-112600000D01*
X171613072Y-111400000D01*
X171596008Y-111226746D01*
X171545472Y-111060150D01*
X171463405Y-110906614D01*
X171352962Y-110772038D01*
X171218386Y-110661595D01*
X171116663Y-110607223D01*
X171180134Y-110555134D01*
X171365706Y-110329014D01*
X171503599Y-110071034D01*
X171588513Y-109791111D01*
X171617185Y-109500000D01*
X171588513Y-109208889D01*
X171503599Y-108928966D01*
X171365706Y-108670986D01*
X171180134Y-108444866D01*
X170954014Y-108259294D01*
X170936626Y-108250000D01*
X170954014Y-108240706D01*
X171180134Y-108055134D01*
X171365706Y-107829014D01*
X171503599Y-107571034D01*
X171588513Y-107291111D01*
X171617185Y-107000000D01*
X171588513Y-106708889D01*
X171503599Y-106428966D01*
X171365706Y-106170986D01*
X171180134Y-105944866D01*
X170954014Y-105759294D01*
X170936626Y-105750000D01*
X170954014Y-105740706D01*
X171180134Y-105555134D01*
X171365706Y-105329014D01*
X171503599Y-105071034D01*
X171588513Y-104791111D01*
X171617185Y-104500000D01*
X179382815Y-104500000D01*
X179411487Y-104791111D01*
X179496401Y-105071034D01*
X179634294Y-105329014D01*
X179819866Y-105555134D01*
X180045986Y-105740706D01*
X180063374Y-105750000D01*
X180045986Y-105759294D01*
X179819866Y-105944866D01*
X179634294Y-106170986D01*
X179496401Y-106428966D01*
X179411487Y-106708889D01*
X179382815Y-107000000D01*
X179411487Y-107291111D01*
X179496401Y-107571034D01*
X179634294Y-107829014D01*
X179819866Y-108055134D01*
X180045986Y-108240706D01*
X180063374Y-108250000D01*
X180045986Y-108259294D01*
X179819866Y-108444866D01*
X179634294Y-108670986D01*
X179496401Y-108928966D01*
X179411487Y-109208889D01*
X179382815Y-109500000D01*
X179411487Y-109791111D01*
X179496401Y-110071034D01*
X179634294Y-110329014D01*
X179819866Y-110555134D01*
X179883337Y-110607223D01*
X179781614Y-110661595D01*
X179647038Y-110772038D01*
X179536595Y-110906614D01*
X179454528Y-111060150D01*
X179403992Y-111226746D01*
X179386928Y-111400000D01*
X179386928Y-112600000D01*
X179403992Y-112773254D01*
X179454528Y-112939850D01*
X179536595Y-113093386D01*
X179647038Y-113227962D01*
X179781614Y-113338405D01*
X179935150Y-113420472D01*
X180101746Y-113471008D01*
X180275000Y-113488072D01*
X181725000Y-113488072D01*
X181898254Y-113471008D01*
X182064850Y-113420472D01*
X182218386Y-113338405D01*
X182352962Y-113227962D01*
X182463405Y-113093386D01*
X182545472Y-112939850D01*
X182596008Y-112773254D01*
X182613072Y-112600000D01*
X182613072Y-111400000D01*
X182596008Y-111226746D01*
X182545472Y-111060150D01*
X182463405Y-110906614D01*
X182352962Y-110772038D01*
X182218386Y-110661595D01*
X182116663Y-110607223D01*
X182180134Y-110555134D01*
X182365706Y-110329014D01*
X182503599Y-110071034D01*
X182588513Y-109791111D01*
X182617185Y-109500000D01*
X182588513Y-109208889D01*
X182503599Y-108928966D01*
X182365706Y-108670986D01*
X182180134Y-108444866D01*
X181954014Y-108259294D01*
X181936626Y-108250000D01*
X181954014Y-108240706D01*
X182180134Y-108055134D01*
X182365706Y-107829014D01*
X182503599Y-107571034D01*
X182588513Y-107291111D01*
X182617185Y-107000000D01*
X182588513Y-106708889D01*
X182503599Y-106428966D01*
X182365706Y-106170986D01*
X182180134Y-105944866D01*
X181954014Y-105759294D01*
X181936626Y-105750000D01*
X181954014Y-105740706D01*
X182180134Y-105555134D01*
X182365706Y-105329014D01*
X182503599Y-105071034D01*
X182588513Y-104791111D01*
X182617185Y-104500000D01*
X190382815Y-104500000D01*
X190411487Y-104791111D01*
X190496401Y-105071034D01*
X190634294Y-105329014D01*
X190819866Y-105555134D01*
X191045986Y-105740706D01*
X191063374Y-105750000D01*
X191045986Y-105759294D01*
X190819866Y-105944866D01*
X190634294Y-106170986D01*
X190496401Y-106428966D01*
X190411487Y-106708889D01*
X190382815Y-107000000D01*
X190411487Y-107291111D01*
X190496401Y-107571034D01*
X190634294Y-107829014D01*
X190819866Y-108055134D01*
X191045986Y-108240706D01*
X191063374Y-108250000D01*
X191045986Y-108259294D01*
X190819866Y-108444866D01*
X190634294Y-108670986D01*
X190496401Y-108928966D01*
X190411487Y-109208889D01*
X190382815Y-109500000D01*
X190411487Y-109791111D01*
X190496401Y-110071034D01*
X190634294Y-110329014D01*
X190819866Y-110555134D01*
X190883337Y-110607223D01*
X190781614Y-110661595D01*
X190647038Y-110772038D01*
X190536595Y-110906614D01*
X190454528Y-111060150D01*
X190403992Y-111226746D01*
X190386928Y-111400000D01*
X190386928Y-112600000D01*
X190403992Y-112773254D01*
X190454528Y-112939850D01*
X190536595Y-113093386D01*
X190647038Y-113227962D01*
X190781614Y-113338405D01*
X190935150Y-113420472D01*
X191101746Y-113471008D01*
X191275000Y-113488072D01*
X192725000Y-113488072D01*
X192898254Y-113471008D01*
X193064850Y-113420472D01*
X193218386Y-113338405D01*
X193352962Y-113227962D01*
X193463405Y-113093386D01*
X193545472Y-112939850D01*
X193596008Y-112773254D01*
X193613072Y-112600000D01*
X193613072Y-111400000D01*
X193596008Y-111226746D01*
X193545472Y-111060150D01*
X193463405Y-110906614D01*
X193352962Y-110772038D01*
X193218386Y-110661595D01*
X193116663Y-110607223D01*
X193180134Y-110555134D01*
X193365706Y-110329014D01*
X193503599Y-110071034D01*
X193588513Y-109791111D01*
X193617185Y-109500000D01*
X193588513Y-109208889D01*
X193503599Y-108928966D01*
X193365706Y-108670986D01*
X193180134Y-108444866D01*
X192954014Y-108259294D01*
X192936626Y-108250000D01*
X192954014Y-108240706D01*
X193180134Y-108055134D01*
X193365706Y-107829014D01*
X193503599Y-107571034D01*
X193588513Y-107291111D01*
X193617185Y-107000000D01*
X193588513Y-106708889D01*
X193503599Y-106428966D01*
X193365706Y-106170986D01*
X193180134Y-105944866D01*
X192954014Y-105759294D01*
X192936626Y-105750000D01*
X192954014Y-105740706D01*
X193180134Y-105555134D01*
X193365706Y-105329014D01*
X193503599Y-105071034D01*
X193588513Y-104791111D01*
X193617185Y-104500000D01*
X201382815Y-104500000D01*
X201411487Y-104791111D01*
X201496401Y-105071034D01*
X201634294Y-105329014D01*
X201819866Y-105555134D01*
X202045986Y-105740706D01*
X202063374Y-105750000D01*
X202045986Y-105759294D01*
X201819866Y-105944866D01*
X201634294Y-106170986D01*
X201496401Y-106428966D01*
X201411487Y-106708889D01*
X201382815Y-107000000D01*
X201411487Y-107291111D01*
X201496401Y-107571034D01*
X201634294Y-107829014D01*
X201819866Y-108055134D01*
X202045986Y-108240706D01*
X202063374Y-108250000D01*
X202045986Y-108259294D01*
X201819866Y-108444866D01*
X201634294Y-108670986D01*
X201496401Y-108928966D01*
X201411487Y-109208889D01*
X201382815Y-109500000D01*
X201411487Y-109791111D01*
X201496401Y-110071034D01*
X201634294Y-110329014D01*
X201819866Y-110555134D01*
X201883337Y-110607223D01*
X201781614Y-110661595D01*
X201647038Y-110772038D01*
X201536595Y-110906614D01*
X201454528Y-111060150D01*
X201403992Y-111226746D01*
X201386928Y-111400000D01*
X201386928Y-112600000D01*
X201403992Y-112773254D01*
X201454528Y-112939850D01*
X201536595Y-113093386D01*
X201647038Y-113227962D01*
X201781614Y-113338405D01*
X201935150Y-113420472D01*
X202101746Y-113471008D01*
X202275000Y-113488072D01*
X203725000Y-113488072D01*
X203898254Y-113471008D01*
X204064850Y-113420472D01*
X204218386Y-113338405D01*
X204352962Y-113227962D01*
X204463405Y-113093386D01*
X204545472Y-112939850D01*
X204596008Y-112773254D01*
X204613072Y-112600000D01*
X204613072Y-111400000D01*
X204596008Y-111226746D01*
X204545472Y-111060150D01*
X204463405Y-110906614D01*
X204352962Y-110772038D01*
X204218386Y-110661595D01*
X204116663Y-110607223D01*
X204180134Y-110555134D01*
X204365706Y-110329014D01*
X204503599Y-110071034D01*
X204588513Y-109791111D01*
X204617185Y-109500000D01*
X204588513Y-109208889D01*
X204503599Y-108928966D01*
X204365706Y-108670986D01*
X204180134Y-108444866D01*
X203954014Y-108259294D01*
X203936626Y-108250000D01*
X203954014Y-108240706D01*
X204180134Y-108055134D01*
X204365706Y-107829014D01*
X204503599Y-107571034D01*
X204588513Y-107291111D01*
X204617185Y-107000000D01*
X204588513Y-106708889D01*
X204503599Y-106428966D01*
X204365706Y-106170986D01*
X204180134Y-105944866D01*
X203954014Y-105759294D01*
X203936626Y-105750000D01*
X203954014Y-105740706D01*
X204180134Y-105555134D01*
X204365706Y-105329014D01*
X204503599Y-105071034D01*
X204588513Y-104791111D01*
X204617185Y-104500000D01*
X212382815Y-104500000D01*
X212411487Y-104791111D01*
X212496401Y-105071034D01*
X212634294Y-105329014D01*
X212819866Y-105555134D01*
X213045986Y-105740706D01*
X213063374Y-105750000D01*
X213045986Y-105759294D01*
X212819866Y-105944866D01*
X212634294Y-106170986D01*
X212496401Y-106428966D01*
X212411487Y-106708889D01*
X212382815Y-107000000D01*
X212411487Y-107291111D01*
X212496401Y-107571034D01*
X212634294Y-107829014D01*
X212819866Y-108055134D01*
X213045986Y-108240706D01*
X213063374Y-108250000D01*
X213045986Y-108259294D01*
X212819866Y-108444866D01*
X212634294Y-108670986D01*
X212496401Y-108928966D01*
X212411487Y-109208889D01*
X212382815Y-109500000D01*
X212411487Y-109791111D01*
X212496401Y-110071034D01*
X212634294Y-110329014D01*
X212819866Y-110555134D01*
X212883337Y-110607223D01*
X212781614Y-110661595D01*
X212647038Y-110772038D01*
X212536595Y-110906614D01*
X212454528Y-111060150D01*
X212403992Y-111226746D01*
X212386928Y-111400000D01*
X212386928Y-112600000D01*
X212403992Y-112773254D01*
X212454528Y-112939850D01*
X212536595Y-113093386D01*
X212647038Y-113227962D01*
X212781614Y-113338405D01*
X212935150Y-113420472D01*
X213101746Y-113471008D01*
X213275000Y-113488072D01*
X214725000Y-113488072D01*
X214898254Y-113471008D01*
X215064850Y-113420472D01*
X215218386Y-113338405D01*
X215352962Y-113227962D01*
X215463405Y-113093386D01*
X215545472Y-112939850D01*
X215596008Y-112773254D01*
X215613072Y-112600000D01*
X215613072Y-111400000D01*
X215596008Y-111226746D01*
X215545472Y-111060150D01*
X215463405Y-110906614D01*
X215352962Y-110772038D01*
X215218386Y-110661595D01*
X215116663Y-110607223D01*
X215180134Y-110555134D01*
X215365706Y-110329014D01*
X215503599Y-110071034D01*
X215588513Y-109791111D01*
X215617185Y-109500000D01*
X215588513Y-109208889D01*
X215503599Y-108928966D01*
X215365706Y-108670986D01*
X215180134Y-108444866D01*
X214954014Y-108259294D01*
X214936626Y-108250000D01*
X214954014Y-108240706D01*
X215180134Y-108055134D01*
X215365706Y-107829014D01*
X215503599Y-107571034D01*
X215588513Y-107291111D01*
X215617185Y-107000000D01*
X215588513Y-106708889D01*
X215503599Y-106428966D01*
X215365706Y-106170986D01*
X215180134Y-105944866D01*
X214954014Y-105759294D01*
X214936626Y-105750000D01*
X214954014Y-105740706D01*
X215180134Y-105555134D01*
X215365706Y-105329014D01*
X215503599Y-105071034D01*
X215588513Y-104791111D01*
X215617185Y-104500000D01*
X223382815Y-104500000D01*
X223411487Y-104791111D01*
X223496401Y-105071034D01*
X223634294Y-105329014D01*
X223819866Y-105555134D01*
X224045986Y-105740706D01*
X224063374Y-105750000D01*
X224045986Y-105759294D01*
X223819866Y-105944866D01*
X223634294Y-106170986D01*
X223496401Y-106428966D01*
X223411487Y-106708889D01*
X223382815Y-107000000D01*
X223411487Y-107291111D01*
X223496401Y-107571034D01*
X223634294Y-107829014D01*
X223819866Y-108055134D01*
X224045986Y-108240706D01*
X224063374Y-108250000D01*
X224045986Y-108259294D01*
X223819866Y-108444866D01*
X223634294Y-108670986D01*
X223496401Y-108928966D01*
X223411487Y-109208889D01*
X223382815Y-109500000D01*
X223411487Y-109791111D01*
X223496401Y-110071034D01*
X223634294Y-110329014D01*
X223819866Y-110555134D01*
X223883337Y-110607223D01*
X223781614Y-110661595D01*
X223647038Y-110772038D01*
X223536595Y-110906614D01*
X223454528Y-111060150D01*
X223403992Y-111226746D01*
X223386928Y-111400000D01*
X223386928Y-112600000D01*
X223403992Y-112773254D01*
X223454528Y-112939850D01*
X223536595Y-113093386D01*
X223647038Y-113227962D01*
X223781614Y-113338405D01*
X223935150Y-113420472D01*
X224101746Y-113471008D01*
X224275000Y-113488072D01*
X225725000Y-113488072D01*
X225898254Y-113471008D01*
X226064850Y-113420472D01*
X226218386Y-113338405D01*
X226352962Y-113227962D01*
X226463405Y-113093386D01*
X226545472Y-112939850D01*
X226596008Y-112773254D01*
X226613072Y-112600000D01*
X226613072Y-111400000D01*
X226596008Y-111226746D01*
X226545472Y-111060150D01*
X226463405Y-110906614D01*
X226375909Y-110799999D01*
X230211928Y-110799999D01*
X230211928Y-112600001D01*
X230228992Y-112773255D01*
X230279528Y-112939851D01*
X230361595Y-113093387D01*
X230472038Y-113227962D01*
X230606613Y-113338405D01*
X230760149Y-113420472D01*
X230926745Y-113471008D01*
X231099999Y-113488072D01*
X232900001Y-113488072D01*
X233073255Y-113471008D01*
X233239851Y-113420472D01*
X233393387Y-113338405D01*
X233527962Y-113227962D01*
X233638405Y-113093387D01*
X233720472Y-112939851D01*
X233771008Y-112773255D01*
X233788072Y-112600001D01*
X233788072Y-110799999D01*
X233771008Y-110626745D01*
X233720472Y-110460149D01*
X233638405Y-110306613D01*
X233527962Y-110172038D01*
X233393387Y-110061595D01*
X233239851Y-109979528D01*
X233073255Y-109928992D01*
X232900001Y-109911928D01*
X231099999Y-109911928D01*
X230926745Y-109928992D01*
X230760149Y-109979528D01*
X230606613Y-110061595D01*
X230472038Y-110172038D01*
X230361595Y-110306613D01*
X230279528Y-110460149D01*
X230228992Y-110626745D01*
X230211928Y-110799999D01*
X226375909Y-110799999D01*
X226352962Y-110772038D01*
X226218386Y-110661595D01*
X226116663Y-110607223D01*
X226180134Y-110555134D01*
X226365706Y-110329014D01*
X226503599Y-110071034D01*
X226588513Y-109791111D01*
X226617185Y-109500000D01*
X226588513Y-109208889D01*
X226503599Y-108928966D01*
X226365706Y-108670986D01*
X226180134Y-108444866D01*
X225954014Y-108259294D01*
X225936626Y-108250000D01*
X225954014Y-108240706D01*
X226180134Y-108055134D01*
X226365706Y-107829014D01*
X226503599Y-107571034D01*
X226588513Y-107291111D01*
X226617185Y-107000000D01*
X226588513Y-106708889D01*
X226503599Y-106428966D01*
X226488116Y-106399999D01*
X230211928Y-106399999D01*
X230211928Y-108200001D01*
X230228992Y-108373255D01*
X230279528Y-108539851D01*
X230361595Y-108693387D01*
X230472038Y-108827962D01*
X230606613Y-108938405D01*
X230760149Y-109020472D01*
X230926745Y-109071008D01*
X231099999Y-109088072D01*
X232900001Y-109088072D01*
X233073255Y-109071008D01*
X233239851Y-109020472D01*
X233393387Y-108938405D01*
X233527962Y-108827962D01*
X233638405Y-108693387D01*
X233720472Y-108539851D01*
X233771008Y-108373255D01*
X233788072Y-108200001D01*
X233788072Y-106399999D01*
X233771008Y-106226745D01*
X233720472Y-106060149D01*
X233638405Y-105906613D01*
X233527962Y-105772038D01*
X233393387Y-105661595D01*
X233239851Y-105579528D01*
X233073255Y-105528992D01*
X232900001Y-105511928D01*
X231099999Y-105511928D01*
X230926745Y-105528992D01*
X230760149Y-105579528D01*
X230606613Y-105661595D01*
X230472038Y-105772038D01*
X230361595Y-105906613D01*
X230279528Y-106060149D01*
X230228992Y-106226745D01*
X230211928Y-106399999D01*
X226488116Y-106399999D01*
X226365706Y-106170986D01*
X226180134Y-105944866D01*
X225954014Y-105759294D01*
X225936626Y-105750000D01*
X225954014Y-105740706D01*
X226180134Y-105555134D01*
X226365706Y-105329014D01*
X226503599Y-105071034D01*
X226588513Y-104791111D01*
X226617185Y-104500000D01*
X226588513Y-104208889D01*
X226540315Y-104050000D01*
X230211928Y-104050000D01*
X230224188Y-104174482D01*
X230260498Y-104294180D01*
X230319463Y-104404494D01*
X230398815Y-104501185D01*
X230495506Y-104580537D01*
X230605820Y-104639502D01*
X230725518Y-104675812D01*
X230850000Y-104688072D01*
X231714250Y-104685000D01*
X231873000Y-104526250D01*
X231873000Y-103027000D01*
X232127000Y-103027000D01*
X232127000Y-104526250D01*
X232285750Y-104685000D01*
X233150000Y-104688072D01*
X233274482Y-104675812D01*
X233394180Y-104639502D01*
X233504494Y-104580537D01*
X233601185Y-104501185D01*
X233680537Y-104404494D01*
X233739502Y-104294180D01*
X233775812Y-104174482D01*
X233788072Y-104050000D01*
X233785000Y-103185750D01*
X233626250Y-103027000D01*
X232127000Y-103027000D01*
X231873000Y-103027000D01*
X230373750Y-103027000D01*
X230215000Y-103185750D01*
X230211928Y-104050000D01*
X226540315Y-104050000D01*
X226503599Y-103928966D01*
X226365706Y-103670986D01*
X226180134Y-103444866D01*
X225954014Y-103259294D01*
X225928278Y-103245538D01*
X226134429Y-103089049D01*
X226327496Y-102871193D01*
X226474352Y-102619858D01*
X226566476Y-102356890D01*
X226445155Y-102127000D01*
X225127000Y-102127000D01*
X225127000Y-102147000D01*
X224873000Y-102147000D01*
X224873000Y-102127000D01*
X223554845Y-102127000D01*
X223433524Y-102356890D01*
X223525648Y-102619858D01*
X223672504Y-102871193D01*
X223865571Y-103089049D01*
X224071722Y-103245538D01*
X224045986Y-103259294D01*
X223819866Y-103444866D01*
X223634294Y-103670986D01*
X223496401Y-103928966D01*
X223411487Y-104208889D01*
X223382815Y-104500000D01*
X215617185Y-104500000D01*
X215588513Y-104208889D01*
X215503599Y-103928966D01*
X215365706Y-103670986D01*
X215180134Y-103444866D01*
X214954014Y-103259294D01*
X214928278Y-103245538D01*
X215134429Y-103089049D01*
X215327496Y-102871193D01*
X215474352Y-102619858D01*
X215566476Y-102356890D01*
X215445155Y-102127000D01*
X214127000Y-102127000D01*
X214127000Y-102147000D01*
X213873000Y-102147000D01*
X213873000Y-102127000D01*
X212554845Y-102127000D01*
X212433524Y-102356890D01*
X212525648Y-102619858D01*
X212672504Y-102871193D01*
X212865571Y-103089049D01*
X213071722Y-103245538D01*
X213045986Y-103259294D01*
X212819866Y-103444866D01*
X212634294Y-103670986D01*
X212496401Y-103928966D01*
X212411487Y-104208889D01*
X212382815Y-104500000D01*
X204617185Y-104500000D01*
X204588513Y-104208889D01*
X204503599Y-103928966D01*
X204365706Y-103670986D01*
X204180134Y-103444866D01*
X203954014Y-103259294D01*
X203928278Y-103245538D01*
X204134429Y-103089049D01*
X204327496Y-102871193D01*
X204474352Y-102619858D01*
X204566476Y-102356890D01*
X204445155Y-102127000D01*
X203127000Y-102127000D01*
X203127000Y-102147000D01*
X202873000Y-102147000D01*
X202873000Y-102127000D01*
X201554845Y-102127000D01*
X201433524Y-102356890D01*
X201525648Y-102619858D01*
X201672504Y-102871193D01*
X201865571Y-103089049D01*
X202071722Y-103245538D01*
X202045986Y-103259294D01*
X201819866Y-103444866D01*
X201634294Y-103670986D01*
X201496401Y-103928966D01*
X201411487Y-104208889D01*
X201382815Y-104500000D01*
X193617185Y-104500000D01*
X193588513Y-104208889D01*
X193503599Y-103928966D01*
X193365706Y-103670986D01*
X193180134Y-103444866D01*
X192954014Y-103259294D01*
X192928278Y-103245538D01*
X193134429Y-103089049D01*
X193327496Y-102871193D01*
X193474352Y-102619858D01*
X193566476Y-102356890D01*
X193445155Y-102127000D01*
X192127000Y-102127000D01*
X192127000Y-102147000D01*
X191873000Y-102147000D01*
X191873000Y-102127000D01*
X190554845Y-102127000D01*
X190433524Y-102356890D01*
X190525648Y-102619858D01*
X190672504Y-102871193D01*
X190865571Y-103089049D01*
X191071722Y-103245538D01*
X191045986Y-103259294D01*
X190819866Y-103444866D01*
X190634294Y-103670986D01*
X190496401Y-103928966D01*
X190411487Y-104208889D01*
X190382815Y-104500000D01*
X182617185Y-104500000D01*
X182588513Y-104208889D01*
X182503599Y-103928966D01*
X182365706Y-103670986D01*
X182180134Y-103444866D01*
X181954014Y-103259294D01*
X181928278Y-103245538D01*
X182134429Y-103089049D01*
X182327496Y-102871193D01*
X182474352Y-102619858D01*
X182566476Y-102356890D01*
X182445155Y-102127000D01*
X181127000Y-102127000D01*
X181127000Y-102147000D01*
X180873000Y-102147000D01*
X180873000Y-102127000D01*
X179554845Y-102127000D01*
X179433524Y-102356890D01*
X179525648Y-102619858D01*
X179672504Y-102871193D01*
X179865571Y-103089049D01*
X180071722Y-103245538D01*
X180045986Y-103259294D01*
X179819866Y-103444866D01*
X179634294Y-103670986D01*
X179496401Y-103928966D01*
X179411487Y-104208889D01*
X179382815Y-104500000D01*
X171617185Y-104500000D01*
X171588513Y-104208889D01*
X171503599Y-103928966D01*
X171365706Y-103670986D01*
X171180134Y-103444866D01*
X170954014Y-103259294D01*
X170928278Y-103245538D01*
X171134429Y-103089049D01*
X171327496Y-102871193D01*
X171474352Y-102619858D01*
X171566476Y-102356890D01*
X171445155Y-102127000D01*
X170127000Y-102127000D01*
X170127000Y-102147000D01*
X169873000Y-102147000D01*
X169873000Y-102127000D01*
X168554845Y-102127000D01*
X168433524Y-102356890D01*
X168525648Y-102619858D01*
X168672504Y-102871193D01*
X168865571Y-103089049D01*
X169071722Y-103245538D01*
X169045986Y-103259294D01*
X168819866Y-103444866D01*
X168634294Y-103670986D01*
X168496401Y-103928966D01*
X168411487Y-104208889D01*
X168382815Y-104500000D01*
X160617185Y-104500000D01*
X160588513Y-104208889D01*
X160503599Y-103928966D01*
X160365706Y-103670986D01*
X160180134Y-103444866D01*
X159954014Y-103259294D01*
X159928278Y-103245538D01*
X160134429Y-103089049D01*
X160327496Y-102871193D01*
X160474352Y-102619858D01*
X160566476Y-102356890D01*
X160445155Y-102127000D01*
X159127000Y-102127000D01*
X159127000Y-102147000D01*
X158873000Y-102147000D01*
X158873000Y-102127000D01*
X157554845Y-102127000D01*
X157433524Y-102356890D01*
X157525648Y-102619858D01*
X157672504Y-102871193D01*
X157865571Y-103089049D01*
X158071722Y-103245538D01*
X158045986Y-103259294D01*
X157819866Y-103444866D01*
X157634294Y-103670986D01*
X157496401Y-103928966D01*
X157411487Y-104208889D01*
X157382815Y-104500000D01*
X149617185Y-104500000D01*
X149588513Y-104208889D01*
X149503599Y-103928966D01*
X149365706Y-103670986D01*
X149180134Y-103444866D01*
X148954014Y-103259294D01*
X148928278Y-103245538D01*
X149134429Y-103089049D01*
X149327496Y-102871193D01*
X149474352Y-102619858D01*
X149566476Y-102356890D01*
X149445155Y-102127000D01*
X148127000Y-102127000D01*
X148127000Y-102147000D01*
X147873000Y-102147000D01*
X147873000Y-102127000D01*
X146554845Y-102127000D01*
X146433524Y-102356890D01*
X146525648Y-102619858D01*
X146672504Y-102871193D01*
X146865571Y-103089049D01*
X147071722Y-103245538D01*
X147045986Y-103259294D01*
X146819866Y-103444866D01*
X146634294Y-103670986D01*
X146496401Y-103928966D01*
X146411487Y-104208889D01*
X146382815Y-104500000D01*
X146411487Y-104791111D01*
X146463296Y-104961902D01*
X145533004Y-105892195D01*
X145504000Y-105915998D01*
X145467767Y-105960149D01*
X145409027Y-106031723D01*
X145393833Y-106060149D01*
X145338455Y-106163753D01*
X145294998Y-106307014D01*
X145284001Y-106418667D01*
X145284001Y-106418677D01*
X145280325Y-106455999D01*
X138511800Y-106455999D01*
X138503599Y-106428966D01*
X138365706Y-106170986D01*
X138180134Y-105944866D01*
X137954014Y-105759294D01*
X137936626Y-105750000D01*
X137954014Y-105740706D01*
X138180134Y-105555134D01*
X138365706Y-105329014D01*
X138503599Y-105071034D01*
X138588513Y-104791111D01*
X138617185Y-104500000D01*
X138588513Y-104208889D01*
X138503599Y-103928966D01*
X138365706Y-103670986D01*
X138180134Y-103444866D01*
X137954014Y-103259294D01*
X137928278Y-103245538D01*
X138134429Y-103089049D01*
X138327496Y-102871193D01*
X138474352Y-102619858D01*
X138566476Y-102356890D01*
X138445155Y-102127000D01*
X137127000Y-102127000D01*
X137127000Y-102147000D01*
X136873000Y-102147000D01*
X136873000Y-102127000D01*
X136853000Y-102127000D01*
X136853000Y-101873000D01*
X136873000Y-101873000D01*
X136873000Y-101853000D01*
X137127000Y-101853000D01*
X137127000Y-101873000D01*
X138445155Y-101873000D01*
X138566476Y-101643110D01*
X138474352Y-101380142D01*
X138327496Y-101128807D01*
X138134429Y-100910951D01*
X137928278Y-100754462D01*
X137954014Y-100740706D01*
X138180134Y-100555134D01*
X138365706Y-100329014D01*
X138503599Y-100071034D01*
X138588513Y-99791111D01*
X138617185Y-99500000D01*
X146382815Y-99500000D01*
X146411487Y-99791111D01*
X146496401Y-100071034D01*
X146634294Y-100329014D01*
X146819866Y-100555134D01*
X147045986Y-100740706D01*
X147071722Y-100754462D01*
X146865571Y-100910951D01*
X146672504Y-101128807D01*
X146525648Y-101380142D01*
X146433524Y-101643110D01*
X146554845Y-101873000D01*
X147873000Y-101873000D01*
X147873000Y-101853000D01*
X148127000Y-101853000D01*
X148127000Y-101873000D01*
X149445155Y-101873000D01*
X149566476Y-101643110D01*
X149474352Y-101380142D01*
X149327496Y-101128807D01*
X149134429Y-100910951D01*
X148928278Y-100754462D01*
X148954014Y-100740706D01*
X149180134Y-100555134D01*
X149365706Y-100329014D01*
X149503599Y-100071034D01*
X149588513Y-99791111D01*
X149617185Y-99500000D01*
X157382815Y-99500000D01*
X157411487Y-99791111D01*
X157496401Y-100071034D01*
X157634294Y-100329014D01*
X157819866Y-100555134D01*
X158045986Y-100740706D01*
X158071722Y-100754462D01*
X157865571Y-100910951D01*
X157672504Y-101128807D01*
X157525648Y-101380142D01*
X157433524Y-101643110D01*
X157554845Y-101873000D01*
X158873000Y-101873000D01*
X158873000Y-101853000D01*
X159127000Y-101853000D01*
X159127000Y-101873000D01*
X160445155Y-101873000D01*
X160566476Y-101643110D01*
X160474352Y-101380142D01*
X160327496Y-101128807D01*
X160134429Y-100910951D01*
X159928278Y-100754462D01*
X159954014Y-100740706D01*
X160180134Y-100555134D01*
X160365706Y-100329014D01*
X160503599Y-100071034D01*
X160588513Y-99791111D01*
X160617185Y-99500000D01*
X168382815Y-99500000D01*
X168411487Y-99791111D01*
X168496401Y-100071034D01*
X168634294Y-100329014D01*
X168819866Y-100555134D01*
X169045986Y-100740706D01*
X169071722Y-100754462D01*
X168865571Y-100910951D01*
X168672504Y-101128807D01*
X168525648Y-101380142D01*
X168433524Y-101643110D01*
X168554845Y-101873000D01*
X169873000Y-101873000D01*
X169873000Y-101853000D01*
X170127000Y-101853000D01*
X170127000Y-101873000D01*
X171445155Y-101873000D01*
X171566476Y-101643110D01*
X171474352Y-101380142D01*
X171327496Y-101128807D01*
X171134429Y-100910951D01*
X170928278Y-100754462D01*
X170954014Y-100740706D01*
X171180134Y-100555134D01*
X171365706Y-100329014D01*
X171503599Y-100071034D01*
X171588513Y-99791111D01*
X171617185Y-99500000D01*
X179382815Y-99500000D01*
X179411487Y-99791111D01*
X179496401Y-100071034D01*
X179634294Y-100329014D01*
X179819866Y-100555134D01*
X180045986Y-100740706D01*
X180071722Y-100754462D01*
X179865571Y-100910951D01*
X179672504Y-101128807D01*
X179525648Y-101380142D01*
X179433524Y-101643110D01*
X179554845Y-101873000D01*
X180873000Y-101873000D01*
X180873000Y-101853000D01*
X181127000Y-101853000D01*
X181127000Y-101873000D01*
X182445155Y-101873000D01*
X182566476Y-101643110D01*
X182474352Y-101380142D01*
X182327496Y-101128807D01*
X182134429Y-100910951D01*
X181928278Y-100754462D01*
X181954014Y-100740706D01*
X182180134Y-100555134D01*
X182365706Y-100329014D01*
X182503599Y-100071034D01*
X182588513Y-99791111D01*
X182617185Y-99500000D01*
X190382815Y-99500000D01*
X190411487Y-99791111D01*
X190496401Y-100071034D01*
X190634294Y-100329014D01*
X190819866Y-100555134D01*
X191045986Y-100740706D01*
X191071722Y-100754462D01*
X190865571Y-100910951D01*
X190672504Y-101128807D01*
X190525648Y-101380142D01*
X190433524Y-101643110D01*
X190554845Y-101873000D01*
X191873000Y-101873000D01*
X191873000Y-101853000D01*
X192127000Y-101853000D01*
X192127000Y-101873000D01*
X193445155Y-101873000D01*
X193566476Y-101643110D01*
X193474352Y-101380142D01*
X193327496Y-101128807D01*
X193134429Y-100910951D01*
X192928278Y-100754462D01*
X192954014Y-100740706D01*
X193180134Y-100555134D01*
X193365706Y-100329014D01*
X193503599Y-100071034D01*
X193588513Y-99791111D01*
X193617185Y-99500000D01*
X201382815Y-99500000D01*
X201411487Y-99791111D01*
X201496401Y-100071034D01*
X201634294Y-100329014D01*
X201819866Y-100555134D01*
X202045986Y-100740706D01*
X202071722Y-100754462D01*
X201865571Y-100910951D01*
X201672504Y-101128807D01*
X201525648Y-101380142D01*
X201433524Y-101643110D01*
X201554845Y-101873000D01*
X202873000Y-101873000D01*
X202873000Y-101853000D01*
X203127000Y-101853000D01*
X203127000Y-101873000D01*
X204445155Y-101873000D01*
X204566476Y-101643110D01*
X204474352Y-101380142D01*
X204327496Y-101128807D01*
X204134429Y-100910951D01*
X203928278Y-100754462D01*
X203954014Y-100740706D01*
X204180134Y-100555134D01*
X204365706Y-100329014D01*
X204503599Y-100071034D01*
X204588513Y-99791111D01*
X204617185Y-99500000D01*
X212382815Y-99500000D01*
X212411487Y-99791111D01*
X212496401Y-100071034D01*
X212634294Y-100329014D01*
X212819866Y-100555134D01*
X213045986Y-100740706D01*
X213071722Y-100754462D01*
X212865571Y-100910951D01*
X212672504Y-101128807D01*
X212525648Y-101380142D01*
X212433524Y-101643110D01*
X212554845Y-101873000D01*
X213873000Y-101873000D01*
X213873000Y-101853000D01*
X214127000Y-101853000D01*
X214127000Y-101873000D01*
X215445155Y-101873000D01*
X215566476Y-101643110D01*
X215474352Y-101380142D01*
X215327496Y-101128807D01*
X215134429Y-100910951D01*
X214928278Y-100754462D01*
X214954014Y-100740706D01*
X215180134Y-100555134D01*
X215365706Y-100329014D01*
X215503599Y-100071034D01*
X215588513Y-99791111D01*
X215617185Y-99500000D01*
X223382815Y-99500000D01*
X223411487Y-99791111D01*
X223496401Y-100071034D01*
X223634294Y-100329014D01*
X223819866Y-100555134D01*
X224045986Y-100740706D01*
X224071722Y-100754462D01*
X223865571Y-100910951D01*
X223672504Y-101128807D01*
X223525648Y-101380142D01*
X223433524Y-101643110D01*
X223554845Y-101873000D01*
X224873000Y-101873000D01*
X224873000Y-101853000D01*
X225127000Y-101853000D01*
X225127000Y-101873000D01*
X226445155Y-101873000D01*
X226510066Y-101750000D01*
X230211928Y-101750000D01*
X230215000Y-102614250D01*
X230373750Y-102773000D01*
X231873000Y-102773000D01*
X231873000Y-101273750D01*
X232127000Y-101273750D01*
X232127000Y-102773000D01*
X233626250Y-102773000D01*
X233785000Y-102614250D01*
X233788072Y-101750000D01*
X233775812Y-101625518D01*
X233739502Y-101505820D01*
X233680537Y-101395506D01*
X233601185Y-101298815D01*
X233504494Y-101219463D01*
X233394180Y-101160498D01*
X233274482Y-101124188D01*
X233150000Y-101111928D01*
X232285750Y-101115000D01*
X232127000Y-101273750D01*
X231873000Y-101273750D01*
X231714250Y-101115000D01*
X230850000Y-101111928D01*
X230725518Y-101124188D01*
X230605820Y-101160498D01*
X230495506Y-101219463D01*
X230398815Y-101298815D01*
X230319463Y-101395506D01*
X230260498Y-101505820D01*
X230224188Y-101625518D01*
X230211928Y-101750000D01*
X226510066Y-101750000D01*
X226566476Y-101643110D01*
X226474352Y-101380142D01*
X226327496Y-101128807D01*
X226134429Y-100910951D01*
X225928278Y-100754462D01*
X225954014Y-100740706D01*
X226180134Y-100555134D01*
X226365706Y-100329014D01*
X226503599Y-100071034D01*
X226588513Y-99791111D01*
X226617185Y-99500000D01*
X226588513Y-99208889D01*
X226503599Y-98928966D01*
X226365706Y-98670986D01*
X226180134Y-98444866D01*
X225954014Y-98259294D01*
X225696034Y-98121401D01*
X225416111Y-98036487D01*
X225197950Y-98015000D01*
X224802050Y-98015000D01*
X224583889Y-98036487D01*
X224303966Y-98121401D01*
X224045986Y-98259294D01*
X223819866Y-98444866D01*
X223634294Y-98670986D01*
X223496401Y-98928966D01*
X223411487Y-99208889D01*
X223382815Y-99500000D01*
X215617185Y-99500000D01*
X215588513Y-99208889D01*
X215503599Y-98928966D01*
X215365706Y-98670986D01*
X215180134Y-98444866D01*
X214954014Y-98259294D01*
X214696034Y-98121401D01*
X214416111Y-98036487D01*
X214197950Y-98015000D01*
X213802050Y-98015000D01*
X213583889Y-98036487D01*
X213303966Y-98121401D01*
X213045986Y-98259294D01*
X212819866Y-98444866D01*
X212634294Y-98670986D01*
X212496401Y-98928966D01*
X212411487Y-99208889D01*
X212382815Y-99500000D01*
X204617185Y-99500000D01*
X204588513Y-99208889D01*
X204503599Y-98928966D01*
X204365706Y-98670986D01*
X204180134Y-98444866D01*
X203954014Y-98259294D01*
X203696034Y-98121401D01*
X203416111Y-98036487D01*
X203197950Y-98015000D01*
X202802050Y-98015000D01*
X202583889Y-98036487D01*
X202303966Y-98121401D01*
X202045986Y-98259294D01*
X201819866Y-98444866D01*
X201634294Y-98670986D01*
X201496401Y-98928966D01*
X201411487Y-99208889D01*
X201382815Y-99500000D01*
X193617185Y-99500000D01*
X193588513Y-99208889D01*
X193503599Y-98928966D01*
X193365706Y-98670986D01*
X193180134Y-98444866D01*
X192954014Y-98259294D01*
X192696034Y-98121401D01*
X192416111Y-98036487D01*
X192197950Y-98015000D01*
X191802050Y-98015000D01*
X191583889Y-98036487D01*
X191303966Y-98121401D01*
X191045986Y-98259294D01*
X190819866Y-98444866D01*
X190634294Y-98670986D01*
X190496401Y-98928966D01*
X190411487Y-99208889D01*
X190382815Y-99500000D01*
X182617185Y-99500000D01*
X182588513Y-99208889D01*
X182503599Y-98928966D01*
X182365706Y-98670986D01*
X182180134Y-98444866D01*
X181954014Y-98259294D01*
X181696034Y-98121401D01*
X181416111Y-98036487D01*
X181197950Y-98015000D01*
X180802050Y-98015000D01*
X180583889Y-98036487D01*
X180303966Y-98121401D01*
X180045986Y-98259294D01*
X179819866Y-98444866D01*
X179634294Y-98670986D01*
X179496401Y-98928966D01*
X179411487Y-99208889D01*
X179382815Y-99500000D01*
X171617185Y-99500000D01*
X171588513Y-99208889D01*
X171503599Y-98928966D01*
X171365706Y-98670986D01*
X171180134Y-98444866D01*
X170954014Y-98259294D01*
X170696034Y-98121401D01*
X170416111Y-98036487D01*
X170197950Y-98015000D01*
X169802050Y-98015000D01*
X169583889Y-98036487D01*
X169303966Y-98121401D01*
X169045986Y-98259294D01*
X168819866Y-98444866D01*
X168634294Y-98670986D01*
X168496401Y-98928966D01*
X168411487Y-99208889D01*
X168382815Y-99500000D01*
X160617185Y-99500000D01*
X160588513Y-99208889D01*
X160503599Y-98928966D01*
X160365706Y-98670986D01*
X160180134Y-98444866D01*
X159954014Y-98259294D01*
X159696034Y-98121401D01*
X159416111Y-98036487D01*
X159197950Y-98015000D01*
X158802050Y-98015000D01*
X158583889Y-98036487D01*
X158303966Y-98121401D01*
X158045986Y-98259294D01*
X157819866Y-98444866D01*
X157634294Y-98670986D01*
X157496401Y-98928966D01*
X157411487Y-99208889D01*
X157382815Y-99500000D01*
X149617185Y-99500000D01*
X149588513Y-99208889D01*
X149503599Y-98928966D01*
X149365706Y-98670986D01*
X149180134Y-98444866D01*
X148954014Y-98259294D01*
X148696034Y-98121401D01*
X148416111Y-98036487D01*
X148197950Y-98015000D01*
X147802050Y-98015000D01*
X147583889Y-98036487D01*
X147303966Y-98121401D01*
X147045986Y-98259294D01*
X146819866Y-98444866D01*
X146634294Y-98670986D01*
X146496401Y-98928966D01*
X146411487Y-99208889D01*
X146382815Y-99500000D01*
X138617185Y-99500000D01*
X138588513Y-99208889D01*
X138503599Y-98928966D01*
X138365706Y-98670986D01*
X138180134Y-98444866D01*
X137954014Y-98259294D01*
X137696034Y-98121401D01*
X137416111Y-98036487D01*
X137197950Y-98015000D01*
X136802050Y-98015000D01*
X136583889Y-98036487D01*
X136303966Y-98121401D01*
X136045986Y-98259294D01*
X135819866Y-98444866D01*
X135634294Y-98670986D01*
X135496401Y-98928966D01*
X135411487Y-99208889D01*
X135382815Y-99500000D01*
X135411487Y-99791111D01*
X135457245Y-99941954D01*
X133728003Y-101671196D01*
X133698999Y-101694999D01*
X133653861Y-101750000D01*
X133604026Y-101810724D01*
X133570739Y-101873000D01*
X133533454Y-101942754D01*
X133489997Y-102086015D01*
X133479000Y-102197668D01*
X133479000Y-102197678D01*
X133475324Y-102235000D01*
X133479000Y-102272322D01*
X133479001Y-116703928D01*
X133334000Y-116703928D01*
X133209518Y-116716188D01*
X133089820Y-116752498D01*
X132979506Y-116811463D01*
X132882815Y-116890815D01*
X132803463Y-116987506D01*
X132744498Y-117097820D01*
X132708188Y-117217518D01*
X132695928Y-117342000D01*
X127614767Y-117342000D01*
X127408729Y-117135962D01*
X127042669Y-116891369D01*
X126635925Y-116722890D01*
X126204128Y-116637000D01*
X125763872Y-116637000D01*
X125332075Y-116722890D01*
X124925331Y-116891369D01*
X124559271Y-117135962D01*
X124247962Y-117447271D01*
X124003369Y-117813331D01*
X123834890Y-118220075D01*
X123749000Y-118651872D01*
X96215000Y-118651872D01*
X96129110Y-118220075D01*
X95960631Y-117813331D01*
X95716038Y-117447271D01*
X95404729Y-117135962D01*
X95038669Y-116891369D01*
X94631925Y-116722890D01*
X94200128Y-116637000D01*
X93759872Y-116637000D01*
X93328075Y-116722890D01*
X92921331Y-116891369D01*
X92555271Y-117135962D01*
X92243962Y-117447271D01*
X91999369Y-117813331D01*
X91830890Y-118220075D01*
X91745000Y-118651872D01*
X87862945Y-118651872D01*
X87839851Y-118639528D01*
X87673255Y-118588992D01*
X87500001Y-118571928D01*
X85699999Y-118571928D01*
X85526745Y-118588992D01*
X85360149Y-118639528D01*
X85206613Y-118721595D01*
X85072038Y-118832038D01*
X84961595Y-118966613D01*
X84879528Y-119120149D01*
X84828992Y-119286745D01*
X84811928Y-119459999D01*
X82127000Y-119459999D01*
X82127000Y-115099999D01*
X84811928Y-115099999D01*
X84811928Y-116900001D01*
X84828992Y-117073255D01*
X84879528Y-117239851D01*
X84961595Y-117393387D01*
X85072038Y-117527962D01*
X85206613Y-117638405D01*
X85360149Y-117720472D01*
X85526745Y-117771008D01*
X85699999Y-117788072D01*
X87500001Y-117788072D01*
X87673255Y-117771008D01*
X87839851Y-117720472D01*
X87993387Y-117638405D01*
X88127962Y-117527962D01*
X88238405Y-117393387D01*
X88320472Y-117239851D01*
X88371008Y-117073255D01*
X88388072Y-116900001D01*
X88388072Y-115099999D01*
X88371008Y-114926745D01*
X88320472Y-114760149D01*
X88238405Y-114606613D01*
X88127962Y-114472038D01*
X87993387Y-114361595D01*
X87839851Y-114279528D01*
X87673255Y-114228992D01*
X87500001Y-114211928D01*
X85699999Y-114211928D01*
X85526745Y-114228992D01*
X85360149Y-114279528D01*
X85206613Y-114361595D01*
X85072038Y-114472038D01*
X84961595Y-114606613D01*
X84879528Y-114760149D01*
X84828992Y-114926745D01*
X84811928Y-115099999D01*
X82127000Y-115099999D01*
X82127000Y-110699999D01*
X84861928Y-110699999D01*
X84861928Y-112500001D01*
X84878992Y-112673255D01*
X84929528Y-112839851D01*
X85011595Y-112993387D01*
X85122038Y-113127962D01*
X85256613Y-113238405D01*
X85410149Y-113320472D01*
X85576745Y-113371008D01*
X85749999Y-113388072D01*
X87550001Y-113388072D01*
X87723255Y-113371008D01*
X87889851Y-113320472D01*
X88043387Y-113238405D01*
X88177962Y-113127962D01*
X88288405Y-112993387D01*
X88370472Y-112839851D01*
X88421008Y-112673255D01*
X88438072Y-112500001D01*
X88438072Y-110699999D01*
X88421008Y-110526745D01*
X88370472Y-110360149D01*
X88288405Y-110206613D01*
X88177962Y-110072038D01*
X88043387Y-109961595D01*
X87889851Y-109879528D01*
X87723255Y-109828992D01*
X87550001Y-109811928D01*
X85749999Y-109811928D01*
X85576745Y-109828992D01*
X85410149Y-109879528D01*
X85256613Y-109961595D01*
X85122038Y-110072038D01*
X85011595Y-110206613D01*
X84929528Y-110360149D01*
X84878992Y-110526745D01*
X84861928Y-110699999D01*
X82127000Y-110699999D01*
X82127000Y-106299999D01*
X84861928Y-106299999D01*
X84861928Y-108100001D01*
X84878992Y-108273255D01*
X84929528Y-108439851D01*
X85011595Y-108593387D01*
X85122038Y-108727962D01*
X85256613Y-108838405D01*
X85410149Y-108920472D01*
X85576745Y-108971008D01*
X85749999Y-108988072D01*
X87550001Y-108988072D01*
X87723255Y-108971008D01*
X87889851Y-108920472D01*
X88043387Y-108838405D01*
X88177962Y-108727962D01*
X88288405Y-108593387D01*
X88370472Y-108439851D01*
X88421008Y-108273255D01*
X88438072Y-108100001D01*
X88438072Y-106299999D01*
X88421008Y-106126745D01*
X88370472Y-105960149D01*
X88288405Y-105806613D01*
X88177962Y-105672038D01*
X88043387Y-105561595D01*
X87889851Y-105479528D01*
X87723255Y-105428992D01*
X87550001Y-105411928D01*
X85749999Y-105411928D01*
X85576745Y-105428992D01*
X85410149Y-105479528D01*
X85256613Y-105561595D01*
X85122038Y-105672038D01*
X85011595Y-105806613D01*
X84929528Y-105960149D01*
X84878992Y-106126745D01*
X84861928Y-106299999D01*
X82127000Y-106299999D01*
X82127000Y-103950000D01*
X84861928Y-103950000D01*
X84874188Y-104074482D01*
X84910498Y-104194180D01*
X84969463Y-104304494D01*
X85048815Y-104401185D01*
X85145506Y-104480537D01*
X85255820Y-104539502D01*
X85375518Y-104575812D01*
X85500000Y-104588072D01*
X86364250Y-104585000D01*
X86523000Y-104426250D01*
X86523000Y-102927000D01*
X86777000Y-102927000D01*
X86777000Y-104426250D01*
X86935750Y-104585000D01*
X87800000Y-104588072D01*
X87924482Y-104575812D01*
X88044180Y-104539502D01*
X88118081Y-104500000D01*
X91382815Y-104500000D01*
X91411487Y-104791111D01*
X91496401Y-105071034D01*
X91634294Y-105329014D01*
X91819866Y-105555134D01*
X92045986Y-105740706D01*
X92063374Y-105750000D01*
X92045986Y-105759294D01*
X91819866Y-105944866D01*
X91634294Y-106170986D01*
X91496401Y-106428966D01*
X91411487Y-106708889D01*
X91382815Y-107000000D01*
X91411487Y-107291111D01*
X91496401Y-107571034D01*
X91634294Y-107829014D01*
X91819866Y-108055134D01*
X92045986Y-108240706D01*
X92063374Y-108250000D01*
X92045986Y-108259294D01*
X91819866Y-108444866D01*
X91634294Y-108670986D01*
X91496401Y-108928966D01*
X91411487Y-109208889D01*
X91382815Y-109500000D01*
X91411487Y-109791111D01*
X91496401Y-110071034D01*
X91634294Y-110329014D01*
X91819866Y-110555134D01*
X91883337Y-110607223D01*
X91781614Y-110661595D01*
X91647038Y-110772038D01*
X91536595Y-110906614D01*
X91454528Y-111060150D01*
X91403992Y-111226746D01*
X91386928Y-111400000D01*
X91386928Y-112600000D01*
X91403992Y-112773254D01*
X91454528Y-112939850D01*
X91536595Y-113093386D01*
X91647038Y-113227962D01*
X91781614Y-113338405D01*
X91935150Y-113420472D01*
X92101746Y-113471008D01*
X92275000Y-113488072D01*
X93725000Y-113488072D01*
X93898254Y-113471008D01*
X94064850Y-113420472D01*
X94218386Y-113338405D01*
X94352962Y-113227962D01*
X94463405Y-113093386D01*
X94545472Y-112939850D01*
X94596008Y-112773254D01*
X94613072Y-112600000D01*
X94613072Y-111400000D01*
X94596008Y-111226746D01*
X94545472Y-111060150D01*
X94463405Y-110906614D01*
X94352962Y-110772038D01*
X94218386Y-110661595D01*
X94116663Y-110607223D01*
X94180134Y-110555134D01*
X94365706Y-110329014D01*
X94503599Y-110071034D01*
X94588513Y-109791111D01*
X94617185Y-109500000D01*
X94588513Y-109208889D01*
X94503599Y-108928966D01*
X94365706Y-108670986D01*
X94180134Y-108444866D01*
X93954014Y-108259294D01*
X93936626Y-108250000D01*
X93954014Y-108240706D01*
X94180134Y-108055134D01*
X94365706Y-107829014D01*
X94503599Y-107571034D01*
X94588513Y-107291111D01*
X94617185Y-107000000D01*
X94588513Y-106708889D01*
X94503599Y-106428966D01*
X94365706Y-106170986D01*
X94180134Y-105944866D01*
X93954014Y-105759294D01*
X93936626Y-105750000D01*
X93954014Y-105740706D01*
X94180134Y-105555134D01*
X94365706Y-105329014D01*
X94503599Y-105071034D01*
X94588513Y-104791111D01*
X94617185Y-104500000D01*
X102382815Y-104500000D01*
X102411487Y-104791111D01*
X102496401Y-105071034D01*
X102634294Y-105329014D01*
X102819866Y-105555134D01*
X103045986Y-105740706D01*
X103063374Y-105750000D01*
X103045986Y-105759294D01*
X102819866Y-105944866D01*
X102634294Y-106170986D01*
X102496401Y-106428966D01*
X102411487Y-106708889D01*
X102382815Y-107000000D01*
X102411487Y-107291111D01*
X102496401Y-107571034D01*
X102634294Y-107829014D01*
X102819866Y-108055134D01*
X103045986Y-108240706D01*
X103063374Y-108250000D01*
X103045986Y-108259294D01*
X102819866Y-108444866D01*
X102634294Y-108670986D01*
X102496401Y-108928966D01*
X102411487Y-109208889D01*
X102382815Y-109500000D01*
X102411487Y-109791111D01*
X102496401Y-110071034D01*
X102634294Y-110329014D01*
X102819866Y-110555134D01*
X102883337Y-110607223D01*
X102781614Y-110661595D01*
X102647038Y-110772038D01*
X102536595Y-110906614D01*
X102454528Y-111060150D01*
X102403992Y-111226746D01*
X102386928Y-111400000D01*
X102386928Y-112600000D01*
X102403992Y-112773254D01*
X102454528Y-112939850D01*
X102536595Y-113093386D01*
X102647038Y-113227962D01*
X102781614Y-113338405D01*
X102935150Y-113420472D01*
X103101746Y-113471008D01*
X103275000Y-113488072D01*
X104725000Y-113488072D01*
X104898254Y-113471008D01*
X105064850Y-113420472D01*
X105218386Y-113338405D01*
X105352962Y-113227962D01*
X105463405Y-113093386D01*
X105545472Y-112939850D01*
X105596008Y-112773254D01*
X105613072Y-112600000D01*
X105613072Y-111400000D01*
X105596008Y-111226746D01*
X105545472Y-111060150D01*
X105463405Y-110906614D01*
X105352962Y-110772038D01*
X105218386Y-110661595D01*
X105116663Y-110607223D01*
X105180134Y-110555134D01*
X105365706Y-110329014D01*
X105503599Y-110071034D01*
X105588513Y-109791111D01*
X105617185Y-109500000D01*
X105588513Y-109208889D01*
X105503599Y-108928966D01*
X105365706Y-108670986D01*
X105180134Y-108444866D01*
X104954014Y-108259294D01*
X104936626Y-108250000D01*
X104954014Y-108240706D01*
X105180134Y-108055134D01*
X105365706Y-107829014D01*
X105503599Y-107571034D01*
X105588513Y-107291111D01*
X105617185Y-107000000D01*
X105588513Y-106708889D01*
X105503599Y-106428966D01*
X105365706Y-106170986D01*
X105180134Y-105944866D01*
X104954014Y-105759294D01*
X104936626Y-105750000D01*
X104954014Y-105740706D01*
X105180134Y-105555134D01*
X105365706Y-105329014D01*
X105503599Y-105071034D01*
X105588513Y-104791111D01*
X105617185Y-104500000D01*
X113382815Y-104500000D01*
X113411487Y-104791111D01*
X113496401Y-105071034D01*
X113634294Y-105329014D01*
X113819866Y-105555134D01*
X114045986Y-105740706D01*
X114063374Y-105750000D01*
X114045986Y-105759294D01*
X113819866Y-105944866D01*
X113634294Y-106170986D01*
X113496401Y-106428966D01*
X113411487Y-106708889D01*
X113382815Y-107000000D01*
X113411487Y-107291111D01*
X113496401Y-107571034D01*
X113634294Y-107829014D01*
X113819866Y-108055134D01*
X114045986Y-108240706D01*
X114063374Y-108250000D01*
X114045986Y-108259294D01*
X113819866Y-108444866D01*
X113634294Y-108670986D01*
X113496401Y-108928966D01*
X113411487Y-109208889D01*
X113382815Y-109500000D01*
X113411487Y-109791111D01*
X113496401Y-110071034D01*
X113634294Y-110329014D01*
X113819866Y-110555134D01*
X113883337Y-110607223D01*
X113781614Y-110661595D01*
X113647038Y-110772038D01*
X113536595Y-110906614D01*
X113454528Y-111060150D01*
X113403992Y-111226746D01*
X113386928Y-111400000D01*
X113386928Y-112600000D01*
X113403992Y-112773254D01*
X113454528Y-112939850D01*
X113536595Y-113093386D01*
X113647038Y-113227962D01*
X113781614Y-113338405D01*
X113935150Y-113420472D01*
X114101746Y-113471008D01*
X114275000Y-113488072D01*
X115725000Y-113488072D01*
X115898254Y-113471008D01*
X116064850Y-113420472D01*
X116218386Y-113338405D01*
X116352962Y-113227962D01*
X116463405Y-113093386D01*
X116545472Y-112939850D01*
X116596008Y-112773254D01*
X116613072Y-112600000D01*
X116613072Y-111400000D01*
X116596008Y-111226746D01*
X116545472Y-111060150D01*
X116463405Y-110906614D01*
X116352962Y-110772038D01*
X116218386Y-110661595D01*
X116116663Y-110607223D01*
X116180134Y-110555134D01*
X116365706Y-110329014D01*
X116503599Y-110071034D01*
X116588513Y-109791111D01*
X116617185Y-109500000D01*
X116588513Y-109208889D01*
X116503599Y-108928966D01*
X116365706Y-108670986D01*
X116180134Y-108444866D01*
X115954014Y-108259294D01*
X115936626Y-108250000D01*
X115954014Y-108240706D01*
X116180134Y-108055134D01*
X116365706Y-107829014D01*
X116503599Y-107571034D01*
X116588513Y-107291111D01*
X116617185Y-107000000D01*
X116588513Y-106708889D01*
X116503599Y-106428966D01*
X116365706Y-106170986D01*
X116180134Y-105944866D01*
X115954014Y-105759294D01*
X115936626Y-105750000D01*
X115954014Y-105740706D01*
X116180134Y-105555134D01*
X116365706Y-105329014D01*
X116503599Y-105071034D01*
X116588513Y-104791111D01*
X116617185Y-104500000D01*
X124382815Y-104500000D01*
X124411487Y-104791111D01*
X124496401Y-105071034D01*
X124634294Y-105329014D01*
X124819866Y-105555134D01*
X125045986Y-105740706D01*
X125063374Y-105750000D01*
X125045986Y-105759294D01*
X124819866Y-105944866D01*
X124634294Y-106170986D01*
X124496401Y-106428966D01*
X124411487Y-106708889D01*
X124382815Y-107000000D01*
X124411487Y-107291111D01*
X124496401Y-107571034D01*
X124634294Y-107829014D01*
X124819866Y-108055134D01*
X125045986Y-108240706D01*
X125063374Y-108250000D01*
X125045986Y-108259294D01*
X124819866Y-108444866D01*
X124634294Y-108670986D01*
X124496401Y-108928966D01*
X124411487Y-109208889D01*
X124382815Y-109500000D01*
X124411487Y-109791111D01*
X124496401Y-110071034D01*
X124634294Y-110329014D01*
X124819866Y-110555134D01*
X124883337Y-110607223D01*
X124781614Y-110661595D01*
X124647038Y-110772038D01*
X124536595Y-110906614D01*
X124454528Y-111060150D01*
X124403992Y-111226746D01*
X124386928Y-111400000D01*
X124386928Y-112600000D01*
X124403992Y-112773254D01*
X124454528Y-112939850D01*
X124536595Y-113093386D01*
X124647038Y-113227962D01*
X124781614Y-113338405D01*
X124935150Y-113420472D01*
X125101746Y-113471008D01*
X125275000Y-113488072D01*
X126725000Y-113488072D01*
X126898254Y-113471008D01*
X127064850Y-113420472D01*
X127218386Y-113338405D01*
X127352962Y-113227962D01*
X127463405Y-113093386D01*
X127545472Y-112939850D01*
X127596008Y-112773254D01*
X127613072Y-112600000D01*
X127613072Y-111400000D01*
X127596008Y-111226746D01*
X127545472Y-111060150D01*
X127463405Y-110906614D01*
X127352962Y-110772038D01*
X127218386Y-110661595D01*
X127116663Y-110607223D01*
X127180134Y-110555134D01*
X127365706Y-110329014D01*
X127503599Y-110071034D01*
X127588513Y-109791111D01*
X127617185Y-109500000D01*
X127588513Y-109208889D01*
X127503599Y-108928966D01*
X127365706Y-108670986D01*
X127180134Y-108444866D01*
X126954014Y-108259294D01*
X126936626Y-108250000D01*
X126954014Y-108240706D01*
X127180134Y-108055134D01*
X127365706Y-107829014D01*
X127503599Y-107571034D01*
X127588513Y-107291111D01*
X127617185Y-107000000D01*
X127588513Y-106708889D01*
X127503599Y-106428966D01*
X127365706Y-106170986D01*
X127180134Y-105944866D01*
X126954014Y-105759294D01*
X126936626Y-105750000D01*
X126954014Y-105740706D01*
X127180134Y-105555134D01*
X127365706Y-105329014D01*
X127503599Y-105071034D01*
X127588513Y-104791111D01*
X127617185Y-104500000D01*
X127588513Y-104208889D01*
X127503599Y-103928966D01*
X127365706Y-103670986D01*
X127180134Y-103444866D01*
X126954014Y-103259294D01*
X126928278Y-103245538D01*
X127134429Y-103089049D01*
X127327496Y-102871193D01*
X127474352Y-102619858D01*
X127566476Y-102356890D01*
X127445155Y-102127000D01*
X126127000Y-102127000D01*
X126127000Y-102147000D01*
X125873000Y-102147000D01*
X125873000Y-102127000D01*
X124554845Y-102127000D01*
X124433524Y-102356890D01*
X124525648Y-102619858D01*
X124672504Y-102871193D01*
X124865571Y-103089049D01*
X125071722Y-103245538D01*
X125045986Y-103259294D01*
X124819866Y-103444866D01*
X124634294Y-103670986D01*
X124496401Y-103928966D01*
X124411487Y-104208889D01*
X124382815Y-104500000D01*
X116617185Y-104500000D01*
X116588513Y-104208889D01*
X116503599Y-103928966D01*
X116365706Y-103670986D01*
X116180134Y-103444866D01*
X115954014Y-103259294D01*
X115928278Y-103245538D01*
X116134429Y-103089049D01*
X116327496Y-102871193D01*
X116474352Y-102619858D01*
X116566476Y-102356890D01*
X116445155Y-102127000D01*
X115127000Y-102127000D01*
X115127000Y-102147000D01*
X114873000Y-102147000D01*
X114873000Y-102127000D01*
X113554845Y-102127000D01*
X113433524Y-102356890D01*
X113525648Y-102619858D01*
X113672504Y-102871193D01*
X113865571Y-103089049D01*
X114071722Y-103245538D01*
X114045986Y-103259294D01*
X113819866Y-103444866D01*
X113634294Y-103670986D01*
X113496401Y-103928966D01*
X113411487Y-104208889D01*
X113382815Y-104500000D01*
X105617185Y-104500000D01*
X105588513Y-104208889D01*
X105503599Y-103928966D01*
X105365706Y-103670986D01*
X105180134Y-103444866D01*
X104954014Y-103259294D01*
X104928278Y-103245538D01*
X105134429Y-103089049D01*
X105327496Y-102871193D01*
X105474352Y-102619858D01*
X105566476Y-102356890D01*
X105445155Y-102127000D01*
X104127000Y-102127000D01*
X104127000Y-102147000D01*
X103873000Y-102147000D01*
X103873000Y-102127000D01*
X102554845Y-102127000D01*
X102433524Y-102356890D01*
X102525648Y-102619858D01*
X102672504Y-102871193D01*
X102865571Y-103089049D01*
X103071722Y-103245538D01*
X103045986Y-103259294D01*
X102819866Y-103444866D01*
X102634294Y-103670986D01*
X102496401Y-103928966D01*
X102411487Y-104208889D01*
X102382815Y-104500000D01*
X94617185Y-104500000D01*
X94588513Y-104208889D01*
X94503599Y-103928966D01*
X94365706Y-103670986D01*
X94180134Y-103444866D01*
X93954014Y-103259294D01*
X93928278Y-103245538D01*
X94134429Y-103089049D01*
X94327496Y-102871193D01*
X94474352Y-102619858D01*
X94566476Y-102356890D01*
X94445155Y-102127000D01*
X93127000Y-102127000D01*
X93127000Y-102147000D01*
X92873000Y-102147000D01*
X92873000Y-102127000D01*
X91554845Y-102127000D01*
X91433524Y-102356890D01*
X91525648Y-102619858D01*
X91672504Y-102871193D01*
X91865571Y-103089049D01*
X92071722Y-103245538D01*
X92045986Y-103259294D01*
X91819866Y-103444866D01*
X91634294Y-103670986D01*
X91496401Y-103928966D01*
X91411487Y-104208889D01*
X91382815Y-104500000D01*
X88118081Y-104500000D01*
X88154494Y-104480537D01*
X88251185Y-104401185D01*
X88330537Y-104304494D01*
X88389502Y-104194180D01*
X88425812Y-104074482D01*
X88438072Y-103950000D01*
X88435000Y-103085750D01*
X88276250Y-102927000D01*
X86777000Y-102927000D01*
X86523000Y-102927000D01*
X85023750Y-102927000D01*
X84865000Y-103085750D01*
X84861928Y-103950000D01*
X82127000Y-103950000D01*
X82127000Y-101650000D01*
X84861928Y-101650000D01*
X84865000Y-102514250D01*
X85023750Y-102673000D01*
X86523000Y-102673000D01*
X86523000Y-101173750D01*
X86777000Y-101173750D01*
X86777000Y-102673000D01*
X88276250Y-102673000D01*
X88435000Y-102514250D01*
X88438072Y-101650000D01*
X88425812Y-101525518D01*
X88389502Y-101405820D01*
X88330537Y-101295506D01*
X88251185Y-101198815D01*
X88154494Y-101119463D01*
X88044180Y-101060498D01*
X87924482Y-101024188D01*
X87800000Y-101011928D01*
X86935750Y-101015000D01*
X86777000Y-101173750D01*
X86523000Y-101173750D01*
X86364250Y-101015000D01*
X85500000Y-101011928D01*
X85375518Y-101024188D01*
X85255820Y-101060498D01*
X85145506Y-101119463D01*
X85048815Y-101198815D01*
X84969463Y-101295506D01*
X84910498Y-101405820D01*
X84874188Y-101525518D01*
X84861928Y-101650000D01*
X82127000Y-101650000D01*
X82127000Y-97599999D01*
X84861928Y-97599999D01*
X84861928Y-99400001D01*
X84878992Y-99573255D01*
X84929528Y-99739851D01*
X85011595Y-99893387D01*
X85122038Y-100027962D01*
X85256613Y-100138405D01*
X85410149Y-100220472D01*
X85576745Y-100271008D01*
X85749999Y-100288072D01*
X87550001Y-100288072D01*
X87723255Y-100271008D01*
X87889851Y-100220472D01*
X88043387Y-100138405D01*
X88177962Y-100027962D01*
X88288405Y-99893387D01*
X88370472Y-99739851D01*
X88421008Y-99573255D01*
X88428222Y-99500000D01*
X91382815Y-99500000D01*
X91411487Y-99791111D01*
X91496401Y-100071034D01*
X91634294Y-100329014D01*
X91819866Y-100555134D01*
X92045986Y-100740706D01*
X92071722Y-100754462D01*
X91865571Y-100910951D01*
X91672504Y-101128807D01*
X91525648Y-101380142D01*
X91433524Y-101643110D01*
X91554845Y-101873000D01*
X92873000Y-101873000D01*
X92873000Y-101853000D01*
X93127000Y-101853000D01*
X93127000Y-101873000D01*
X94445155Y-101873000D01*
X94566476Y-101643110D01*
X94474352Y-101380142D01*
X94327496Y-101128807D01*
X94134429Y-100910951D01*
X93928278Y-100754462D01*
X93954014Y-100740706D01*
X94180134Y-100555134D01*
X94365706Y-100329014D01*
X94503599Y-100071034D01*
X94588513Y-99791111D01*
X94617185Y-99500000D01*
X102382815Y-99500000D01*
X102411487Y-99791111D01*
X102496401Y-100071034D01*
X102634294Y-100329014D01*
X102819866Y-100555134D01*
X103045986Y-100740706D01*
X103071722Y-100754462D01*
X102865571Y-100910951D01*
X102672504Y-101128807D01*
X102525648Y-101380142D01*
X102433524Y-101643110D01*
X102554845Y-101873000D01*
X103873000Y-101873000D01*
X103873000Y-101853000D01*
X104127000Y-101853000D01*
X104127000Y-101873000D01*
X105445155Y-101873000D01*
X105566476Y-101643110D01*
X105474352Y-101380142D01*
X105327496Y-101128807D01*
X105134429Y-100910951D01*
X104928278Y-100754462D01*
X104954014Y-100740706D01*
X105180134Y-100555134D01*
X105365706Y-100329014D01*
X105503599Y-100071034D01*
X105588513Y-99791111D01*
X105617185Y-99500000D01*
X113382815Y-99500000D01*
X113411487Y-99791111D01*
X113496401Y-100071034D01*
X113634294Y-100329014D01*
X113819866Y-100555134D01*
X114045986Y-100740706D01*
X114071722Y-100754462D01*
X113865571Y-100910951D01*
X113672504Y-101128807D01*
X113525648Y-101380142D01*
X113433524Y-101643110D01*
X113554845Y-101873000D01*
X114873000Y-101873000D01*
X114873000Y-101853000D01*
X115127000Y-101853000D01*
X115127000Y-101873000D01*
X116445155Y-101873000D01*
X116566476Y-101643110D01*
X116474352Y-101380142D01*
X116327496Y-101128807D01*
X116134429Y-100910951D01*
X115928278Y-100754462D01*
X115954014Y-100740706D01*
X116180134Y-100555134D01*
X116365706Y-100329014D01*
X116503599Y-100071034D01*
X116588513Y-99791111D01*
X116617185Y-99500000D01*
X124382815Y-99500000D01*
X124411487Y-99791111D01*
X124496401Y-100071034D01*
X124634294Y-100329014D01*
X124819866Y-100555134D01*
X125045986Y-100740706D01*
X125071722Y-100754462D01*
X124865571Y-100910951D01*
X124672504Y-101128807D01*
X124525648Y-101380142D01*
X124433524Y-101643110D01*
X124554845Y-101873000D01*
X125873000Y-101873000D01*
X125873000Y-101853000D01*
X126127000Y-101853000D01*
X126127000Y-101873000D01*
X127445155Y-101873000D01*
X127566476Y-101643110D01*
X127474352Y-101380142D01*
X127327496Y-101128807D01*
X127134429Y-100910951D01*
X126928278Y-100754462D01*
X126954014Y-100740706D01*
X127180134Y-100555134D01*
X127365706Y-100329014D01*
X127503599Y-100071034D01*
X127588513Y-99791111D01*
X127617185Y-99500000D01*
X127588513Y-99208889D01*
X127503599Y-98928966D01*
X127365706Y-98670986D01*
X127180134Y-98444866D01*
X126954014Y-98259294D01*
X126696034Y-98121401D01*
X126416111Y-98036487D01*
X126197950Y-98015000D01*
X125802050Y-98015000D01*
X125583889Y-98036487D01*
X125303966Y-98121401D01*
X125045986Y-98259294D01*
X124819866Y-98444866D01*
X124634294Y-98670986D01*
X124496401Y-98928966D01*
X124411487Y-99208889D01*
X124382815Y-99500000D01*
X116617185Y-99500000D01*
X116588513Y-99208889D01*
X116503599Y-98928966D01*
X116365706Y-98670986D01*
X116180134Y-98444866D01*
X115954014Y-98259294D01*
X115696034Y-98121401D01*
X115416111Y-98036487D01*
X115197950Y-98015000D01*
X114802050Y-98015000D01*
X114583889Y-98036487D01*
X114303966Y-98121401D01*
X114045986Y-98259294D01*
X113819866Y-98444866D01*
X113634294Y-98670986D01*
X113496401Y-98928966D01*
X113411487Y-99208889D01*
X113382815Y-99500000D01*
X105617185Y-99500000D01*
X105588513Y-99208889D01*
X105503599Y-98928966D01*
X105365706Y-98670986D01*
X105180134Y-98444866D01*
X104954014Y-98259294D01*
X104696034Y-98121401D01*
X104416111Y-98036487D01*
X104197950Y-98015000D01*
X103802050Y-98015000D01*
X103583889Y-98036487D01*
X103303966Y-98121401D01*
X103045986Y-98259294D01*
X102819866Y-98444866D01*
X102634294Y-98670986D01*
X102496401Y-98928966D01*
X102411487Y-99208889D01*
X102382815Y-99500000D01*
X94617185Y-99500000D01*
X94588513Y-99208889D01*
X94503599Y-98928966D01*
X94365706Y-98670986D01*
X94180134Y-98444866D01*
X93954014Y-98259294D01*
X93696034Y-98121401D01*
X93416111Y-98036487D01*
X93197950Y-98015000D01*
X92802050Y-98015000D01*
X92583889Y-98036487D01*
X92303966Y-98121401D01*
X92045986Y-98259294D01*
X91819866Y-98444866D01*
X91634294Y-98670986D01*
X91496401Y-98928966D01*
X91411487Y-99208889D01*
X91382815Y-99500000D01*
X88428222Y-99500000D01*
X88438072Y-99400001D01*
X88438072Y-97599999D01*
X230211928Y-97599999D01*
X230211928Y-99400001D01*
X230228992Y-99573255D01*
X230279528Y-99739851D01*
X230361595Y-99893387D01*
X230472038Y-100027962D01*
X230606613Y-100138405D01*
X230760149Y-100220472D01*
X230926745Y-100271008D01*
X231099999Y-100288072D01*
X232900001Y-100288072D01*
X233073255Y-100271008D01*
X233239851Y-100220472D01*
X233393387Y-100138405D01*
X233527962Y-100027962D01*
X233638405Y-99893387D01*
X233720472Y-99739851D01*
X233771008Y-99573255D01*
X233788072Y-99400001D01*
X233788072Y-97599999D01*
X233771008Y-97426745D01*
X233720472Y-97260149D01*
X233638405Y-97106613D01*
X233527962Y-96972038D01*
X233393387Y-96861595D01*
X233239851Y-96779528D01*
X233073255Y-96728992D01*
X232900001Y-96711928D01*
X231099999Y-96711928D01*
X230926745Y-96728992D01*
X230760149Y-96779528D01*
X230606613Y-96861595D01*
X230472038Y-96972038D01*
X230361595Y-97106613D01*
X230279528Y-97260149D01*
X230228992Y-97426745D01*
X230211928Y-97599999D01*
X88438072Y-97599999D01*
X88421008Y-97426745D01*
X88370472Y-97260149D01*
X88288405Y-97106613D01*
X88177962Y-96972038D01*
X88043387Y-96861595D01*
X87889851Y-96779528D01*
X87723255Y-96728992D01*
X87550001Y-96711928D01*
X85749999Y-96711928D01*
X85576745Y-96728992D01*
X85410149Y-96779528D01*
X85256613Y-96861595D01*
X85122038Y-96972038D01*
X85011595Y-97106613D01*
X84929528Y-97260149D01*
X84878992Y-97426745D01*
X84861928Y-97599999D01*
X82127000Y-97599999D01*
X82127000Y-96160000D01*
X235840001Y-96160000D01*
X235840000Y-122590000D01*
%TA.AperFunction,Conductor*%
D18*
G36*
X235840000Y-122590000D02*
G01*
X82127000Y-122590000D01*
X82127000Y-119459999D01*
X84811928Y-119459999D01*
X84811928Y-121260001D01*
X84828992Y-121433255D01*
X84879528Y-121599851D01*
X84961595Y-121753387D01*
X85072038Y-121887962D01*
X85206613Y-121998405D01*
X85360149Y-122080472D01*
X85526745Y-122131008D01*
X85699999Y-122148072D01*
X87500001Y-122148072D01*
X87673255Y-122131008D01*
X87839851Y-122080472D01*
X87993387Y-121998405D01*
X88127962Y-121887962D01*
X88238405Y-121753387D01*
X88320472Y-121599851D01*
X88371008Y-121433255D01*
X88388072Y-121260001D01*
X88388072Y-119459999D01*
X88371008Y-119286745D01*
X88320472Y-119120149D01*
X88238405Y-118966613D01*
X88127962Y-118832038D01*
X87993387Y-118721595D01*
X87862945Y-118651872D01*
X91745000Y-118651872D01*
X91745000Y-119092128D01*
X91830890Y-119523925D01*
X91999369Y-119930669D01*
X92243962Y-120296729D01*
X92555271Y-120608038D01*
X92921331Y-120852631D01*
X93328075Y-121021110D01*
X93759872Y-121107000D01*
X94200128Y-121107000D01*
X94631925Y-121021110D01*
X95038669Y-120852631D01*
X95404729Y-120608038D01*
X95716038Y-120296729D01*
X95960631Y-119930669D01*
X96129110Y-119523925D01*
X96215000Y-119092128D01*
X96215000Y-118651872D01*
X123749000Y-118651872D01*
X123749000Y-119092128D01*
X123834890Y-119523925D01*
X124003369Y-119930669D01*
X124247962Y-120296729D01*
X124559271Y-120608038D01*
X124925331Y-120852631D01*
X125332075Y-121021110D01*
X125763872Y-121107000D01*
X126204128Y-121107000D01*
X126635925Y-121021110D01*
X127042669Y-120852631D01*
X127408729Y-120608038D01*
X127720038Y-120296729D01*
X127964631Y-119930669D01*
X128133110Y-119523925D01*
X128219000Y-119092128D01*
X128219000Y-118651872D01*
X128133110Y-118220075D01*
X127964631Y-117813331D01*
X127720038Y-117447271D01*
X127614767Y-117342000D01*
X132695928Y-117342000D01*
X132695928Y-119142000D01*
X132708188Y-119266482D01*
X132744498Y-119386180D01*
X132803463Y-119496494D01*
X132882815Y-119593185D01*
X132979506Y-119672537D01*
X133089820Y-119731502D01*
X133209518Y-119767812D01*
X133334000Y-119780072D01*
X135134000Y-119780072D01*
X135258482Y-119767812D01*
X135378180Y-119731502D01*
X135488494Y-119672537D01*
X135585185Y-119593185D01*
X135664537Y-119496494D01*
X135723502Y-119386180D01*
X135729056Y-119367873D01*
X135795495Y-119434312D01*
X136046905Y-119602299D01*
X136326257Y-119718011D01*
X136622816Y-119777000D01*
X136925184Y-119777000D01*
X137221743Y-119718011D01*
X137501095Y-119602299D01*
X137752505Y-119434312D01*
X137966312Y-119220505D01*
X138134299Y-118969095D01*
X138166161Y-118892174D01*
X138269753Y-118947546D01*
X138413014Y-118991003D01*
X138562000Y-119005677D01*
X138599333Y-119002000D01*
X139355687Y-119002000D01*
X139501688Y-119220505D01*
X139715495Y-119434312D01*
X139966905Y-119602299D01*
X140246257Y-119718011D01*
X140542816Y-119777000D01*
X140845184Y-119777000D01*
X141141743Y-119718011D01*
X141421095Y-119602299D01*
X141672505Y-119434312D01*
X141738944Y-119367873D01*
X141744498Y-119386180D01*
X141803463Y-119496494D01*
X141882815Y-119593185D01*
X141979506Y-119672537D01*
X142089820Y-119731502D01*
X142209518Y-119767812D01*
X142334000Y-119780072D01*
X144134000Y-119780072D01*
X144258482Y-119767812D01*
X144378180Y-119731502D01*
X144488494Y-119672537D01*
X144585185Y-119593185D01*
X144664537Y-119496494D01*
X144723502Y-119386180D01*
X144759812Y-119266482D01*
X144772072Y-119142000D01*
X144772072Y-117342000D01*
X144759812Y-117217518D01*
X144723502Y-117097820D01*
X144664537Y-116987506D01*
X144585185Y-116890815D01*
X144488494Y-116811463D01*
X144378180Y-116752498D01*
X144258482Y-116716188D01*
X144134000Y-116703928D01*
X142334000Y-116703928D01*
X142209518Y-116716188D01*
X142089820Y-116752498D01*
X141979506Y-116811463D01*
X141882815Y-116890815D01*
X141803463Y-116987506D01*
X141744498Y-117097820D01*
X141738944Y-117116127D01*
X141672505Y-117049688D01*
X141421095Y-116881701D01*
X141141743Y-116765989D01*
X140845184Y-116707000D01*
X140542816Y-116707000D01*
X140246257Y-116765989D01*
X139966905Y-116881701D01*
X139715495Y-117049688D01*
X139501688Y-117263495D01*
X139355687Y-117482000D01*
X138876802Y-117482000D01*
X135449011Y-114054210D01*
X135449011Y-112921663D01*
X135454528Y-112939850D01*
X135536595Y-113093386D01*
X135647038Y-113227962D01*
X135781614Y-113338405D01*
X135935150Y-113420472D01*
X136101746Y-113471008D01*
X136275000Y-113488072D01*
X137725000Y-113488072D01*
X137898254Y-113471008D01*
X138064850Y-113420472D01*
X138218386Y-113338405D01*
X138352962Y-113227962D01*
X138463405Y-113093386D01*
X138545472Y-112939850D01*
X138596008Y-112773254D01*
X138613072Y-112600000D01*
X138613072Y-111400000D01*
X138596008Y-111226746D01*
X138545472Y-111060150D01*
X138463405Y-110906614D01*
X138352962Y-110772038D01*
X138218386Y-110661595D01*
X138116663Y-110607223D01*
X138180134Y-110555134D01*
X138365706Y-110329014D01*
X138503599Y-110071034D01*
X138588513Y-109791111D01*
X138617185Y-109500000D01*
X138588513Y-109208889D01*
X138503599Y-108928966D01*
X138365706Y-108670986D01*
X138180134Y-108444866D01*
X137954014Y-108259294D01*
X137936626Y-108250000D01*
X137954014Y-108240706D01*
X138180134Y-108055134D01*
X138365706Y-107829014D01*
X138503599Y-107571034D01*
X138588513Y-107291111D01*
X138617185Y-107000000D01*
X138588513Y-106708889D01*
X138511800Y-106455999D01*
X145280325Y-106455999D01*
X145284001Y-106493321D01*
X145284002Y-117304669D01*
X145280325Y-117342001D01*
X145294999Y-117490986D01*
X145338455Y-117634247D01*
X145409027Y-117766277D01*
X145460966Y-117829564D01*
X145409000Y-118090816D01*
X145409000Y-118393184D01*
X145467989Y-118689743D01*
X145583701Y-118969095D01*
X145751688Y-119220505D01*
X145965495Y-119434312D01*
X146216905Y-119602299D01*
X146496257Y-119718011D01*
X146792816Y-119777000D01*
X147095184Y-119777000D01*
X147391743Y-119718011D01*
X147671095Y-119602299D01*
X147922505Y-119434312D01*
X147988944Y-119367873D01*
X147994498Y-119386180D01*
X148053463Y-119496494D01*
X148132815Y-119593185D01*
X148229506Y-119672537D01*
X148339820Y-119731502D01*
X148459518Y-119767812D01*
X148584000Y-119780072D01*
X150384000Y-119780072D01*
X150508482Y-119767812D01*
X150628180Y-119731502D01*
X150738494Y-119672537D01*
X150835185Y-119593185D01*
X150914537Y-119496494D01*
X150973502Y-119386180D01*
X151009812Y-119266482D01*
X151022072Y-119142000D01*
X151022072Y-118651872D01*
X155753000Y-118651872D01*
X155753000Y-119092128D01*
X155838890Y-119523925D01*
X156007369Y-119930669D01*
X156251962Y-120296729D01*
X156563271Y-120608038D01*
X156929331Y-120852631D01*
X157336075Y-121021110D01*
X157767872Y-121107000D01*
X158208128Y-121107000D01*
X158639925Y-121021110D01*
X159046669Y-120852631D01*
X159181312Y-120762665D01*
X162141000Y-120762665D01*
X162141000Y-121045335D01*
X162196147Y-121322574D01*
X162304320Y-121583727D01*
X162461363Y-121818759D01*
X162661241Y-122018637D01*
X162896273Y-122175680D01*
X163157426Y-122283853D01*
X163434665Y-122339000D01*
X163717335Y-122339000D01*
X163994574Y-122283853D01*
X164255727Y-122175680D01*
X164490759Y-122018637D01*
X164612694Y-121896702D01*
X170382903Y-121896702D01*
X170454486Y-122140671D01*
X170709996Y-122261571D01*
X170984184Y-122330300D01*
X171266512Y-122344217D01*
X171546130Y-122302787D01*
X171812292Y-122207603D01*
X171937514Y-122140671D01*
X172009097Y-121896702D01*
X171196000Y-121083605D01*
X170382903Y-121896702D01*
X164612694Y-121896702D01*
X164690637Y-121818759D01*
X164847680Y-121583727D01*
X164955853Y-121322574D01*
X165011000Y-121045335D01*
X165011000Y-120974512D01*
X169755783Y-120974512D01*
X169797213Y-121254130D01*
X169892397Y-121520292D01*
X169959329Y-121645514D01*
X170203298Y-121717097D01*
X171016395Y-120904000D01*
X171375605Y-120904000D01*
X172188702Y-121717097D01*
X172432671Y-121645514D01*
X172553571Y-121390004D01*
X172622300Y-121115816D01*
X172636217Y-120833488D01*
X172594787Y-120553870D01*
X172499603Y-120287708D01*
X172432671Y-120162486D01*
X172188702Y-120090903D01*
X171375605Y-120904000D01*
X171016395Y-120904000D01*
X170203298Y-120090903D01*
X169959329Y-120162486D01*
X169838429Y-120417996D01*
X169769700Y-120692184D01*
X169755783Y-120974512D01*
X165011000Y-120974512D01*
X165011000Y-120762665D01*
X164955853Y-120485426D01*
X164847680Y-120224273D01*
X164690637Y-119989241D01*
X164612694Y-119911298D01*
X170382903Y-119911298D01*
X171196000Y-120724395D01*
X172009097Y-119911298D01*
X171937514Y-119667329D01*
X171682004Y-119546429D01*
X171407816Y-119477700D01*
X171125488Y-119463783D01*
X170845870Y-119505213D01*
X170579708Y-119600397D01*
X170454486Y-119667329D01*
X170382903Y-119911298D01*
X164612694Y-119911298D01*
X164490759Y-119789363D01*
X164255727Y-119632320D01*
X163994574Y-119524147D01*
X163717335Y-119469000D01*
X163434665Y-119469000D01*
X163157426Y-119524147D01*
X162896273Y-119632320D01*
X162661241Y-119789363D01*
X162461363Y-119989241D01*
X162304320Y-120224273D01*
X162196147Y-120485426D01*
X162141000Y-120762665D01*
X159181312Y-120762665D01*
X159412729Y-120608038D01*
X159724038Y-120296729D01*
X159968631Y-119930669D01*
X160137110Y-119523925D01*
X160223000Y-119092128D01*
X160223000Y-118651872D01*
X160137110Y-118220075D01*
X159968631Y-117813331D01*
X159902705Y-117714665D01*
X162141000Y-117714665D01*
X162141000Y-117997335D01*
X162196147Y-118274574D01*
X162304320Y-118535727D01*
X162461363Y-118770759D01*
X162661241Y-118970637D01*
X162896273Y-119127680D01*
X163157426Y-119235853D01*
X163434665Y-119291000D01*
X163717335Y-119291000D01*
X163994574Y-119235853D01*
X164255727Y-119127680D01*
X164490759Y-118970637D01*
X164612694Y-118848702D01*
X170382903Y-118848702D01*
X170454486Y-119092671D01*
X170709996Y-119213571D01*
X170984184Y-119282300D01*
X171266512Y-119296217D01*
X171546130Y-119254787D01*
X171812292Y-119159603D01*
X171937514Y-119092671D01*
X172009097Y-118848702D01*
X171196000Y-118035605D01*
X170382903Y-118848702D01*
X164612694Y-118848702D01*
X164690637Y-118770759D01*
X164847680Y-118535727D01*
X164955853Y-118274574D01*
X165011000Y-117997335D01*
X165011000Y-117926512D01*
X169755783Y-117926512D01*
X169797213Y-118206130D01*
X169892397Y-118472292D01*
X169959329Y-118597514D01*
X170203298Y-118669097D01*
X171016395Y-117856000D01*
X171375605Y-117856000D01*
X172188702Y-118669097D01*
X172432671Y-118597514D01*
X172553571Y-118342004D01*
X172622300Y-118067816D01*
X172636217Y-117785488D01*
X172625724Y-117714665D01*
X174333000Y-117714665D01*
X174333000Y-117997335D01*
X174388147Y-118274574D01*
X174496320Y-118535727D01*
X174653363Y-118770759D01*
X174853241Y-118970637D01*
X175088273Y-119127680D01*
X175349426Y-119235853D01*
X175626665Y-119291000D01*
X175909335Y-119291000D01*
X176186574Y-119235853D01*
X176447727Y-119127680D01*
X176682759Y-118970637D01*
X176804694Y-118848702D01*
X182574903Y-118848702D01*
X182646486Y-119092671D01*
X182901996Y-119213571D01*
X183176184Y-119282300D01*
X183458512Y-119296217D01*
X183738130Y-119254787D01*
X184004292Y-119159603D01*
X184129514Y-119092671D01*
X184201097Y-118848702D01*
X183388000Y-118035605D01*
X182574903Y-118848702D01*
X176804694Y-118848702D01*
X176882637Y-118770759D01*
X177039680Y-118535727D01*
X177147853Y-118274574D01*
X177203000Y-117997335D01*
X177203000Y-117926512D01*
X181947783Y-117926512D01*
X181989213Y-118206130D01*
X182084397Y-118472292D01*
X182151329Y-118597514D01*
X182395298Y-118669097D01*
X183208395Y-117856000D01*
X183567605Y-117856000D01*
X184380702Y-118669097D01*
X184439408Y-118651872D01*
X187757000Y-118651872D01*
X187757000Y-119092128D01*
X187842890Y-119523925D01*
X188011369Y-119930669D01*
X188255962Y-120296729D01*
X188567271Y-120608038D01*
X188933331Y-120852631D01*
X189340075Y-121021110D01*
X189771872Y-121107000D01*
X190212128Y-121107000D01*
X190643925Y-121021110D01*
X191050669Y-120852631D01*
X191416729Y-120608038D01*
X191728038Y-120296729D01*
X191972631Y-119930669D01*
X192141110Y-119523925D01*
X192227000Y-119092128D01*
X192227000Y-118651872D01*
X220777000Y-118651872D01*
X220777000Y-119092128D01*
X220862890Y-119523925D01*
X221031369Y-119930669D01*
X221275962Y-120296729D01*
X221587271Y-120608038D01*
X221953331Y-120852631D01*
X222360075Y-121021110D01*
X222791872Y-121107000D01*
X223232128Y-121107000D01*
X223663925Y-121021110D01*
X224070669Y-120852631D01*
X224436729Y-120608038D01*
X224748038Y-120296729D01*
X224992631Y-119930669D01*
X225161110Y-119523925D01*
X225165869Y-119499999D01*
X230211928Y-119499999D01*
X230211928Y-121300001D01*
X230228992Y-121473255D01*
X230279528Y-121639851D01*
X230361595Y-121793387D01*
X230472038Y-121927962D01*
X230606613Y-122038405D01*
X230760149Y-122120472D01*
X230926745Y-122171008D01*
X231099999Y-122188072D01*
X232900001Y-122188072D01*
X233073255Y-122171008D01*
X233239851Y-122120472D01*
X233393387Y-122038405D01*
X233527962Y-121927962D01*
X233638405Y-121793387D01*
X233720472Y-121639851D01*
X233771008Y-121473255D01*
X233788072Y-121300001D01*
X233788072Y-119499999D01*
X233771008Y-119326745D01*
X233720472Y-119160149D01*
X233638405Y-119006613D01*
X233527962Y-118872038D01*
X233393387Y-118761595D01*
X233239851Y-118679528D01*
X233073255Y-118628992D01*
X232900001Y-118611928D01*
X231099999Y-118611928D01*
X230926745Y-118628992D01*
X230760149Y-118679528D01*
X230606613Y-118761595D01*
X230472038Y-118872038D01*
X230361595Y-119006613D01*
X230279528Y-119160149D01*
X230228992Y-119326745D01*
X230211928Y-119499999D01*
X225165869Y-119499999D01*
X225247000Y-119092128D01*
X225247000Y-118651872D01*
X225161110Y-118220075D01*
X224992631Y-117813331D01*
X224748038Y-117447271D01*
X224436729Y-117135962D01*
X224070669Y-116891369D01*
X223663925Y-116722890D01*
X223232128Y-116637000D01*
X222791872Y-116637000D01*
X222360075Y-116722890D01*
X221953331Y-116891369D01*
X221587271Y-117135962D01*
X221275962Y-117447271D01*
X221031369Y-117813331D01*
X220862890Y-118220075D01*
X220777000Y-118651872D01*
X192227000Y-118651872D01*
X192141110Y-118220075D01*
X191972631Y-117813331D01*
X191728038Y-117447271D01*
X191416729Y-117135962D01*
X191050669Y-116891369D01*
X190643925Y-116722890D01*
X190212128Y-116637000D01*
X189771872Y-116637000D01*
X189340075Y-116722890D01*
X188933331Y-116891369D01*
X188567271Y-117135962D01*
X188255962Y-117447271D01*
X188011369Y-117813331D01*
X187842890Y-118220075D01*
X187757000Y-118651872D01*
X184439408Y-118651872D01*
X184624671Y-118597514D01*
X184745571Y-118342004D01*
X184814300Y-118067816D01*
X184828217Y-117785488D01*
X184786787Y-117505870D01*
X184691603Y-117239708D01*
X184624671Y-117114486D01*
X184380702Y-117042903D01*
X183567605Y-117856000D01*
X183208395Y-117856000D01*
X182395298Y-117042903D01*
X182151329Y-117114486D01*
X182030429Y-117369996D01*
X181961700Y-117644184D01*
X181947783Y-117926512D01*
X177203000Y-117926512D01*
X177203000Y-117714665D01*
X177147853Y-117437426D01*
X177039680Y-117176273D01*
X176882637Y-116941241D01*
X176804694Y-116863298D01*
X182574903Y-116863298D01*
X183388000Y-117676395D01*
X184201097Y-116863298D01*
X184129514Y-116619329D01*
X183874004Y-116498429D01*
X183599816Y-116429700D01*
X183317488Y-116415783D01*
X183037870Y-116457213D01*
X182771708Y-116552397D01*
X182646486Y-116619329D01*
X182574903Y-116863298D01*
X176804694Y-116863298D01*
X176682759Y-116741363D01*
X176447727Y-116584320D01*
X176186574Y-116476147D01*
X175909335Y-116421000D01*
X175626665Y-116421000D01*
X175349426Y-116476147D01*
X175088273Y-116584320D01*
X174853241Y-116741363D01*
X174653363Y-116941241D01*
X174496320Y-117176273D01*
X174388147Y-117437426D01*
X174333000Y-117714665D01*
X172625724Y-117714665D01*
X172594787Y-117505870D01*
X172499603Y-117239708D01*
X172432671Y-117114486D01*
X172188702Y-117042903D01*
X171375605Y-117856000D01*
X171016395Y-117856000D01*
X170203298Y-117042903D01*
X169959329Y-117114486D01*
X169838429Y-117369996D01*
X169769700Y-117644184D01*
X169755783Y-117926512D01*
X165011000Y-117926512D01*
X165011000Y-117714665D01*
X164955853Y-117437426D01*
X164847680Y-117176273D01*
X164690637Y-116941241D01*
X164612694Y-116863298D01*
X170382903Y-116863298D01*
X171196000Y-117676395D01*
X172009097Y-116863298D01*
X171937514Y-116619329D01*
X171682004Y-116498429D01*
X171407816Y-116429700D01*
X171125488Y-116415783D01*
X170845870Y-116457213D01*
X170579708Y-116552397D01*
X170454486Y-116619329D01*
X170382903Y-116863298D01*
X164612694Y-116863298D01*
X164490759Y-116741363D01*
X164255727Y-116584320D01*
X163994574Y-116476147D01*
X163717335Y-116421000D01*
X163434665Y-116421000D01*
X163157426Y-116476147D01*
X162896273Y-116584320D01*
X162661241Y-116741363D01*
X162461363Y-116941241D01*
X162304320Y-117176273D01*
X162196147Y-117437426D01*
X162141000Y-117714665D01*
X159902705Y-117714665D01*
X159724038Y-117447271D01*
X159412729Y-117135962D01*
X159046669Y-116891369D01*
X158639925Y-116722890D01*
X158208128Y-116637000D01*
X157767872Y-116637000D01*
X157336075Y-116722890D01*
X156929331Y-116891369D01*
X156563271Y-117135962D01*
X156251962Y-117447271D01*
X156007369Y-117813331D01*
X155838890Y-118220075D01*
X155753000Y-118651872D01*
X151022072Y-118651872D01*
X151022072Y-117342000D01*
X151009812Y-117217518D01*
X150973502Y-117097820D01*
X150914537Y-116987506D01*
X150835185Y-116890815D01*
X150738494Y-116811463D01*
X150628180Y-116752498D01*
X150508482Y-116716188D01*
X150384000Y-116703928D01*
X148584000Y-116703928D01*
X148459518Y-116716188D01*
X148339820Y-116752498D01*
X148229506Y-116811463D01*
X148132815Y-116890815D01*
X148053463Y-116987506D01*
X147994498Y-117097820D01*
X147988944Y-117116127D01*
X147922505Y-117049688D01*
X147671095Y-116881701D01*
X147391743Y-116765989D01*
X147095184Y-116707000D01*
X146804001Y-116707000D01*
X146804001Y-115199999D01*
X230211928Y-115199999D01*
X230211928Y-117000001D01*
X230228992Y-117173255D01*
X230279528Y-117339851D01*
X230361595Y-117493387D01*
X230472038Y-117627962D01*
X230606613Y-117738405D01*
X230760149Y-117820472D01*
X230926745Y-117871008D01*
X231099999Y-117888072D01*
X232900001Y-117888072D01*
X233073255Y-117871008D01*
X233239851Y-117820472D01*
X233393387Y-117738405D01*
X233527962Y-117627962D01*
X233638405Y-117493387D01*
X233720472Y-117339851D01*
X233771008Y-117173255D01*
X233788072Y-117000001D01*
X233788072Y-115199999D01*
X233771008Y-115026745D01*
X233720472Y-114860149D01*
X233638405Y-114706613D01*
X233527962Y-114572038D01*
X233393387Y-114461595D01*
X233239851Y-114379528D01*
X233073255Y-114328992D01*
X232900001Y-114311928D01*
X231099999Y-114311928D01*
X230926745Y-114328992D01*
X230760149Y-114379528D01*
X230606613Y-114461595D01*
X230472038Y-114572038D01*
X230361595Y-114706613D01*
X230279528Y-114860149D01*
X230228992Y-115026745D01*
X230211928Y-115199999D01*
X146804001Y-115199999D01*
X146804001Y-113350371D01*
X146935150Y-113420472D01*
X147101746Y-113471008D01*
X147275000Y-113488072D01*
X148725000Y-113488072D01*
X148898254Y-113471008D01*
X149064850Y-113420472D01*
X149218386Y-113338405D01*
X149352962Y-113227962D01*
X149463405Y-113093386D01*
X149545472Y-112939850D01*
X149596008Y-112773254D01*
X149613072Y-112600000D01*
X149613072Y-111400000D01*
X149596008Y-111226746D01*
X149545472Y-111060150D01*
X149463405Y-110906614D01*
X149352962Y-110772038D01*
X149218386Y-110661595D01*
X149116663Y-110607223D01*
X149180134Y-110555134D01*
X149365706Y-110329014D01*
X149503599Y-110071034D01*
X149588513Y-109791111D01*
X149617185Y-109500000D01*
X149588513Y-109208889D01*
X149503599Y-108928966D01*
X149365706Y-108670986D01*
X149180134Y-108444866D01*
X148954014Y-108259294D01*
X148936626Y-108250000D01*
X148954014Y-108240706D01*
X149180134Y-108055134D01*
X149365706Y-107829014D01*
X149503599Y-107571034D01*
X149588513Y-107291111D01*
X149617185Y-107000000D01*
X149588513Y-106708889D01*
X149503599Y-106428966D01*
X149365706Y-106170986D01*
X149180134Y-105944866D01*
X148954014Y-105759294D01*
X148936626Y-105750000D01*
X148954014Y-105740706D01*
X149180134Y-105555134D01*
X149365706Y-105329014D01*
X149503599Y-105071034D01*
X149588513Y-104791111D01*
X149617185Y-104500000D01*
X157382815Y-104500000D01*
X157411487Y-104791111D01*
X157496401Y-105071034D01*
X157634294Y-105329014D01*
X157819866Y-105555134D01*
X158045986Y-105740706D01*
X158063374Y-105750000D01*
X158045986Y-105759294D01*
X157819866Y-105944866D01*
X157634294Y-106170986D01*
X157496401Y-106428966D01*
X157411487Y-106708889D01*
X157382815Y-107000000D01*
X157411487Y-107291111D01*
X157496401Y-107571034D01*
X157634294Y-107829014D01*
X157819866Y-108055134D01*
X158045986Y-108240706D01*
X158063374Y-108250000D01*
X158045986Y-108259294D01*
X157819866Y-108444866D01*
X157634294Y-108670986D01*
X157496401Y-108928966D01*
X157411487Y-109208889D01*
X157382815Y-109500000D01*
X157411487Y-109791111D01*
X157496401Y-110071034D01*
X157634294Y-110329014D01*
X157819866Y-110555134D01*
X157883337Y-110607223D01*
X157781614Y-110661595D01*
X157647038Y-110772038D01*
X157536595Y-110906614D01*
X157454528Y-111060150D01*
X157403992Y-111226746D01*
X157386928Y-111400000D01*
X157386928Y-112600000D01*
X157403992Y-112773254D01*
X157454528Y-112939850D01*
X157536595Y-113093386D01*
X157647038Y-113227962D01*
X157781614Y-113338405D01*
X157935150Y-113420472D01*
X158101746Y-113471008D01*
X158275000Y-113488072D01*
X159725000Y-113488072D01*
X159898254Y-113471008D01*
X160064850Y-113420472D01*
X160218386Y-113338405D01*
X160352962Y-113227962D01*
X160463405Y-113093386D01*
X160545472Y-112939850D01*
X160596008Y-112773254D01*
X160613072Y-112600000D01*
X160613072Y-111400000D01*
X160596008Y-111226746D01*
X160545472Y-111060150D01*
X160463405Y-110906614D01*
X160352962Y-110772038D01*
X160218386Y-110661595D01*
X160116663Y-110607223D01*
X160180134Y-110555134D01*
X160365706Y-110329014D01*
X160503599Y-110071034D01*
X160588513Y-109791111D01*
X160617185Y-109500000D01*
X160588513Y-109208889D01*
X160503599Y-108928966D01*
X160365706Y-108670986D01*
X160180134Y-108444866D01*
X159954014Y-108259294D01*
X159936626Y-108250000D01*
X159954014Y-108240706D01*
X160180134Y-108055134D01*
X160365706Y-107829014D01*
X160503599Y-107571034D01*
X160588513Y-107291111D01*
X160617185Y-107000000D01*
X160588513Y-106708889D01*
X160503599Y-106428966D01*
X160365706Y-106170986D01*
X160180134Y-105944866D01*
X159954014Y-105759294D01*
X159936626Y-105750000D01*
X159954014Y-105740706D01*
X160180134Y-105555134D01*
X160365706Y-105329014D01*
X160503599Y-105071034D01*
X160588513Y-104791111D01*
X160617185Y-104500000D01*
X168382815Y-104500000D01*
X168411487Y-104791111D01*
X168496401Y-105071034D01*
X168634294Y-105329014D01*
X168819866Y-105555134D01*
X169045986Y-105740706D01*
X169063374Y-105750000D01*
X169045986Y-105759294D01*
X168819866Y-105944866D01*
X168634294Y-106170986D01*
X168496401Y-106428966D01*
X168411487Y-106708889D01*
X168382815Y-107000000D01*
X168411487Y-107291111D01*
X168496401Y-107571034D01*
X168634294Y-107829014D01*
X168819866Y-108055134D01*
X169045986Y-108240706D01*
X169063374Y-108250000D01*
X169045986Y-108259294D01*
X168819866Y-108444866D01*
X168634294Y-108670986D01*
X168496401Y-108928966D01*
X168411487Y-109208889D01*
X168382815Y-109500000D01*
X168411487Y-109791111D01*
X168496401Y-110071034D01*
X168634294Y-110329014D01*
X168819866Y-110555134D01*
X168883337Y-110607223D01*
X168781614Y-110661595D01*
X168647038Y-110772038D01*
X168536595Y-110906614D01*
X168454528Y-111060150D01*
X168403992Y-111226746D01*
X168386928Y-111400000D01*
X168386928Y-112600000D01*
X168403992Y-112773254D01*
X168454528Y-112939850D01*
X168536595Y-113093386D01*
X168647038Y-113227962D01*
X168781614Y-113338405D01*
X168935150Y-113420472D01*
X169101746Y-113471008D01*
X169275000Y-113488072D01*
X170725000Y-113488072D01*
X170898254Y-113471008D01*
X171064850Y-113420472D01*
X171218386Y-113338405D01*
X171352962Y-113227962D01*
X171463405Y-113093386D01*
X171545472Y-112939850D01*
X171596008Y-112773254D01*
X171613072Y-112600000D01*
X171613072Y-111400000D01*
X171596008Y-111226746D01*
X171545472Y-111060150D01*
X171463405Y-110906614D01*
X171352962Y-110772038D01*
X171218386Y-110661595D01*
X171116663Y-110607223D01*
X171180134Y-110555134D01*
X171365706Y-110329014D01*
X171503599Y-110071034D01*
X171588513Y-109791111D01*
X171617185Y-109500000D01*
X171588513Y-109208889D01*
X171503599Y-108928966D01*
X171365706Y-108670986D01*
X171180134Y-108444866D01*
X170954014Y-108259294D01*
X170936626Y-108250000D01*
X170954014Y-108240706D01*
X171180134Y-108055134D01*
X171365706Y-107829014D01*
X171503599Y-107571034D01*
X171588513Y-107291111D01*
X171617185Y-107000000D01*
X171588513Y-106708889D01*
X171503599Y-106428966D01*
X171365706Y-106170986D01*
X171180134Y-105944866D01*
X170954014Y-105759294D01*
X170936626Y-105750000D01*
X170954014Y-105740706D01*
X171180134Y-105555134D01*
X171365706Y-105329014D01*
X171503599Y-105071034D01*
X171588513Y-104791111D01*
X171617185Y-104500000D01*
X179382815Y-104500000D01*
X179411487Y-104791111D01*
X179496401Y-105071034D01*
X179634294Y-105329014D01*
X179819866Y-105555134D01*
X180045986Y-105740706D01*
X180063374Y-105750000D01*
X180045986Y-105759294D01*
X179819866Y-105944866D01*
X179634294Y-106170986D01*
X179496401Y-106428966D01*
X179411487Y-106708889D01*
X179382815Y-107000000D01*
X179411487Y-107291111D01*
X179496401Y-107571034D01*
X179634294Y-107829014D01*
X179819866Y-108055134D01*
X180045986Y-108240706D01*
X180063374Y-108250000D01*
X180045986Y-108259294D01*
X179819866Y-108444866D01*
X179634294Y-108670986D01*
X179496401Y-108928966D01*
X179411487Y-109208889D01*
X179382815Y-109500000D01*
X179411487Y-109791111D01*
X179496401Y-110071034D01*
X179634294Y-110329014D01*
X179819866Y-110555134D01*
X179883337Y-110607223D01*
X179781614Y-110661595D01*
X179647038Y-110772038D01*
X179536595Y-110906614D01*
X179454528Y-111060150D01*
X179403992Y-111226746D01*
X179386928Y-111400000D01*
X179386928Y-112600000D01*
X179403992Y-112773254D01*
X179454528Y-112939850D01*
X179536595Y-113093386D01*
X179647038Y-113227962D01*
X179781614Y-113338405D01*
X179935150Y-113420472D01*
X180101746Y-113471008D01*
X180275000Y-113488072D01*
X181725000Y-113488072D01*
X181898254Y-113471008D01*
X182064850Y-113420472D01*
X182218386Y-113338405D01*
X182352962Y-113227962D01*
X182463405Y-113093386D01*
X182545472Y-112939850D01*
X182596008Y-112773254D01*
X182613072Y-112600000D01*
X182613072Y-111400000D01*
X182596008Y-111226746D01*
X182545472Y-111060150D01*
X182463405Y-110906614D01*
X182352962Y-110772038D01*
X182218386Y-110661595D01*
X182116663Y-110607223D01*
X182180134Y-110555134D01*
X182365706Y-110329014D01*
X182503599Y-110071034D01*
X182588513Y-109791111D01*
X182617185Y-109500000D01*
X182588513Y-109208889D01*
X182503599Y-108928966D01*
X182365706Y-108670986D01*
X182180134Y-108444866D01*
X181954014Y-108259294D01*
X181936626Y-108250000D01*
X181954014Y-108240706D01*
X182180134Y-108055134D01*
X182365706Y-107829014D01*
X182503599Y-107571034D01*
X182588513Y-107291111D01*
X182617185Y-107000000D01*
X182588513Y-106708889D01*
X182503599Y-106428966D01*
X182365706Y-106170986D01*
X182180134Y-105944866D01*
X181954014Y-105759294D01*
X181936626Y-105750000D01*
X181954014Y-105740706D01*
X182180134Y-105555134D01*
X182365706Y-105329014D01*
X182503599Y-105071034D01*
X182588513Y-104791111D01*
X182617185Y-104500000D01*
X190382815Y-104500000D01*
X190411487Y-104791111D01*
X190496401Y-105071034D01*
X190634294Y-105329014D01*
X190819866Y-105555134D01*
X191045986Y-105740706D01*
X191063374Y-105750000D01*
X191045986Y-105759294D01*
X190819866Y-105944866D01*
X190634294Y-106170986D01*
X190496401Y-106428966D01*
X190411487Y-106708889D01*
X190382815Y-107000000D01*
X190411487Y-107291111D01*
X190496401Y-107571034D01*
X190634294Y-107829014D01*
X190819866Y-108055134D01*
X191045986Y-108240706D01*
X191063374Y-108250000D01*
X191045986Y-108259294D01*
X190819866Y-108444866D01*
X190634294Y-108670986D01*
X190496401Y-108928966D01*
X190411487Y-109208889D01*
X190382815Y-109500000D01*
X190411487Y-109791111D01*
X190496401Y-110071034D01*
X190634294Y-110329014D01*
X190819866Y-110555134D01*
X190883337Y-110607223D01*
X190781614Y-110661595D01*
X190647038Y-110772038D01*
X190536595Y-110906614D01*
X190454528Y-111060150D01*
X190403992Y-111226746D01*
X190386928Y-111400000D01*
X190386928Y-112600000D01*
X190403992Y-112773254D01*
X190454528Y-112939850D01*
X190536595Y-113093386D01*
X190647038Y-113227962D01*
X190781614Y-113338405D01*
X190935150Y-113420472D01*
X191101746Y-113471008D01*
X191275000Y-113488072D01*
X192725000Y-113488072D01*
X192898254Y-113471008D01*
X193064850Y-113420472D01*
X193218386Y-113338405D01*
X193352962Y-113227962D01*
X193463405Y-113093386D01*
X193545472Y-112939850D01*
X193596008Y-112773254D01*
X193613072Y-112600000D01*
X193613072Y-111400000D01*
X193596008Y-111226746D01*
X193545472Y-111060150D01*
X193463405Y-110906614D01*
X193352962Y-110772038D01*
X193218386Y-110661595D01*
X193116663Y-110607223D01*
X193180134Y-110555134D01*
X193365706Y-110329014D01*
X193503599Y-110071034D01*
X193588513Y-109791111D01*
X193617185Y-109500000D01*
X193588513Y-109208889D01*
X193503599Y-108928966D01*
X193365706Y-108670986D01*
X193180134Y-108444866D01*
X192954014Y-108259294D01*
X192936626Y-108250000D01*
X192954014Y-108240706D01*
X193180134Y-108055134D01*
X193365706Y-107829014D01*
X193503599Y-107571034D01*
X193588513Y-107291111D01*
X193617185Y-107000000D01*
X193588513Y-106708889D01*
X193503599Y-106428966D01*
X193365706Y-106170986D01*
X193180134Y-105944866D01*
X192954014Y-105759294D01*
X192936626Y-105750000D01*
X192954014Y-105740706D01*
X193180134Y-105555134D01*
X193365706Y-105329014D01*
X193503599Y-105071034D01*
X193588513Y-104791111D01*
X193617185Y-104500000D01*
X201382815Y-104500000D01*
X201411487Y-104791111D01*
X201496401Y-105071034D01*
X201634294Y-105329014D01*
X201819866Y-105555134D01*
X202045986Y-105740706D01*
X202063374Y-105750000D01*
X202045986Y-105759294D01*
X201819866Y-105944866D01*
X201634294Y-106170986D01*
X201496401Y-106428966D01*
X201411487Y-106708889D01*
X201382815Y-107000000D01*
X201411487Y-107291111D01*
X201496401Y-107571034D01*
X201634294Y-107829014D01*
X201819866Y-108055134D01*
X202045986Y-108240706D01*
X202063374Y-108250000D01*
X202045986Y-108259294D01*
X201819866Y-108444866D01*
X201634294Y-108670986D01*
X201496401Y-108928966D01*
X201411487Y-109208889D01*
X201382815Y-109500000D01*
X201411487Y-109791111D01*
X201496401Y-110071034D01*
X201634294Y-110329014D01*
X201819866Y-110555134D01*
X201883337Y-110607223D01*
X201781614Y-110661595D01*
X201647038Y-110772038D01*
X201536595Y-110906614D01*
X201454528Y-111060150D01*
X201403992Y-111226746D01*
X201386928Y-111400000D01*
X201386928Y-112600000D01*
X201403992Y-112773254D01*
X201454528Y-112939850D01*
X201536595Y-113093386D01*
X201647038Y-113227962D01*
X201781614Y-113338405D01*
X201935150Y-113420472D01*
X202101746Y-113471008D01*
X202275000Y-113488072D01*
X203725000Y-113488072D01*
X203898254Y-113471008D01*
X204064850Y-113420472D01*
X204218386Y-113338405D01*
X204352962Y-113227962D01*
X204463405Y-113093386D01*
X204545472Y-112939850D01*
X204596008Y-112773254D01*
X204613072Y-112600000D01*
X204613072Y-111400000D01*
X204596008Y-111226746D01*
X204545472Y-111060150D01*
X204463405Y-110906614D01*
X204352962Y-110772038D01*
X204218386Y-110661595D01*
X204116663Y-110607223D01*
X204180134Y-110555134D01*
X204365706Y-110329014D01*
X204503599Y-110071034D01*
X204588513Y-109791111D01*
X204617185Y-109500000D01*
X204588513Y-109208889D01*
X204503599Y-108928966D01*
X204365706Y-108670986D01*
X204180134Y-108444866D01*
X203954014Y-108259294D01*
X203936626Y-108250000D01*
X203954014Y-108240706D01*
X204180134Y-108055134D01*
X204365706Y-107829014D01*
X204503599Y-107571034D01*
X204588513Y-107291111D01*
X204617185Y-107000000D01*
X204588513Y-106708889D01*
X204503599Y-106428966D01*
X204365706Y-106170986D01*
X204180134Y-105944866D01*
X203954014Y-105759294D01*
X203936626Y-105750000D01*
X203954014Y-105740706D01*
X204180134Y-105555134D01*
X204365706Y-105329014D01*
X204503599Y-105071034D01*
X204588513Y-104791111D01*
X204617185Y-104500000D01*
X212382815Y-104500000D01*
X212411487Y-104791111D01*
X212496401Y-105071034D01*
X212634294Y-105329014D01*
X212819866Y-105555134D01*
X213045986Y-105740706D01*
X213063374Y-105750000D01*
X213045986Y-105759294D01*
X212819866Y-105944866D01*
X212634294Y-106170986D01*
X212496401Y-106428966D01*
X212411487Y-106708889D01*
X212382815Y-107000000D01*
X212411487Y-107291111D01*
X212496401Y-107571034D01*
X212634294Y-107829014D01*
X212819866Y-108055134D01*
X213045986Y-108240706D01*
X213063374Y-108250000D01*
X213045986Y-108259294D01*
X212819866Y-108444866D01*
X212634294Y-108670986D01*
X212496401Y-108928966D01*
X212411487Y-109208889D01*
X212382815Y-109500000D01*
X212411487Y-109791111D01*
X212496401Y-110071034D01*
X212634294Y-110329014D01*
X212819866Y-110555134D01*
X212883337Y-110607223D01*
X212781614Y-110661595D01*
X212647038Y-110772038D01*
X212536595Y-110906614D01*
X212454528Y-111060150D01*
X212403992Y-111226746D01*
X212386928Y-111400000D01*
X212386928Y-112600000D01*
X212403992Y-112773254D01*
X212454528Y-112939850D01*
X212536595Y-113093386D01*
X212647038Y-113227962D01*
X212781614Y-113338405D01*
X212935150Y-113420472D01*
X213101746Y-113471008D01*
X213275000Y-113488072D01*
X214725000Y-113488072D01*
X214898254Y-113471008D01*
X215064850Y-113420472D01*
X215218386Y-113338405D01*
X215352962Y-113227962D01*
X215463405Y-113093386D01*
X215545472Y-112939850D01*
X215596008Y-112773254D01*
X215613072Y-112600000D01*
X215613072Y-111400000D01*
X215596008Y-111226746D01*
X215545472Y-111060150D01*
X215463405Y-110906614D01*
X215352962Y-110772038D01*
X215218386Y-110661595D01*
X215116663Y-110607223D01*
X215180134Y-110555134D01*
X215365706Y-110329014D01*
X215503599Y-110071034D01*
X215588513Y-109791111D01*
X215617185Y-109500000D01*
X215588513Y-109208889D01*
X215503599Y-108928966D01*
X215365706Y-108670986D01*
X215180134Y-108444866D01*
X214954014Y-108259294D01*
X214936626Y-108250000D01*
X214954014Y-108240706D01*
X215180134Y-108055134D01*
X215365706Y-107829014D01*
X215503599Y-107571034D01*
X215588513Y-107291111D01*
X215617185Y-107000000D01*
X215588513Y-106708889D01*
X215503599Y-106428966D01*
X215365706Y-106170986D01*
X215180134Y-105944866D01*
X214954014Y-105759294D01*
X214936626Y-105750000D01*
X214954014Y-105740706D01*
X215180134Y-105555134D01*
X215365706Y-105329014D01*
X215503599Y-105071034D01*
X215588513Y-104791111D01*
X215617185Y-104500000D01*
X223382815Y-104500000D01*
X223411487Y-104791111D01*
X223496401Y-105071034D01*
X223634294Y-105329014D01*
X223819866Y-105555134D01*
X224045986Y-105740706D01*
X224063374Y-105750000D01*
X224045986Y-105759294D01*
X223819866Y-105944866D01*
X223634294Y-106170986D01*
X223496401Y-106428966D01*
X223411487Y-106708889D01*
X223382815Y-107000000D01*
X223411487Y-107291111D01*
X223496401Y-107571034D01*
X223634294Y-107829014D01*
X223819866Y-108055134D01*
X224045986Y-108240706D01*
X224063374Y-108250000D01*
X224045986Y-108259294D01*
X223819866Y-108444866D01*
X223634294Y-108670986D01*
X223496401Y-108928966D01*
X223411487Y-109208889D01*
X223382815Y-109500000D01*
X223411487Y-109791111D01*
X223496401Y-110071034D01*
X223634294Y-110329014D01*
X223819866Y-110555134D01*
X223883337Y-110607223D01*
X223781614Y-110661595D01*
X223647038Y-110772038D01*
X223536595Y-110906614D01*
X223454528Y-111060150D01*
X223403992Y-111226746D01*
X223386928Y-111400000D01*
X223386928Y-112600000D01*
X223403992Y-112773254D01*
X223454528Y-112939850D01*
X223536595Y-113093386D01*
X223647038Y-113227962D01*
X223781614Y-113338405D01*
X223935150Y-113420472D01*
X224101746Y-113471008D01*
X224275000Y-113488072D01*
X225725000Y-113488072D01*
X225898254Y-113471008D01*
X226064850Y-113420472D01*
X226218386Y-113338405D01*
X226352962Y-113227962D01*
X226463405Y-113093386D01*
X226545472Y-112939850D01*
X226596008Y-112773254D01*
X226613072Y-112600000D01*
X226613072Y-111400000D01*
X226596008Y-111226746D01*
X226545472Y-111060150D01*
X226463405Y-110906614D01*
X226375909Y-110799999D01*
X230211928Y-110799999D01*
X230211928Y-112600001D01*
X230228992Y-112773255D01*
X230279528Y-112939851D01*
X230361595Y-113093387D01*
X230472038Y-113227962D01*
X230606613Y-113338405D01*
X230760149Y-113420472D01*
X230926745Y-113471008D01*
X231099999Y-113488072D01*
X232900001Y-113488072D01*
X233073255Y-113471008D01*
X233239851Y-113420472D01*
X233393387Y-113338405D01*
X233527962Y-113227962D01*
X233638405Y-113093387D01*
X233720472Y-112939851D01*
X233771008Y-112773255D01*
X233788072Y-112600001D01*
X233788072Y-110799999D01*
X233771008Y-110626745D01*
X233720472Y-110460149D01*
X233638405Y-110306613D01*
X233527962Y-110172038D01*
X233393387Y-110061595D01*
X233239851Y-109979528D01*
X233073255Y-109928992D01*
X232900001Y-109911928D01*
X231099999Y-109911928D01*
X230926745Y-109928992D01*
X230760149Y-109979528D01*
X230606613Y-110061595D01*
X230472038Y-110172038D01*
X230361595Y-110306613D01*
X230279528Y-110460149D01*
X230228992Y-110626745D01*
X230211928Y-110799999D01*
X226375909Y-110799999D01*
X226352962Y-110772038D01*
X226218386Y-110661595D01*
X226116663Y-110607223D01*
X226180134Y-110555134D01*
X226365706Y-110329014D01*
X226503599Y-110071034D01*
X226588513Y-109791111D01*
X226617185Y-109500000D01*
X226588513Y-109208889D01*
X226503599Y-108928966D01*
X226365706Y-108670986D01*
X226180134Y-108444866D01*
X225954014Y-108259294D01*
X225936626Y-108250000D01*
X225954014Y-108240706D01*
X226180134Y-108055134D01*
X226365706Y-107829014D01*
X226503599Y-107571034D01*
X226588513Y-107291111D01*
X226617185Y-107000000D01*
X226588513Y-106708889D01*
X226503599Y-106428966D01*
X226488116Y-106399999D01*
X230211928Y-106399999D01*
X230211928Y-108200001D01*
X230228992Y-108373255D01*
X230279528Y-108539851D01*
X230361595Y-108693387D01*
X230472038Y-108827962D01*
X230606613Y-108938405D01*
X230760149Y-109020472D01*
X230926745Y-109071008D01*
X231099999Y-109088072D01*
X232900001Y-109088072D01*
X233073255Y-109071008D01*
X233239851Y-109020472D01*
X233393387Y-108938405D01*
X233527962Y-108827962D01*
X233638405Y-108693387D01*
X233720472Y-108539851D01*
X233771008Y-108373255D01*
X233788072Y-108200001D01*
X233788072Y-106399999D01*
X233771008Y-106226745D01*
X233720472Y-106060149D01*
X233638405Y-105906613D01*
X233527962Y-105772038D01*
X233393387Y-105661595D01*
X233239851Y-105579528D01*
X233073255Y-105528992D01*
X232900001Y-105511928D01*
X231099999Y-105511928D01*
X230926745Y-105528992D01*
X230760149Y-105579528D01*
X230606613Y-105661595D01*
X230472038Y-105772038D01*
X230361595Y-105906613D01*
X230279528Y-106060149D01*
X230228992Y-106226745D01*
X230211928Y-106399999D01*
X226488116Y-106399999D01*
X226365706Y-106170986D01*
X226180134Y-105944866D01*
X225954014Y-105759294D01*
X225936626Y-105750000D01*
X225954014Y-105740706D01*
X226180134Y-105555134D01*
X226365706Y-105329014D01*
X226503599Y-105071034D01*
X226588513Y-104791111D01*
X226617185Y-104500000D01*
X226588513Y-104208889D01*
X226540315Y-104050000D01*
X230211928Y-104050000D01*
X230224188Y-104174482D01*
X230260498Y-104294180D01*
X230319463Y-104404494D01*
X230398815Y-104501185D01*
X230495506Y-104580537D01*
X230605820Y-104639502D01*
X230725518Y-104675812D01*
X230850000Y-104688072D01*
X231714250Y-104685000D01*
X231873000Y-104526250D01*
X231873000Y-103027000D01*
X232127000Y-103027000D01*
X232127000Y-104526250D01*
X232285750Y-104685000D01*
X233150000Y-104688072D01*
X233274482Y-104675812D01*
X233394180Y-104639502D01*
X233504494Y-104580537D01*
X233601185Y-104501185D01*
X233680537Y-104404494D01*
X233739502Y-104294180D01*
X233775812Y-104174482D01*
X233788072Y-104050000D01*
X233785000Y-103185750D01*
X233626250Y-103027000D01*
X232127000Y-103027000D01*
X231873000Y-103027000D01*
X230373750Y-103027000D01*
X230215000Y-103185750D01*
X230211928Y-104050000D01*
X226540315Y-104050000D01*
X226503599Y-103928966D01*
X226365706Y-103670986D01*
X226180134Y-103444866D01*
X225954014Y-103259294D01*
X225928278Y-103245538D01*
X226134429Y-103089049D01*
X226327496Y-102871193D01*
X226474352Y-102619858D01*
X226566476Y-102356890D01*
X226445155Y-102127000D01*
X225127000Y-102127000D01*
X225127000Y-102147000D01*
X224873000Y-102147000D01*
X224873000Y-102127000D01*
X223554845Y-102127000D01*
X223433524Y-102356890D01*
X223525648Y-102619858D01*
X223672504Y-102871193D01*
X223865571Y-103089049D01*
X224071722Y-103245538D01*
X224045986Y-103259294D01*
X223819866Y-103444866D01*
X223634294Y-103670986D01*
X223496401Y-103928966D01*
X223411487Y-104208889D01*
X223382815Y-104500000D01*
X215617185Y-104500000D01*
X215588513Y-104208889D01*
X215503599Y-103928966D01*
X215365706Y-103670986D01*
X215180134Y-103444866D01*
X214954014Y-103259294D01*
X214928278Y-103245538D01*
X215134429Y-103089049D01*
X215327496Y-102871193D01*
X215474352Y-102619858D01*
X215566476Y-102356890D01*
X215445155Y-102127000D01*
X214127000Y-102127000D01*
X214127000Y-102147000D01*
X213873000Y-102147000D01*
X213873000Y-102127000D01*
X212554845Y-102127000D01*
X212433524Y-102356890D01*
X212525648Y-102619858D01*
X212672504Y-102871193D01*
X212865571Y-103089049D01*
X213071722Y-103245538D01*
X213045986Y-103259294D01*
X212819866Y-103444866D01*
X212634294Y-103670986D01*
X212496401Y-103928966D01*
X212411487Y-104208889D01*
X212382815Y-104500000D01*
X204617185Y-104500000D01*
X204588513Y-104208889D01*
X204503599Y-103928966D01*
X204365706Y-103670986D01*
X204180134Y-103444866D01*
X203954014Y-103259294D01*
X203928278Y-103245538D01*
X204134429Y-103089049D01*
X204327496Y-102871193D01*
X204474352Y-102619858D01*
X204566476Y-102356890D01*
X204445155Y-102127000D01*
X203127000Y-102127000D01*
X203127000Y-102147000D01*
X202873000Y-102147000D01*
X202873000Y-102127000D01*
X201554845Y-102127000D01*
X201433524Y-102356890D01*
X201525648Y-102619858D01*
X201672504Y-102871193D01*
X201865571Y-103089049D01*
X202071722Y-103245538D01*
X202045986Y-103259294D01*
X201819866Y-103444866D01*
X201634294Y-103670986D01*
X201496401Y-103928966D01*
X201411487Y-104208889D01*
X201382815Y-104500000D01*
X193617185Y-104500000D01*
X193588513Y-104208889D01*
X193503599Y-103928966D01*
X193365706Y-103670986D01*
X193180134Y-103444866D01*
X192954014Y-103259294D01*
X192928278Y-103245538D01*
X193134429Y-103089049D01*
X193327496Y-102871193D01*
X193474352Y-102619858D01*
X193566476Y-102356890D01*
X193445155Y-102127000D01*
X192127000Y-102127000D01*
X192127000Y-102147000D01*
X191873000Y-102147000D01*
X191873000Y-102127000D01*
X190554845Y-102127000D01*
X190433524Y-102356890D01*
X190525648Y-102619858D01*
X190672504Y-102871193D01*
X190865571Y-103089049D01*
X191071722Y-103245538D01*
X191045986Y-103259294D01*
X190819866Y-103444866D01*
X190634294Y-103670986D01*
X190496401Y-103928966D01*
X190411487Y-104208889D01*
X190382815Y-104500000D01*
X182617185Y-104500000D01*
X182588513Y-104208889D01*
X182503599Y-103928966D01*
X182365706Y-103670986D01*
X182180134Y-103444866D01*
X181954014Y-103259294D01*
X181928278Y-103245538D01*
X182134429Y-103089049D01*
X182327496Y-102871193D01*
X182474352Y-102619858D01*
X182566476Y-102356890D01*
X182445155Y-102127000D01*
X181127000Y-102127000D01*
X181127000Y-102147000D01*
X180873000Y-102147000D01*
X180873000Y-102127000D01*
X179554845Y-102127000D01*
X179433524Y-102356890D01*
X179525648Y-102619858D01*
X179672504Y-102871193D01*
X179865571Y-103089049D01*
X180071722Y-103245538D01*
X180045986Y-103259294D01*
X179819866Y-103444866D01*
X179634294Y-103670986D01*
X179496401Y-103928966D01*
X179411487Y-104208889D01*
X179382815Y-104500000D01*
X171617185Y-104500000D01*
X171588513Y-104208889D01*
X171503599Y-103928966D01*
X171365706Y-103670986D01*
X171180134Y-103444866D01*
X170954014Y-103259294D01*
X170928278Y-103245538D01*
X171134429Y-103089049D01*
X171327496Y-102871193D01*
X171474352Y-102619858D01*
X171566476Y-102356890D01*
X171445155Y-102127000D01*
X170127000Y-102127000D01*
X170127000Y-102147000D01*
X169873000Y-102147000D01*
X169873000Y-102127000D01*
X168554845Y-102127000D01*
X168433524Y-102356890D01*
X168525648Y-102619858D01*
X168672504Y-102871193D01*
X168865571Y-103089049D01*
X169071722Y-103245538D01*
X169045986Y-103259294D01*
X168819866Y-103444866D01*
X168634294Y-103670986D01*
X168496401Y-103928966D01*
X168411487Y-104208889D01*
X168382815Y-104500000D01*
X160617185Y-104500000D01*
X160588513Y-104208889D01*
X160503599Y-103928966D01*
X160365706Y-103670986D01*
X160180134Y-103444866D01*
X159954014Y-103259294D01*
X159928278Y-103245538D01*
X160134429Y-103089049D01*
X160327496Y-102871193D01*
X160474352Y-102619858D01*
X160566476Y-102356890D01*
X160445155Y-102127000D01*
X159127000Y-102127000D01*
X159127000Y-102147000D01*
X158873000Y-102147000D01*
X158873000Y-102127000D01*
X157554845Y-102127000D01*
X157433524Y-102356890D01*
X157525648Y-102619858D01*
X157672504Y-102871193D01*
X157865571Y-103089049D01*
X158071722Y-103245538D01*
X158045986Y-103259294D01*
X157819866Y-103444866D01*
X157634294Y-103670986D01*
X157496401Y-103928966D01*
X157411487Y-104208889D01*
X157382815Y-104500000D01*
X149617185Y-104500000D01*
X149588513Y-104208889D01*
X149503599Y-103928966D01*
X149365706Y-103670986D01*
X149180134Y-103444866D01*
X148954014Y-103259294D01*
X148928278Y-103245538D01*
X149134429Y-103089049D01*
X149327496Y-102871193D01*
X149474352Y-102619858D01*
X149566476Y-102356890D01*
X149445155Y-102127000D01*
X148127000Y-102127000D01*
X148127000Y-102147000D01*
X147873000Y-102147000D01*
X147873000Y-102127000D01*
X146554845Y-102127000D01*
X146433524Y-102356890D01*
X146525648Y-102619858D01*
X146672504Y-102871193D01*
X146865571Y-103089049D01*
X147071722Y-103245538D01*
X147045986Y-103259294D01*
X146819866Y-103444866D01*
X146634294Y-103670986D01*
X146496401Y-103928966D01*
X146411487Y-104208889D01*
X146382815Y-104500000D01*
X146411487Y-104791111D01*
X146463296Y-104961902D01*
X145533004Y-105892195D01*
X145504000Y-105915998D01*
X145467767Y-105960149D01*
X145409027Y-106031723D01*
X145393833Y-106060149D01*
X145338455Y-106163753D01*
X145294998Y-106307014D01*
X145284001Y-106418667D01*
X145284001Y-106418677D01*
X145280325Y-106455999D01*
X138511800Y-106455999D01*
X138503599Y-106428966D01*
X138365706Y-106170986D01*
X138180134Y-105944866D01*
X137954014Y-105759294D01*
X137936626Y-105750000D01*
X137954014Y-105740706D01*
X138180134Y-105555134D01*
X138365706Y-105329014D01*
X138503599Y-105071034D01*
X138588513Y-104791111D01*
X138617185Y-104500000D01*
X138588513Y-104208889D01*
X138503599Y-103928966D01*
X138365706Y-103670986D01*
X138180134Y-103444866D01*
X137954014Y-103259294D01*
X137928278Y-103245538D01*
X138134429Y-103089049D01*
X138327496Y-102871193D01*
X138474352Y-102619858D01*
X138566476Y-102356890D01*
X138445155Y-102127000D01*
X137127000Y-102127000D01*
X137127000Y-102147000D01*
X136873000Y-102147000D01*
X136873000Y-102127000D01*
X136853000Y-102127000D01*
X136853000Y-101873000D01*
X136873000Y-101873000D01*
X136873000Y-101853000D01*
X137127000Y-101853000D01*
X137127000Y-101873000D01*
X138445155Y-101873000D01*
X138566476Y-101643110D01*
X138474352Y-101380142D01*
X138327496Y-101128807D01*
X138134429Y-100910951D01*
X137928278Y-100754462D01*
X137954014Y-100740706D01*
X138180134Y-100555134D01*
X138365706Y-100329014D01*
X138503599Y-100071034D01*
X138588513Y-99791111D01*
X138617185Y-99500000D01*
X146382815Y-99500000D01*
X146411487Y-99791111D01*
X146496401Y-100071034D01*
X146634294Y-100329014D01*
X146819866Y-100555134D01*
X147045986Y-100740706D01*
X147071722Y-100754462D01*
X146865571Y-100910951D01*
X146672504Y-101128807D01*
X146525648Y-101380142D01*
X146433524Y-101643110D01*
X146554845Y-101873000D01*
X147873000Y-101873000D01*
X147873000Y-101853000D01*
X148127000Y-101853000D01*
X148127000Y-101873000D01*
X149445155Y-101873000D01*
X149566476Y-101643110D01*
X149474352Y-101380142D01*
X149327496Y-101128807D01*
X149134429Y-100910951D01*
X148928278Y-100754462D01*
X148954014Y-100740706D01*
X149180134Y-100555134D01*
X149365706Y-100329014D01*
X149503599Y-100071034D01*
X149588513Y-99791111D01*
X149617185Y-99500000D01*
X157382815Y-99500000D01*
X157411487Y-99791111D01*
X157496401Y-100071034D01*
X157634294Y-100329014D01*
X157819866Y-100555134D01*
X158045986Y-100740706D01*
X158071722Y-100754462D01*
X157865571Y-100910951D01*
X157672504Y-101128807D01*
X157525648Y-101380142D01*
X157433524Y-101643110D01*
X157554845Y-101873000D01*
X158873000Y-101873000D01*
X158873000Y-101853000D01*
X159127000Y-101853000D01*
X159127000Y-101873000D01*
X160445155Y-101873000D01*
X160566476Y-101643110D01*
X160474352Y-101380142D01*
X160327496Y-101128807D01*
X160134429Y-100910951D01*
X159928278Y-100754462D01*
X159954014Y-100740706D01*
X160180134Y-100555134D01*
X160365706Y-100329014D01*
X160503599Y-100071034D01*
X160588513Y-99791111D01*
X160617185Y-99500000D01*
X168382815Y-99500000D01*
X168411487Y-99791111D01*
X168496401Y-100071034D01*
X168634294Y-100329014D01*
X168819866Y-100555134D01*
X169045986Y-100740706D01*
X169071722Y-100754462D01*
X168865571Y-100910951D01*
X168672504Y-101128807D01*
X168525648Y-101380142D01*
X168433524Y-101643110D01*
X168554845Y-101873000D01*
X169873000Y-101873000D01*
X169873000Y-101853000D01*
X170127000Y-101853000D01*
X170127000Y-101873000D01*
X171445155Y-101873000D01*
X171566476Y-101643110D01*
X171474352Y-101380142D01*
X171327496Y-101128807D01*
X171134429Y-100910951D01*
X170928278Y-100754462D01*
X170954014Y-100740706D01*
X171180134Y-100555134D01*
X171365706Y-100329014D01*
X171503599Y-100071034D01*
X171588513Y-99791111D01*
X171617185Y-99500000D01*
X179382815Y-99500000D01*
X179411487Y-99791111D01*
X179496401Y-100071034D01*
X179634294Y-100329014D01*
X179819866Y-100555134D01*
X180045986Y-100740706D01*
X180071722Y-100754462D01*
X179865571Y-100910951D01*
X179672504Y-101128807D01*
X179525648Y-101380142D01*
X179433524Y-101643110D01*
X179554845Y-101873000D01*
X180873000Y-101873000D01*
X180873000Y-101853000D01*
X181127000Y-101853000D01*
X181127000Y-101873000D01*
X182445155Y-101873000D01*
X182566476Y-101643110D01*
X182474352Y-101380142D01*
X182327496Y-101128807D01*
X182134429Y-100910951D01*
X181928278Y-100754462D01*
X181954014Y-100740706D01*
X182180134Y-100555134D01*
X182365706Y-100329014D01*
X182503599Y-100071034D01*
X182588513Y-99791111D01*
X182617185Y-99500000D01*
X190382815Y-99500000D01*
X190411487Y-99791111D01*
X190496401Y-100071034D01*
X190634294Y-100329014D01*
X190819866Y-100555134D01*
X191045986Y-100740706D01*
X191071722Y-100754462D01*
X190865571Y-100910951D01*
X190672504Y-101128807D01*
X190525648Y-101380142D01*
X190433524Y-101643110D01*
X190554845Y-101873000D01*
X191873000Y-101873000D01*
X191873000Y-101853000D01*
X192127000Y-101853000D01*
X192127000Y-101873000D01*
X193445155Y-101873000D01*
X193566476Y-101643110D01*
X193474352Y-101380142D01*
X193327496Y-101128807D01*
X193134429Y-100910951D01*
X192928278Y-100754462D01*
X192954014Y-100740706D01*
X193180134Y-100555134D01*
X193365706Y-100329014D01*
X193503599Y-100071034D01*
X193588513Y-99791111D01*
X193617185Y-99500000D01*
X201382815Y-99500000D01*
X201411487Y-99791111D01*
X201496401Y-100071034D01*
X201634294Y-100329014D01*
X201819866Y-100555134D01*
X202045986Y-100740706D01*
X202071722Y-100754462D01*
X201865571Y-100910951D01*
X201672504Y-101128807D01*
X201525648Y-101380142D01*
X201433524Y-101643110D01*
X201554845Y-101873000D01*
X202873000Y-101873000D01*
X202873000Y-101853000D01*
X203127000Y-101853000D01*
X203127000Y-101873000D01*
X204445155Y-101873000D01*
X204566476Y-101643110D01*
X204474352Y-101380142D01*
X204327496Y-101128807D01*
X204134429Y-100910951D01*
X203928278Y-100754462D01*
X203954014Y-100740706D01*
X204180134Y-100555134D01*
X204365706Y-100329014D01*
X204503599Y-100071034D01*
X204588513Y-99791111D01*
X204617185Y-99500000D01*
X212382815Y-99500000D01*
X212411487Y-99791111D01*
X212496401Y-100071034D01*
X212634294Y-100329014D01*
X212819866Y-100555134D01*
X213045986Y-100740706D01*
X213071722Y-100754462D01*
X212865571Y-100910951D01*
X212672504Y-101128807D01*
X212525648Y-101380142D01*
X212433524Y-101643110D01*
X212554845Y-101873000D01*
X213873000Y-101873000D01*
X213873000Y-101853000D01*
X214127000Y-101853000D01*
X214127000Y-101873000D01*
X215445155Y-101873000D01*
X215566476Y-101643110D01*
X215474352Y-101380142D01*
X215327496Y-101128807D01*
X215134429Y-100910951D01*
X214928278Y-100754462D01*
X214954014Y-100740706D01*
X215180134Y-100555134D01*
X215365706Y-100329014D01*
X215503599Y-100071034D01*
X215588513Y-99791111D01*
X215617185Y-99500000D01*
X223382815Y-99500000D01*
X223411487Y-99791111D01*
X223496401Y-100071034D01*
X223634294Y-100329014D01*
X223819866Y-100555134D01*
X224045986Y-100740706D01*
X224071722Y-100754462D01*
X223865571Y-100910951D01*
X223672504Y-101128807D01*
X223525648Y-101380142D01*
X223433524Y-101643110D01*
X223554845Y-101873000D01*
X224873000Y-101873000D01*
X224873000Y-101853000D01*
X225127000Y-101853000D01*
X225127000Y-101873000D01*
X226445155Y-101873000D01*
X226510066Y-101750000D01*
X230211928Y-101750000D01*
X230215000Y-102614250D01*
X230373750Y-102773000D01*
X231873000Y-102773000D01*
X231873000Y-101273750D01*
X232127000Y-101273750D01*
X232127000Y-102773000D01*
X233626250Y-102773000D01*
X233785000Y-102614250D01*
X233788072Y-101750000D01*
X233775812Y-101625518D01*
X233739502Y-101505820D01*
X233680537Y-101395506D01*
X233601185Y-101298815D01*
X233504494Y-101219463D01*
X233394180Y-101160498D01*
X233274482Y-101124188D01*
X233150000Y-101111928D01*
X232285750Y-101115000D01*
X232127000Y-101273750D01*
X231873000Y-101273750D01*
X231714250Y-101115000D01*
X230850000Y-101111928D01*
X230725518Y-101124188D01*
X230605820Y-101160498D01*
X230495506Y-101219463D01*
X230398815Y-101298815D01*
X230319463Y-101395506D01*
X230260498Y-101505820D01*
X230224188Y-101625518D01*
X230211928Y-101750000D01*
X226510066Y-101750000D01*
X226566476Y-101643110D01*
X226474352Y-101380142D01*
X226327496Y-101128807D01*
X226134429Y-100910951D01*
X225928278Y-100754462D01*
X225954014Y-100740706D01*
X226180134Y-100555134D01*
X226365706Y-100329014D01*
X226503599Y-100071034D01*
X226588513Y-99791111D01*
X226617185Y-99500000D01*
X226588513Y-99208889D01*
X226503599Y-98928966D01*
X226365706Y-98670986D01*
X226180134Y-98444866D01*
X225954014Y-98259294D01*
X225696034Y-98121401D01*
X225416111Y-98036487D01*
X225197950Y-98015000D01*
X224802050Y-98015000D01*
X224583889Y-98036487D01*
X224303966Y-98121401D01*
X224045986Y-98259294D01*
X223819866Y-98444866D01*
X223634294Y-98670986D01*
X223496401Y-98928966D01*
X223411487Y-99208889D01*
X223382815Y-99500000D01*
X215617185Y-99500000D01*
X215588513Y-99208889D01*
X215503599Y-98928966D01*
X215365706Y-98670986D01*
X215180134Y-98444866D01*
X214954014Y-98259294D01*
X214696034Y-98121401D01*
X214416111Y-98036487D01*
X214197950Y-98015000D01*
X213802050Y-98015000D01*
X213583889Y-98036487D01*
X213303966Y-98121401D01*
X213045986Y-98259294D01*
X212819866Y-98444866D01*
X212634294Y-98670986D01*
X212496401Y-98928966D01*
X212411487Y-99208889D01*
X212382815Y-99500000D01*
X204617185Y-99500000D01*
X204588513Y-99208889D01*
X204503599Y-98928966D01*
X204365706Y-98670986D01*
X204180134Y-98444866D01*
X203954014Y-98259294D01*
X203696034Y-98121401D01*
X203416111Y-98036487D01*
X203197950Y-98015000D01*
X202802050Y-98015000D01*
X202583889Y-98036487D01*
X202303966Y-98121401D01*
X202045986Y-98259294D01*
X201819866Y-98444866D01*
X201634294Y-98670986D01*
X201496401Y-98928966D01*
X201411487Y-99208889D01*
X201382815Y-99500000D01*
X193617185Y-99500000D01*
X193588513Y-99208889D01*
X193503599Y-98928966D01*
X193365706Y-98670986D01*
X193180134Y-98444866D01*
X192954014Y-98259294D01*
X192696034Y-98121401D01*
X192416111Y-98036487D01*
X192197950Y-98015000D01*
X191802050Y-98015000D01*
X191583889Y-98036487D01*
X191303966Y-98121401D01*
X191045986Y-98259294D01*
X190819866Y-98444866D01*
X190634294Y-98670986D01*
X190496401Y-98928966D01*
X190411487Y-99208889D01*
X190382815Y-99500000D01*
X182617185Y-99500000D01*
X182588513Y-99208889D01*
X182503599Y-98928966D01*
X182365706Y-98670986D01*
X182180134Y-98444866D01*
X181954014Y-98259294D01*
X181696034Y-98121401D01*
X181416111Y-98036487D01*
X181197950Y-98015000D01*
X180802050Y-98015000D01*
X180583889Y-98036487D01*
X180303966Y-98121401D01*
X180045986Y-98259294D01*
X179819866Y-98444866D01*
X179634294Y-98670986D01*
X179496401Y-98928966D01*
X179411487Y-99208889D01*
X179382815Y-99500000D01*
X171617185Y-99500000D01*
X171588513Y-99208889D01*
X171503599Y-98928966D01*
X171365706Y-98670986D01*
X171180134Y-98444866D01*
X170954014Y-98259294D01*
X170696034Y-98121401D01*
X170416111Y-98036487D01*
X170197950Y-98015000D01*
X169802050Y-98015000D01*
X169583889Y-98036487D01*
X169303966Y-98121401D01*
X169045986Y-98259294D01*
X168819866Y-98444866D01*
X168634294Y-98670986D01*
X168496401Y-98928966D01*
X168411487Y-99208889D01*
X168382815Y-99500000D01*
X160617185Y-99500000D01*
X160588513Y-99208889D01*
X160503599Y-98928966D01*
X160365706Y-98670986D01*
X160180134Y-98444866D01*
X159954014Y-98259294D01*
X159696034Y-98121401D01*
X159416111Y-98036487D01*
X159197950Y-98015000D01*
X158802050Y-98015000D01*
X158583889Y-98036487D01*
X158303966Y-98121401D01*
X158045986Y-98259294D01*
X157819866Y-98444866D01*
X157634294Y-98670986D01*
X157496401Y-98928966D01*
X157411487Y-99208889D01*
X157382815Y-99500000D01*
X149617185Y-99500000D01*
X149588513Y-99208889D01*
X149503599Y-98928966D01*
X149365706Y-98670986D01*
X149180134Y-98444866D01*
X148954014Y-98259294D01*
X148696034Y-98121401D01*
X148416111Y-98036487D01*
X148197950Y-98015000D01*
X147802050Y-98015000D01*
X147583889Y-98036487D01*
X147303966Y-98121401D01*
X147045986Y-98259294D01*
X146819866Y-98444866D01*
X146634294Y-98670986D01*
X146496401Y-98928966D01*
X146411487Y-99208889D01*
X146382815Y-99500000D01*
X138617185Y-99500000D01*
X138588513Y-99208889D01*
X138503599Y-98928966D01*
X138365706Y-98670986D01*
X138180134Y-98444866D01*
X137954014Y-98259294D01*
X137696034Y-98121401D01*
X137416111Y-98036487D01*
X137197950Y-98015000D01*
X136802050Y-98015000D01*
X136583889Y-98036487D01*
X136303966Y-98121401D01*
X136045986Y-98259294D01*
X135819866Y-98444866D01*
X135634294Y-98670986D01*
X135496401Y-98928966D01*
X135411487Y-99208889D01*
X135382815Y-99500000D01*
X135411487Y-99791111D01*
X135457245Y-99941954D01*
X133728003Y-101671196D01*
X133698999Y-101694999D01*
X133653861Y-101750000D01*
X133604026Y-101810724D01*
X133570739Y-101873000D01*
X133533454Y-101942754D01*
X133489997Y-102086015D01*
X133479000Y-102197668D01*
X133479000Y-102197678D01*
X133475324Y-102235000D01*
X133479000Y-102272322D01*
X133479001Y-116703928D01*
X133334000Y-116703928D01*
X133209518Y-116716188D01*
X133089820Y-116752498D01*
X132979506Y-116811463D01*
X132882815Y-116890815D01*
X132803463Y-116987506D01*
X132744498Y-117097820D01*
X132708188Y-117217518D01*
X132695928Y-117342000D01*
X127614767Y-117342000D01*
X127408729Y-117135962D01*
X127042669Y-116891369D01*
X126635925Y-116722890D01*
X126204128Y-116637000D01*
X125763872Y-116637000D01*
X125332075Y-116722890D01*
X124925331Y-116891369D01*
X124559271Y-117135962D01*
X124247962Y-117447271D01*
X124003369Y-117813331D01*
X123834890Y-118220075D01*
X123749000Y-118651872D01*
X96215000Y-118651872D01*
X96129110Y-118220075D01*
X95960631Y-117813331D01*
X95716038Y-117447271D01*
X95404729Y-117135962D01*
X95038669Y-116891369D01*
X94631925Y-116722890D01*
X94200128Y-116637000D01*
X93759872Y-116637000D01*
X93328075Y-116722890D01*
X92921331Y-116891369D01*
X92555271Y-117135962D01*
X92243962Y-117447271D01*
X91999369Y-117813331D01*
X91830890Y-118220075D01*
X91745000Y-118651872D01*
X87862945Y-118651872D01*
X87839851Y-118639528D01*
X87673255Y-118588992D01*
X87500001Y-118571928D01*
X85699999Y-118571928D01*
X85526745Y-118588992D01*
X85360149Y-118639528D01*
X85206613Y-118721595D01*
X85072038Y-118832038D01*
X84961595Y-118966613D01*
X84879528Y-119120149D01*
X84828992Y-119286745D01*
X84811928Y-119459999D01*
X82127000Y-119459999D01*
X82127000Y-115099999D01*
X84811928Y-115099999D01*
X84811928Y-116900001D01*
X84828992Y-117073255D01*
X84879528Y-117239851D01*
X84961595Y-117393387D01*
X85072038Y-117527962D01*
X85206613Y-117638405D01*
X85360149Y-117720472D01*
X85526745Y-117771008D01*
X85699999Y-117788072D01*
X87500001Y-117788072D01*
X87673255Y-117771008D01*
X87839851Y-117720472D01*
X87993387Y-117638405D01*
X88127962Y-117527962D01*
X88238405Y-117393387D01*
X88320472Y-117239851D01*
X88371008Y-117073255D01*
X88388072Y-116900001D01*
X88388072Y-115099999D01*
X88371008Y-114926745D01*
X88320472Y-114760149D01*
X88238405Y-114606613D01*
X88127962Y-114472038D01*
X87993387Y-114361595D01*
X87839851Y-114279528D01*
X87673255Y-114228992D01*
X87500001Y-114211928D01*
X85699999Y-114211928D01*
X85526745Y-114228992D01*
X85360149Y-114279528D01*
X85206613Y-114361595D01*
X85072038Y-114472038D01*
X84961595Y-114606613D01*
X84879528Y-114760149D01*
X84828992Y-114926745D01*
X84811928Y-115099999D01*
X82127000Y-115099999D01*
X82127000Y-110699999D01*
X84861928Y-110699999D01*
X84861928Y-112500001D01*
X84878992Y-112673255D01*
X84929528Y-112839851D01*
X85011595Y-112993387D01*
X85122038Y-113127962D01*
X85256613Y-113238405D01*
X85410149Y-113320472D01*
X85576745Y-113371008D01*
X85749999Y-113388072D01*
X87550001Y-113388072D01*
X87723255Y-113371008D01*
X87889851Y-113320472D01*
X88043387Y-113238405D01*
X88177962Y-113127962D01*
X88288405Y-112993387D01*
X88370472Y-112839851D01*
X88421008Y-112673255D01*
X88438072Y-112500001D01*
X88438072Y-110699999D01*
X88421008Y-110526745D01*
X88370472Y-110360149D01*
X88288405Y-110206613D01*
X88177962Y-110072038D01*
X88043387Y-109961595D01*
X87889851Y-109879528D01*
X87723255Y-109828992D01*
X87550001Y-109811928D01*
X85749999Y-109811928D01*
X85576745Y-109828992D01*
X85410149Y-109879528D01*
X85256613Y-109961595D01*
X85122038Y-110072038D01*
X85011595Y-110206613D01*
X84929528Y-110360149D01*
X84878992Y-110526745D01*
X84861928Y-110699999D01*
X82127000Y-110699999D01*
X82127000Y-106299999D01*
X84861928Y-106299999D01*
X84861928Y-108100001D01*
X84878992Y-108273255D01*
X84929528Y-108439851D01*
X85011595Y-108593387D01*
X85122038Y-108727962D01*
X85256613Y-108838405D01*
X85410149Y-108920472D01*
X85576745Y-108971008D01*
X85749999Y-108988072D01*
X87550001Y-108988072D01*
X87723255Y-108971008D01*
X87889851Y-108920472D01*
X88043387Y-108838405D01*
X88177962Y-108727962D01*
X88288405Y-108593387D01*
X88370472Y-108439851D01*
X88421008Y-108273255D01*
X88438072Y-108100001D01*
X88438072Y-106299999D01*
X88421008Y-106126745D01*
X88370472Y-105960149D01*
X88288405Y-105806613D01*
X88177962Y-105672038D01*
X88043387Y-105561595D01*
X87889851Y-105479528D01*
X87723255Y-105428992D01*
X87550001Y-105411928D01*
X85749999Y-105411928D01*
X85576745Y-105428992D01*
X85410149Y-105479528D01*
X85256613Y-105561595D01*
X85122038Y-105672038D01*
X85011595Y-105806613D01*
X84929528Y-105960149D01*
X84878992Y-106126745D01*
X84861928Y-106299999D01*
X82127000Y-106299999D01*
X82127000Y-103950000D01*
X84861928Y-103950000D01*
X84874188Y-104074482D01*
X84910498Y-104194180D01*
X84969463Y-104304494D01*
X85048815Y-104401185D01*
X85145506Y-104480537D01*
X85255820Y-104539502D01*
X85375518Y-104575812D01*
X85500000Y-104588072D01*
X86364250Y-104585000D01*
X86523000Y-104426250D01*
X86523000Y-102927000D01*
X86777000Y-102927000D01*
X86777000Y-104426250D01*
X86935750Y-104585000D01*
X87800000Y-104588072D01*
X87924482Y-104575812D01*
X88044180Y-104539502D01*
X88118081Y-104500000D01*
X91382815Y-104500000D01*
X91411487Y-104791111D01*
X91496401Y-105071034D01*
X91634294Y-105329014D01*
X91819866Y-105555134D01*
X92045986Y-105740706D01*
X92063374Y-105750000D01*
X92045986Y-105759294D01*
X91819866Y-105944866D01*
X91634294Y-106170986D01*
X91496401Y-106428966D01*
X91411487Y-106708889D01*
X91382815Y-107000000D01*
X91411487Y-107291111D01*
X91496401Y-107571034D01*
X91634294Y-107829014D01*
X91819866Y-108055134D01*
X92045986Y-108240706D01*
X92063374Y-108250000D01*
X92045986Y-108259294D01*
X91819866Y-108444866D01*
X91634294Y-108670986D01*
X91496401Y-108928966D01*
X91411487Y-109208889D01*
X91382815Y-109500000D01*
X91411487Y-109791111D01*
X91496401Y-110071034D01*
X91634294Y-110329014D01*
X91819866Y-110555134D01*
X91883337Y-110607223D01*
X91781614Y-110661595D01*
X91647038Y-110772038D01*
X91536595Y-110906614D01*
X91454528Y-111060150D01*
X91403992Y-111226746D01*
X91386928Y-111400000D01*
X91386928Y-112600000D01*
X91403992Y-112773254D01*
X91454528Y-112939850D01*
X91536595Y-113093386D01*
X91647038Y-113227962D01*
X91781614Y-113338405D01*
X91935150Y-113420472D01*
X92101746Y-113471008D01*
X92275000Y-113488072D01*
X93725000Y-113488072D01*
X93898254Y-113471008D01*
X94064850Y-113420472D01*
X94218386Y-113338405D01*
X94352962Y-113227962D01*
X94463405Y-113093386D01*
X94545472Y-112939850D01*
X94596008Y-112773254D01*
X94613072Y-112600000D01*
X94613072Y-111400000D01*
X94596008Y-111226746D01*
X94545472Y-111060150D01*
X94463405Y-110906614D01*
X94352962Y-110772038D01*
X94218386Y-110661595D01*
X94116663Y-110607223D01*
X94180134Y-110555134D01*
X94365706Y-110329014D01*
X94503599Y-110071034D01*
X94588513Y-109791111D01*
X94617185Y-109500000D01*
X94588513Y-109208889D01*
X94503599Y-108928966D01*
X94365706Y-108670986D01*
X94180134Y-108444866D01*
X93954014Y-108259294D01*
X93936626Y-108250000D01*
X93954014Y-108240706D01*
X94180134Y-108055134D01*
X94365706Y-107829014D01*
X94503599Y-107571034D01*
X94588513Y-107291111D01*
X94617185Y-107000000D01*
X94588513Y-106708889D01*
X94503599Y-106428966D01*
X94365706Y-106170986D01*
X94180134Y-105944866D01*
X93954014Y-105759294D01*
X93936626Y-105750000D01*
X93954014Y-105740706D01*
X94180134Y-105555134D01*
X94365706Y-105329014D01*
X94503599Y-105071034D01*
X94588513Y-104791111D01*
X94617185Y-104500000D01*
X102382815Y-104500000D01*
X102411487Y-104791111D01*
X102496401Y-105071034D01*
X102634294Y-105329014D01*
X102819866Y-105555134D01*
X103045986Y-105740706D01*
X103063374Y-105750000D01*
X103045986Y-105759294D01*
X102819866Y-105944866D01*
X102634294Y-106170986D01*
X102496401Y-106428966D01*
X102411487Y-106708889D01*
X102382815Y-107000000D01*
X102411487Y-107291111D01*
X102496401Y-107571034D01*
X102634294Y-107829014D01*
X102819866Y-108055134D01*
X103045986Y-108240706D01*
X103063374Y-108250000D01*
X103045986Y-108259294D01*
X102819866Y-108444866D01*
X102634294Y-108670986D01*
X102496401Y-108928966D01*
X102411487Y-109208889D01*
X102382815Y-109500000D01*
X102411487Y-109791111D01*
X102496401Y-110071034D01*
X102634294Y-110329014D01*
X102819866Y-110555134D01*
X102883337Y-110607223D01*
X102781614Y-110661595D01*
X102647038Y-110772038D01*
X102536595Y-110906614D01*
X102454528Y-111060150D01*
X102403992Y-111226746D01*
X102386928Y-111400000D01*
X102386928Y-112600000D01*
X102403992Y-112773254D01*
X102454528Y-112939850D01*
X102536595Y-113093386D01*
X102647038Y-113227962D01*
X102781614Y-113338405D01*
X102935150Y-113420472D01*
X103101746Y-113471008D01*
X103275000Y-113488072D01*
X104725000Y-113488072D01*
X104898254Y-113471008D01*
X105064850Y-113420472D01*
X105218386Y-113338405D01*
X105352962Y-113227962D01*
X105463405Y-113093386D01*
X105545472Y-112939850D01*
X105596008Y-112773254D01*
X105613072Y-112600000D01*
X105613072Y-111400000D01*
X105596008Y-111226746D01*
X105545472Y-111060150D01*
X105463405Y-110906614D01*
X105352962Y-110772038D01*
X105218386Y-110661595D01*
X105116663Y-110607223D01*
X105180134Y-110555134D01*
X105365706Y-110329014D01*
X105503599Y-110071034D01*
X105588513Y-109791111D01*
X105617185Y-109500000D01*
X105588513Y-109208889D01*
X105503599Y-108928966D01*
X105365706Y-108670986D01*
X105180134Y-108444866D01*
X104954014Y-108259294D01*
X104936626Y-108250000D01*
X104954014Y-108240706D01*
X105180134Y-108055134D01*
X105365706Y-107829014D01*
X105503599Y-107571034D01*
X105588513Y-107291111D01*
X105617185Y-107000000D01*
X105588513Y-106708889D01*
X105503599Y-106428966D01*
X105365706Y-106170986D01*
X105180134Y-105944866D01*
X104954014Y-105759294D01*
X104936626Y-105750000D01*
X104954014Y-105740706D01*
X105180134Y-105555134D01*
X105365706Y-105329014D01*
X105503599Y-105071034D01*
X105588513Y-104791111D01*
X105617185Y-104500000D01*
X113382815Y-104500000D01*
X113411487Y-104791111D01*
X113496401Y-105071034D01*
X113634294Y-105329014D01*
X113819866Y-105555134D01*
X114045986Y-105740706D01*
X114063374Y-105750000D01*
X114045986Y-105759294D01*
X113819866Y-105944866D01*
X113634294Y-106170986D01*
X113496401Y-106428966D01*
X113411487Y-106708889D01*
X113382815Y-107000000D01*
X113411487Y-107291111D01*
X113496401Y-107571034D01*
X113634294Y-107829014D01*
X113819866Y-108055134D01*
X114045986Y-108240706D01*
X114063374Y-108250000D01*
X114045986Y-108259294D01*
X113819866Y-108444866D01*
X113634294Y-108670986D01*
X113496401Y-108928966D01*
X113411487Y-109208889D01*
X113382815Y-109500000D01*
X113411487Y-109791111D01*
X113496401Y-110071034D01*
X113634294Y-110329014D01*
X113819866Y-110555134D01*
X113883337Y-110607223D01*
X113781614Y-110661595D01*
X113647038Y-110772038D01*
X113536595Y-110906614D01*
X113454528Y-111060150D01*
X113403992Y-111226746D01*
X113386928Y-111400000D01*
X113386928Y-112600000D01*
X113403992Y-112773254D01*
X113454528Y-112939850D01*
X113536595Y-113093386D01*
X113647038Y-113227962D01*
X113781614Y-113338405D01*
X113935150Y-113420472D01*
X114101746Y-113471008D01*
X114275000Y-113488072D01*
X115725000Y-113488072D01*
X115898254Y-113471008D01*
X116064850Y-113420472D01*
X116218386Y-113338405D01*
X116352962Y-113227962D01*
X116463405Y-113093386D01*
X116545472Y-112939850D01*
X116596008Y-112773254D01*
X116613072Y-112600000D01*
X116613072Y-111400000D01*
X116596008Y-111226746D01*
X116545472Y-111060150D01*
X116463405Y-110906614D01*
X116352962Y-110772038D01*
X116218386Y-110661595D01*
X116116663Y-110607223D01*
X116180134Y-110555134D01*
X116365706Y-110329014D01*
X116503599Y-110071034D01*
X116588513Y-109791111D01*
X116617185Y-109500000D01*
X116588513Y-109208889D01*
X116503599Y-108928966D01*
X116365706Y-108670986D01*
X116180134Y-108444866D01*
X115954014Y-108259294D01*
X115936626Y-108250000D01*
X115954014Y-108240706D01*
X116180134Y-108055134D01*
X116365706Y-107829014D01*
X116503599Y-107571034D01*
X116588513Y-107291111D01*
X116617185Y-107000000D01*
X116588513Y-106708889D01*
X116503599Y-106428966D01*
X116365706Y-106170986D01*
X116180134Y-105944866D01*
X115954014Y-105759294D01*
X115936626Y-105750000D01*
X115954014Y-105740706D01*
X116180134Y-105555134D01*
X116365706Y-105329014D01*
X116503599Y-105071034D01*
X116588513Y-104791111D01*
X116617185Y-104500000D01*
X124382815Y-104500000D01*
X124411487Y-104791111D01*
X124496401Y-105071034D01*
X124634294Y-105329014D01*
X124819866Y-105555134D01*
X125045986Y-105740706D01*
X125063374Y-105750000D01*
X125045986Y-105759294D01*
X124819866Y-105944866D01*
X124634294Y-106170986D01*
X124496401Y-106428966D01*
X124411487Y-106708889D01*
X124382815Y-107000000D01*
X124411487Y-107291111D01*
X124496401Y-107571034D01*
X124634294Y-107829014D01*
X124819866Y-108055134D01*
X125045986Y-108240706D01*
X125063374Y-108250000D01*
X125045986Y-108259294D01*
X124819866Y-108444866D01*
X124634294Y-108670986D01*
X124496401Y-108928966D01*
X124411487Y-109208889D01*
X124382815Y-109500000D01*
X124411487Y-109791111D01*
X124496401Y-110071034D01*
X124634294Y-110329014D01*
X124819866Y-110555134D01*
X124883337Y-110607223D01*
X124781614Y-110661595D01*
X124647038Y-110772038D01*
X124536595Y-110906614D01*
X124454528Y-111060150D01*
X124403992Y-111226746D01*
X124386928Y-111400000D01*
X124386928Y-112600000D01*
X124403992Y-112773254D01*
X124454528Y-112939850D01*
X124536595Y-113093386D01*
X124647038Y-113227962D01*
X124781614Y-113338405D01*
X124935150Y-113420472D01*
X125101746Y-113471008D01*
X125275000Y-113488072D01*
X126725000Y-113488072D01*
X126898254Y-113471008D01*
X127064850Y-113420472D01*
X127218386Y-113338405D01*
X127352962Y-113227962D01*
X127463405Y-113093386D01*
X127545472Y-112939850D01*
X127596008Y-112773254D01*
X127613072Y-112600000D01*
X127613072Y-111400000D01*
X127596008Y-111226746D01*
X127545472Y-111060150D01*
X127463405Y-110906614D01*
X127352962Y-110772038D01*
X127218386Y-110661595D01*
X127116663Y-110607223D01*
X127180134Y-110555134D01*
X127365706Y-110329014D01*
X127503599Y-110071034D01*
X127588513Y-109791111D01*
X127617185Y-109500000D01*
X127588513Y-109208889D01*
X127503599Y-108928966D01*
X127365706Y-108670986D01*
X127180134Y-108444866D01*
X126954014Y-108259294D01*
X126936626Y-108250000D01*
X126954014Y-108240706D01*
X127180134Y-108055134D01*
X127365706Y-107829014D01*
X127503599Y-107571034D01*
X127588513Y-107291111D01*
X127617185Y-107000000D01*
X127588513Y-106708889D01*
X127503599Y-106428966D01*
X127365706Y-106170986D01*
X127180134Y-105944866D01*
X126954014Y-105759294D01*
X126936626Y-105750000D01*
X126954014Y-105740706D01*
X127180134Y-105555134D01*
X127365706Y-105329014D01*
X127503599Y-105071034D01*
X127588513Y-104791111D01*
X127617185Y-104500000D01*
X127588513Y-104208889D01*
X127503599Y-103928966D01*
X127365706Y-103670986D01*
X127180134Y-103444866D01*
X126954014Y-103259294D01*
X126928278Y-103245538D01*
X127134429Y-103089049D01*
X127327496Y-102871193D01*
X127474352Y-102619858D01*
X127566476Y-102356890D01*
X127445155Y-102127000D01*
X126127000Y-102127000D01*
X126127000Y-102147000D01*
X125873000Y-102147000D01*
X125873000Y-102127000D01*
X124554845Y-102127000D01*
X124433524Y-102356890D01*
X124525648Y-102619858D01*
X124672504Y-102871193D01*
X124865571Y-103089049D01*
X125071722Y-103245538D01*
X125045986Y-103259294D01*
X124819866Y-103444866D01*
X124634294Y-103670986D01*
X124496401Y-103928966D01*
X124411487Y-104208889D01*
X124382815Y-104500000D01*
X116617185Y-104500000D01*
X116588513Y-104208889D01*
X116503599Y-103928966D01*
X116365706Y-103670986D01*
X116180134Y-103444866D01*
X115954014Y-103259294D01*
X115928278Y-103245538D01*
X116134429Y-103089049D01*
X116327496Y-102871193D01*
X116474352Y-102619858D01*
X116566476Y-102356890D01*
X116445155Y-102127000D01*
X115127000Y-102127000D01*
X115127000Y-102147000D01*
X114873000Y-102147000D01*
X114873000Y-102127000D01*
X113554845Y-102127000D01*
X113433524Y-102356890D01*
X113525648Y-102619858D01*
X113672504Y-102871193D01*
X113865571Y-103089049D01*
X114071722Y-103245538D01*
X114045986Y-103259294D01*
X113819866Y-103444866D01*
X113634294Y-103670986D01*
X113496401Y-103928966D01*
X113411487Y-104208889D01*
X113382815Y-104500000D01*
X105617185Y-104500000D01*
X105588513Y-104208889D01*
X105503599Y-103928966D01*
X105365706Y-103670986D01*
X105180134Y-103444866D01*
X104954014Y-103259294D01*
X104928278Y-103245538D01*
X105134429Y-103089049D01*
X105327496Y-102871193D01*
X105474352Y-102619858D01*
X105566476Y-102356890D01*
X105445155Y-102127000D01*
X104127000Y-102127000D01*
X104127000Y-102147000D01*
X103873000Y-102147000D01*
X103873000Y-102127000D01*
X102554845Y-102127000D01*
X102433524Y-102356890D01*
X102525648Y-102619858D01*
X102672504Y-102871193D01*
X102865571Y-103089049D01*
X103071722Y-103245538D01*
X103045986Y-103259294D01*
X102819866Y-103444866D01*
X102634294Y-103670986D01*
X102496401Y-103928966D01*
X102411487Y-104208889D01*
X102382815Y-104500000D01*
X94617185Y-104500000D01*
X94588513Y-104208889D01*
X94503599Y-103928966D01*
X94365706Y-103670986D01*
X94180134Y-103444866D01*
X93954014Y-103259294D01*
X93928278Y-103245538D01*
X94134429Y-103089049D01*
X94327496Y-102871193D01*
X94474352Y-102619858D01*
X94566476Y-102356890D01*
X94445155Y-102127000D01*
X93127000Y-102127000D01*
X93127000Y-102147000D01*
X92873000Y-102147000D01*
X92873000Y-102127000D01*
X91554845Y-102127000D01*
X91433524Y-102356890D01*
X91525648Y-102619858D01*
X91672504Y-102871193D01*
X91865571Y-103089049D01*
X92071722Y-103245538D01*
X92045986Y-103259294D01*
X91819866Y-103444866D01*
X91634294Y-103670986D01*
X91496401Y-103928966D01*
X91411487Y-104208889D01*
X91382815Y-104500000D01*
X88118081Y-104500000D01*
X88154494Y-104480537D01*
X88251185Y-104401185D01*
X88330537Y-104304494D01*
X88389502Y-104194180D01*
X88425812Y-104074482D01*
X88438072Y-103950000D01*
X88435000Y-103085750D01*
X88276250Y-102927000D01*
X86777000Y-102927000D01*
X86523000Y-102927000D01*
X85023750Y-102927000D01*
X84865000Y-103085750D01*
X84861928Y-103950000D01*
X82127000Y-103950000D01*
X82127000Y-101650000D01*
X84861928Y-101650000D01*
X84865000Y-102514250D01*
X85023750Y-102673000D01*
X86523000Y-102673000D01*
X86523000Y-101173750D01*
X86777000Y-101173750D01*
X86777000Y-102673000D01*
X88276250Y-102673000D01*
X88435000Y-102514250D01*
X88438072Y-101650000D01*
X88425812Y-101525518D01*
X88389502Y-101405820D01*
X88330537Y-101295506D01*
X88251185Y-101198815D01*
X88154494Y-101119463D01*
X88044180Y-101060498D01*
X87924482Y-101024188D01*
X87800000Y-101011928D01*
X86935750Y-101015000D01*
X86777000Y-101173750D01*
X86523000Y-101173750D01*
X86364250Y-101015000D01*
X85500000Y-101011928D01*
X85375518Y-101024188D01*
X85255820Y-101060498D01*
X85145506Y-101119463D01*
X85048815Y-101198815D01*
X84969463Y-101295506D01*
X84910498Y-101405820D01*
X84874188Y-101525518D01*
X84861928Y-101650000D01*
X82127000Y-101650000D01*
X82127000Y-97599999D01*
X84861928Y-97599999D01*
X84861928Y-99400001D01*
X84878992Y-99573255D01*
X84929528Y-99739851D01*
X85011595Y-99893387D01*
X85122038Y-100027962D01*
X85256613Y-100138405D01*
X85410149Y-100220472D01*
X85576745Y-100271008D01*
X85749999Y-100288072D01*
X87550001Y-100288072D01*
X87723255Y-100271008D01*
X87889851Y-100220472D01*
X88043387Y-100138405D01*
X88177962Y-100027962D01*
X88288405Y-99893387D01*
X88370472Y-99739851D01*
X88421008Y-99573255D01*
X88428222Y-99500000D01*
X91382815Y-99500000D01*
X91411487Y-99791111D01*
X91496401Y-100071034D01*
X91634294Y-100329014D01*
X91819866Y-100555134D01*
X92045986Y-100740706D01*
X92071722Y-100754462D01*
X91865571Y-100910951D01*
X91672504Y-101128807D01*
X91525648Y-101380142D01*
X91433524Y-101643110D01*
X91554845Y-101873000D01*
X92873000Y-101873000D01*
X92873000Y-101853000D01*
X93127000Y-101853000D01*
X93127000Y-101873000D01*
X94445155Y-101873000D01*
X94566476Y-101643110D01*
X94474352Y-101380142D01*
X94327496Y-101128807D01*
X94134429Y-100910951D01*
X93928278Y-100754462D01*
X93954014Y-100740706D01*
X94180134Y-100555134D01*
X94365706Y-100329014D01*
X94503599Y-100071034D01*
X94588513Y-99791111D01*
X94617185Y-99500000D01*
X102382815Y-99500000D01*
X102411487Y-99791111D01*
X102496401Y-100071034D01*
X102634294Y-100329014D01*
X102819866Y-100555134D01*
X103045986Y-100740706D01*
X103071722Y-100754462D01*
X102865571Y-100910951D01*
X102672504Y-101128807D01*
X102525648Y-101380142D01*
X102433524Y-101643110D01*
X102554845Y-101873000D01*
X103873000Y-101873000D01*
X103873000Y-101853000D01*
X104127000Y-101853000D01*
X104127000Y-101873000D01*
X105445155Y-101873000D01*
X105566476Y-101643110D01*
X105474352Y-101380142D01*
X105327496Y-101128807D01*
X105134429Y-100910951D01*
X104928278Y-100754462D01*
X104954014Y-100740706D01*
X105180134Y-100555134D01*
X105365706Y-100329014D01*
X105503599Y-100071034D01*
X105588513Y-99791111D01*
X105617185Y-99500000D01*
X113382815Y-99500000D01*
X113411487Y-99791111D01*
X113496401Y-100071034D01*
X113634294Y-100329014D01*
X113819866Y-100555134D01*
X114045986Y-100740706D01*
X114071722Y-100754462D01*
X113865571Y-100910951D01*
X113672504Y-101128807D01*
X113525648Y-101380142D01*
X113433524Y-101643110D01*
X113554845Y-101873000D01*
X114873000Y-101873000D01*
X114873000Y-101853000D01*
X115127000Y-101853000D01*
X115127000Y-101873000D01*
X116445155Y-101873000D01*
X116566476Y-101643110D01*
X116474352Y-101380142D01*
X116327496Y-101128807D01*
X116134429Y-100910951D01*
X115928278Y-100754462D01*
X115954014Y-100740706D01*
X116180134Y-100555134D01*
X116365706Y-100329014D01*
X116503599Y-100071034D01*
X116588513Y-99791111D01*
X116617185Y-99500000D01*
X124382815Y-99500000D01*
X124411487Y-99791111D01*
X124496401Y-100071034D01*
X124634294Y-100329014D01*
X124819866Y-100555134D01*
X125045986Y-100740706D01*
X125071722Y-100754462D01*
X124865571Y-100910951D01*
X124672504Y-101128807D01*
X124525648Y-101380142D01*
X124433524Y-101643110D01*
X124554845Y-101873000D01*
X125873000Y-101873000D01*
X125873000Y-101853000D01*
X126127000Y-101853000D01*
X126127000Y-101873000D01*
X127445155Y-101873000D01*
X127566476Y-101643110D01*
X127474352Y-101380142D01*
X127327496Y-101128807D01*
X127134429Y-100910951D01*
X126928278Y-100754462D01*
X126954014Y-100740706D01*
X127180134Y-100555134D01*
X127365706Y-100329014D01*
X127503599Y-100071034D01*
X127588513Y-99791111D01*
X127617185Y-99500000D01*
X127588513Y-99208889D01*
X127503599Y-98928966D01*
X127365706Y-98670986D01*
X127180134Y-98444866D01*
X126954014Y-98259294D01*
X126696034Y-98121401D01*
X126416111Y-98036487D01*
X126197950Y-98015000D01*
X125802050Y-98015000D01*
X125583889Y-98036487D01*
X125303966Y-98121401D01*
X125045986Y-98259294D01*
X124819866Y-98444866D01*
X124634294Y-98670986D01*
X124496401Y-98928966D01*
X124411487Y-99208889D01*
X124382815Y-99500000D01*
X116617185Y-99500000D01*
X116588513Y-99208889D01*
X116503599Y-98928966D01*
X116365706Y-98670986D01*
X116180134Y-98444866D01*
X115954014Y-98259294D01*
X115696034Y-98121401D01*
X115416111Y-98036487D01*
X115197950Y-98015000D01*
X114802050Y-98015000D01*
X114583889Y-98036487D01*
X114303966Y-98121401D01*
X114045986Y-98259294D01*
X113819866Y-98444866D01*
X113634294Y-98670986D01*
X113496401Y-98928966D01*
X113411487Y-99208889D01*
X113382815Y-99500000D01*
X105617185Y-99500000D01*
X105588513Y-99208889D01*
X105503599Y-98928966D01*
X105365706Y-98670986D01*
X105180134Y-98444866D01*
X104954014Y-98259294D01*
X104696034Y-98121401D01*
X104416111Y-98036487D01*
X104197950Y-98015000D01*
X103802050Y-98015000D01*
X103583889Y-98036487D01*
X103303966Y-98121401D01*
X103045986Y-98259294D01*
X102819866Y-98444866D01*
X102634294Y-98670986D01*
X102496401Y-98928966D01*
X102411487Y-99208889D01*
X102382815Y-99500000D01*
X94617185Y-99500000D01*
X94588513Y-99208889D01*
X94503599Y-98928966D01*
X94365706Y-98670986D01*
X94180134Y-98444866D01*
X93954014Y-98259294D01*
X93696034Y-98121401D01*
X93416111Y-98036487D01*
X93197950Y-98015000D01*
X92802050Y-98015000D01*
X92583889Y-98036487D01*
X92303966Y-98121401D01*
X92045986Y-98259294D01*
X91819866Y-98444866D01*
X91634294Y-98670986D01*
X91496401Y-98928966D01*
X91411487Y-99208889D01*
X91382815Y-99500000D01*
X88428222Y-99500000D01*
X88438072Y-99400001D01*
X88438072Y-97599999D01*
X230211928Y-97599999D01*
X230211928Y-99400001D01*
X230228992Y-99573255D01*
X230279528Y-99739851D01*
X230361595Y-99893387D01*
X230472038Y-100027962D01*
X230606613Y-100138405D01*
X230760149Y-100220472D01*
X230926745Y-100271008D01*
X231099999Y-100288072D01*
X232900001Y-100288072D01*
X233073255Y-100271008D01*
X233239851Y-100220472D01*
X233393387Y-100138405D01*
X233527962Y-100027962D01*
X233638405Y-99893387D01*
X233720472Y-99739851D01*
X233771008Y-99573255D01*
X233788072Y-99400001D01*
X233788072Y-97599999D01*
X233771008Y-97426745D01*
X233720472Y-97260149D01*
X233638405Y-97106613D01*
X233527962Y-96972038D01*
X233393387Y-96861595D01*
X233239851Y-96779528D01*
X233073255Y-96728992D01*
X232900001Y-96711928D01*
X231099999Y-96711928D01*
X230926745Y-96728992D01*
X230760149Y-96779528D01*
X230606613Y-96861595D01*
X230472038Y-96972038D01*
X230361595Y-97106613D01*
X230279528Y-97260149D01*
X230228992Y-97426745D01*
X230211928Y-97599999D01*
X88438072Y-97599999D01*
X88421008Y-97426745D01*
X88370472Y-97260149D01*
X88288405Y-97106613D01*
X88177962Y-96972038D01*
X88043387Y-96861595D01*
X87889851Y-96779528D01*
X87723255Y-96728992D01*
X87550001Y-96711928D01*
X85749999Y-96711928D01*
X85576745Y-96728992D01*
X85410149Y-96779528D01*
X85256613Y-96861595D01*
X85122038Y-96972038D01*
X85011595Y-97106613D01*
X84929528Y-97260149D01*
X84878992Y-97426745D01*
X84861928Y-97599999D01*
X82127000Y-97599999D01*
X82127000Y-96160000D01*
X235840001Y-96160000D01*
X235840000Y-122590000D01*
G37*
%TD.AperFunction*%
%TD*%
M02*
